<svg width="57" height="57" viewBox="0 0 57 57" fill="none" xmlns="http://www.w3.org/2000/svg">
<path d="M28.4999 1.78125C23.7782 1.78223 19.141 3.03419 15.0604 5.4097C10.9797 7.78521 7.60134 11.1995 5.26901 15.3049C2.93669 19.4104 1.73373 24.0605 1.78256 28.782C1.8314 33.5034 3.13029 38.1277 5.54703 42.184C5.42535 42.3315 5.35441 42.5142 5.34472 42.7051C5.33504 42.8961 5.38712 43.0851 5.49325 43.2441L6.50189 44.757L2.21353 47.33C2.05937 47.4225 1.9368 47.5595 1.86195 47.7229C1.78709 47.8864 1.76345 48.0686 1.79413 48.2458C1.82481 48.4229 1.90838 48.5866 2.03385 48.7154C2.15931 48.8441 2.3208 48.9319 2.49708 48.9671L6.19395 49.7064L5.94647 54.2799C5.93772 54.4414 5.97311 54.6022 6.04884 54.7451C6.12457 54.888 6.23778 55.0076 6.37633 55.091C6.51487 55.1745 6.67352 55.2186 6.83525 55.2187C6.99697 55.2188 7.15567 55.1749 7.29432 55.0916L14.0965 51.0059C18.397 53.7565 23.3953 55.2183 28.5003 55.2183C33.6053 55.2183 38.6035 53.7565 42.9041 51.0059L49.7062 55.0916C49.8449 55.1749 50.0036 55.2188 50.1653 55.2187C50.327 55.2186 50.4857 55.1745 50.6242 55.091C50.7627 55.0076 50.876 54.888 50.9517 54.7451C51.0274 54.6022 51.0628 54.4414 51.0541 54.2799L50.8066 49.7064L54.5034 48.9671C54.6797 48.9319 54.8412 48.8441 54.9667 48.7154C55.0922 48.5866 55.1757 48.4229 55.2064 48.2458C55.2371 48.0686 55.2134 47.8864 55.1386 47.7229C55.0637 47.5595 54.9412 47.4225 54.787 47.33L50.4983 44.757L51.5069 43.2441C51.6131 43.085 51.6652 42.8959 51.6555 42.7049C51.6457 42.5139 51.5747 42.3311 51.4529 42.1837C53.8705 38.1275 55.17 33.5031 55.2192 28.7813C55.2684 24.0596 54.0655 19.4091 51.733 15.3034C49.4005 11.1977 46.0217 7.78338 41.9406 5.4081C37.8595 3.03282 33.2219 1.7814 28.4999 1.78125ZM10.0605 41.9013C15.8151 39.1392 22.1167 37.7052 28.4999 37.7052C34.883 37.7052 41.1847 39.1392 46.9393 41.9013L49.4553 43.1093L46.8855 46.964C41.1121 44.3368 34.8427 42.9774 28.4997 42.9774C22.1566 42.9774 15.8872 44.3368 10.1138 46.964L7.54414 43.1093L10.0605 41.9013ZM28.4999 35.9239C23.4686 35.931 18.4747 36.7877 13.7289 38.4581C11.7379 35.5195 10.6781 32.0495 10.6874 28.5C10.6874 18.6781 18.678 10.6875 28.4999 10.6875C38.3218 10.6875 46.3124 18.6781 46.3124 28.5C46.3209 32.0494 45.2609 35.5192 43.2703 38.4579C38.5246 36.7876 33.5309 35.931 28.4999 35.9239ZM34.6641 45.213C30.6852 46.679 26.3142 46.679 22.3353 45.213C26.4226 44.6071 30.5768 44.6071 34.6641 45.213ZM7.81578 52.7006L8.01417 49.0326C8.02577 48.8187 7.95992 48.6078 7.82867 48.4386C7.69742 48.2693 7.50957 48.153 7.29955 48.111L5.10539 47.6723L7.49115 46.2408L9.05575 48.5878C9.17453 48.766 9.35351 48.8953 9.5599 48.9523C9.7663 49.0092 9.9863 48.9899 10.1796 48.8979C10.7757 48.614 11.3789 48.3445 11.989 48.0893L12.991 49.5922L7.81578 52.7006ZM15.0606 49.5088C15.0408 49.4644 15.0175 49.4216 14.9909 49.3809L13.6843 47.4215C15.5036 46.7493 17.3663 46.2008 19.2596 45.78C22.1027 47.2991 25.2764 48.0938 28.4999 48.0938C31.7233 48.0938 34.897 47.2991 37.7401 45.78C39.6335 46.2006 41.4962 46.7488 43.3155 47.421L42.009 49.3804C41.9823 49.421 41.959 49.4637 41.9394 49.5082C37.9264 52.0736 33.263 53.4369 28.5 53.4369C23.7371 53.4369 19.0737 52.0736 15.0607 49.5082L15.0606 49.5088ZM51.8944 47.6719L49.7002 48.1107C49.4902 48.1527 49.3023 48.269 49.1711 48.4382C49.0398 48.6075 48.974 48.8184 48.9856 49.0322L49.184 52.7003L44.0089 49.5922L45.0108 48.0893C45.6204 48.3451 46.2235 48.6146 46.8203 48.8979C47.0136 48.9901 47.2338 49.0095 47.4403 48.9525C47.6468 48.8956 47.8259 48.7661 47.9447 48.5878L49.5093 46.2408L51.8944 47.6719ZM49.883 41.3382L47.7101 40.2952C46.8152 39.8657 45.9055 39.467 44.9812 39.099C47.0213 35.9411 48.1024 32.2596 48.0936 28.5C48.0936 17.6959 39.3039 8.90625 28.4999 8.90625C17.6958 8.90625 8.90613 17.6959 8.90613 28.5C8.89634 32.2598 9.97717 35.9417 12.0176 39.0997C11.0947 39.4677 10.1855 39.8663 9.2901 40.2955L7.11775 41.3382C4.84694 37.5541 3.621 33.2352 3.5651 28.8224C3.5092 24.4096 4.62535 20.061 6.79957 16.2206C8.9738 12.3802 12.1282 9.18557 15.9408 6.96287C19.7533 4.74018 24.0874 3.56904 28.5006 3.56904C32.9138 3.56904 37.2479 4.74018 41.0604 6.96287C44.873 9.18557 48.0274 12.3802 50.2016 16.2206C52.3759 20.061 53.492 24.4096 53.4361 28.8224C53.3802 33.2352 52.1543 37.5541 49.8834 41.3382H49.883Z" fill="#E6ACB3"/>
<path d="M36.9609 21.375H32.0625C31.8264 21.3747 31.6 21.2808 31.433 21.1138C31.2661 20.9469 31.1721 20.7205 31.1719 20.4844V17.8125C31.171 17.1041 30.8893 16.425 30.3884 15.9241C29.8875 15.4232 29.2084 15.1414 28.5 15.1406H26.7187C26.4825 15.1406 26.256 15.2345 26.089 15.4015C25.922 15.5685 25.8281 15.795 25.8281 16.0312V17.9943C25.83 18.6671 25.6984 19.3335 25.4409 19.9551C25.1834 20.5767 24.8052 21.141 24.3281 21.6154L23.6779 22.2656H18.7031C18.4669 22.2656 18.2404 22.3595 18.0734 22.5265C17.9063 22.6935 17.8125 22.92 17.8125 23.1562V32.9531C17.8125 33.1893 17.9063 33.4159 18.0734 33.5829C18.2404 33.7499 18.4669 33.8438 18.7031 33.8438H34.2891C34.6497 33.8438 35.005 33.7563 35.3243 33.5887C35.6437 33.4211 35.9175 33.1784 36.1223 32.8816C36.3272 32.5847 36.4568 32.2425 36.5001 31.8845C36.5434 31.5264 36.499 31.1632 36.3709 30.8261C36.8047 30.5517 37.1303 30.1359 37.2926 29.649C37.4549 29.162 37.4439 28.634 37.2615 28.1542C37.6953 27.8799 38.0209 27.464 38.1832 26.9771C38.3455 26.4902 38.3346 25.9621 38.1521 25.4823C38.5595 25.2242 38.872 24.8408 39.0428 24.3898C39.2135 23.9388 39.2332 23.4445 39.0988 22.9814C38.9645 22.5182 38.6834 22.1112 38.2979 21.8215C37.9124 21.5318 37.4432 21.3751 36.9609 21.375ZM19.5937 24.0469H23.1562V32.0625H19.5937V24.0469ZM36.9609 24.0469H36.0703C35.8341 24.0469 35.6076 24.1407 35.4405 24.3077C35.2735 24.4748 35.1797 24.7013 35.1797 24.9375C35.1797 25.1737 35.2735 25.4002 35.4405 25.5673C35.6076 25.7343 35.8341 25.8281 36.0703 25.8281C36.1884 25.8281 36.3017 25.875 36.3852 25.9586C36.4687 26.0421 36.5156 26.1553 36.5156 26.2734C36.5156 26.3915 36.4687 26.5048 36.3852 26.5883C36.3017 26.6718 36.1884 26.7188 36.0703 26.7188H35.1797C34.9435 26.7188 34.7169 26.8126 34.5499 26.9796C34.3829 27.1466 34.2891 27.3732 34.2891 27.6094C34.2891 27.8456 34.3829 28.0721 34.5499 28.2391C34.7169 28.4062 34.9435 28.5 35.1797 28.5C35.2978 28.5 35.4111 28.5469 35.4946 28.6304C35.5781 28.7139 35.625 28.8272 35.625 28.9453C35.625 29.0634 35.5781 29.1767 35.4946 29.2602C35.4111 29.3437 35.2978 29.3906 35.1797 29.3906H34.2891C34.0529 29.3906 33.8263 29.4845 33.6593 29.6515C33.4923 29.8185 33.3984 30.045 33.3984 30.2812C33.3984 30.5175 33.4923 30.744 33.6593 30.911C33.8263 31.078 34.0529 31.1719 34.2891 31.1719C34.4072 31.1719 34.5204 31.2188 34.6039 31.3023C34.6875 31.3858 34.7344 31.4991 34.7344 31.6172C34.7344 31.7353 34.6875 31.8486 34.6039 31.9321C34.5204 32.0156 34.4072 32.0625 34.2891 32.0625H24.9375V23.5251L25.5878 22.875C26.2307 22.2356 26.7404 21.4749 27.0874 20.6371C27.4344 19.7994 27.6118 18.9011 27.6094 17.9943V16.9219H28.5C28.7361 16.9221 28.9625 17.0161 29.1295 17.183C29.2964 17.35 29.3904 17.5764 29.3906 17.8125V20.4844C29.3914 21.1927 29.6732 21.8719 30.1741 22.3728C30.675 22.8737 31.3541 23.1554 32.0625 23.1562H36.9609C37.079 23.1562 37.1923 23.2032 37.2758 23.2867C37.3593 23.3702 37.4062 23.4835 37.4062 23.6016C37.4062 23.7197 37.3593 23.8329 37.2758 23.9164C37.1923 24 37.079 24.0469 36.9609 24.0469Z" fill="#E6ACB3"/>
<path d="M26.6528 40.1004L27.4766 40.699L27.1619 41.6676C27.1401 41.7346 27.14 41.8069 27.1618 41.874C27.1836 41.9412 27.2261 41.9996 27.2832 42.0411C27.3402 42.0826 27.409 42.1049 27.4795 42.1049C27.5501 42.1049 27.6188 42.0826 27.6759 42.0411L28.4997 41.4424L29.3236 42.0411C29.3806 42.0826 29.4494 42.1049 29.5199 42.1049C29.5905 42.1049 29.6592 42.0826 29.7163 42.0411C29.7734 41.9996 29.8159 41.9412 29.8377 41.874C29.8594 41.8069 29.8594 41.7346 29.8376 41.6676L29.5228 40.699L30.3467 40.1004C30.4037 40.0589 30.4462 40.0005 30.468 39.9334C30.4898 39.8663 30.4898 39.7941 30.468 39.727C30.4462 39.6599 30.4038 39.6015 30.3467 39.56C30.2896 39.5186 30.2209 39.4962 30.1504 39.4962H29.1321L28.8174 38.5277C28.7956 38.4606 28.7531 38.4021 28.696 38.3607C28.639 38.3193 28.5703 38.2969 28.4997 38.2969C28.4292 38.2969 28.3605 38.3193 28.3035 38.3607C28.2464 38.4021 28.2039 38.4606 28.1821 38.5277L27.8674 39.4962H26.8491C26.7785 39.4962 26.7098 39.5186 26.6528 39.56C26.5957 39.6015 26.5533 39.6599 26.5315 39.727C26.5097 39.7941 26.5097 39.8663 26.5315 39.9334C26.5533 40.0005 26.5957 40.0589 26.6528 40.1004Z" fill="#E6ACB3"/>
<path d="M21.5133 40.7441L22.3371 41.3427L22.0224 42.3113C22.0005 42.3784 22.0005 42.4507 22.0223 42.5178C22.0441 42.5849 22.0865 42.6434 22.1436 42.6848C22.2007 42.7263 22.2695 42.7487 22.34 42.7486C22.4106 42.7486 22.4793 42.7263 22.5364 42.6848L23.3602 42.0862L24.184 42.6848C24.2411 42.7263 24.3098 42.7486 24.3804 42.7486C24.451 42.7487 24.5197 42.7263 24.5768 42.6848C24.6339 42.6434 24.6763 42.5849 24.6981 42.5178C24.7199 42.4507 24.7199 42.3784 24.698 42.3113L24.3833 41.3427L25.2071 40.7441C25.2642 40.7027 25.3067 40.6442 25.3285 40.5771C25.3503 40.5101 25.3503 40.4378 25.3285 40.3707C25.3067 40.3037 25.2642 40.2452 25.2072 40.2037C25.1501 40.1623 25.0814 40.1399 25.0109 40.1399H23.9924L23.6778 39.1714C23.656 39.1043 23.6136 39.0458 23.5565 39.0043C23.4994 38.9628 23.4307 38.9405 23.3602 38.9405C23.2896 38.9405 23.2209 38.9628 23.1638 39.0043C23.1067 39.0458 23.0643 39.1043 23.0425 39.1714L22.7279 40.1399H21.7095C21.639 40.1399 21.5703 40.1623 21.5133 40.2037C21.4562 40.2452 21.4137 40.3037 21.392 40.3707C21.3702 40.4378 21.3702 40.5101 21.392 40.5771C21.4138 40.6442 21.4562 40.7027 21.5133 40.7441Z" fill="#E6ACB3"/>
<path d="M31.7926 40.7441L32.6165 41.3427L32.3017 42.3113C32.2799 42.3784 32.2799 42.4507 32.3016 42.5178C32.3234 42.5849 32.3659 42.6434 32.423 42.6848C32.4801 42.7263 32.5488 42.7487 32.6194 42.7486C32.6899 42.7486 32.7587 42.7263 32.8157 42.6848L33.6396 42.0862L34.4634 42.6848C34.5205 42.7263 34.5892 42.7486 34.6598 42.7486C34.7303 42.7487 34.7991 42.7263 34.8562 42.6848C34.9132 42.6434 34.9557 42.5849 34.9775 42.5178C34.9993 42.4507 34.9992 42.3784 34.9774 42.3113L34.6627 41.3427L35.4865 40.7441C35.5436 40.7027 35.586 40.6442 35.6078 40.5771C35.6296 40.51 35.6296 40.4378 35.6078 40.3707C35.586 40.3036 35.5435 40.2451 35.4865 40.2037C35.4294 40.1622 35.3607 40.1399 35.2901 40.1399H34.2718L33.9572 39.1714C33.9354 39.1043 33.8929 39.0458 33.8359 39.0043C33.7788 38.9628 33.7101 38.9405 33.6395 38.9405C33.569 38.9405 33.5002 38.9628 33.4432 39.0043C33.3861 39.0458 33.3436 39.1043 33.3218 39.1714L33.0072 40.1399H31.9889C31.9184 40.1399 31.8497 40.1623 31.7926 40.2037C31.7356 40.2452 31.6931 40.3037 31.6713 40.3707C31.6495 40.4378 31.6495 40.5101 31.6713 40.5771C31.6931 40.6442 31.7356 40.7027 31.7926 40.7441Z" fill="#E6ACB3"/>
</svg>
