<svg width="59" height="40" viewBox="0 0 59 40" fill="none" xmlns="http://www.w3.org/2000/svg"><rect x="1.362" y=".5" width="56.931" height="39" rx="3.5" fill="#fff" stroke="#F3EFF3"/><path fill-rule="evenodd" clip-rule="evenodd" d="M18.418 14.927c-.421.504-1.095.902-1.77.846-.084-.683.246-1.408.633-1.856.421-.519 1.158-.889 1.755-.917.07.71-.203 1.408-.618 1.927zm.611.98c-.594-.034-1.136.182-1.573.356-.282.112-.52.206-.702.206-.204 0-.452-.1-.731-.212-.365-.147-.783-.315-1.221-.307-1.005.015-1.939.59-2.451 1.508-1.054 1.834-.274 4.55.744 6.042.499.74 1.095 1.55 1.882 1.521.346-.013.595-.12.853-.23.296-.128.604-.26 1.085-.26.465 0 .76.129 1.042.253.27.117.527.23.91.223.815-.014 1.328-.739 1.827-1.478.538-.794.774-1.568.81-1.686l.004-.013-.019-.01c-.18-.083-1.555-.72-1.568-2.429-.013-1.434 1.09-2.16 1.265-2.275l.02-.014c-.702-1.052-1.797-1.166-2.177-1.194zm5.64 9.022V13.846h4.108c2.121 0 3.603 1.479 3.603 3.64s-1.51 3.654-3.66 3.654h-2.352v3.79h-1.7zm1.7-9.633h1.959c1.474 0 2.317.796 2.317 2.197 0 1.4-.843 2.204-2.324 2.204h-1.953v-4.4zM37.99 23.6c-.45.868-1.44 1.415-2.507 1.415-1.58 0-2.683-.952-2.683-2.388 0-1.422 1.068-2.24 3.041-2.36l2.121-.129v-.611c0-.903-.583-1.393-1.622-1.393-.857 0-1.482.448-1.608 1.13h-1.531c.049-1.436 1.383-2.481 3.188-2.481 1.945 0 3.21 1.03 3.21 2.63v5.517h-1.574v-1.33h-.035zm-2.05.1c-.907 0-1.483-.44-1.483-1.116 0-.697.555-1.102 1.616-1.166l1.889-.12v.625c0 1.038-.87 1.777-2.023 1.777zm8.876 1.663c-.68 1.941-1.46 2.581-3.118 2.581-.126 0-.548-.014-.646-.043v-1.329c.105.014.365.028.499.028.751 0 1.172-.32 1.432-1.151l.155-.49-2.88-8.07h1.777l2.002 6.548h.035l2.002-6.547h1.727l-2.985 8.474z" fill="#000"/></svg>