<svg width="28" height="28" viewBox="0 0 48 38" fill="none" xmlns="http://www.w3.org/2000/svg">
<path d="M31.6333 12.35L24 4.7167L16.35 12.35L14 10L24 3.8147e-05L34 10L31.6333 12.35Z" fill="#583F4C"/>
<path d="M1.63102 34V27H3.17102V29.77H6.01102V27H7.55102V34H6.01102V31.19H3.17102V34H1.63102ZM9.22867 34L12.2287 26.95H13.6487L16.6487 34H15.0387L14.3987 32.43H11.4387L10.7987 34H9.22867ZM11.9887 31.07H13.8487L12.9187 28.8L11.9887 31.07ZM18.3291 34V27H21.5791C22.3857 27 22.9957 27.2067 23.4091 27.62C23.7291 27.94 23.8891 28.3433 23.8891 28.83C23.8891 29.49 23.5824 29.9933 22.9691 30.34C23.4024 30.5067 23.7291 30.7267 23.9491 31C24.1691 31.2667 24.2791 31.6267 24.2791 32.08C24.2791 32.7067 24.0457 33.1833 23.5791 33.51C23.1124 33.8367 22.4724 34 21.6591 34H18.3291ZM19.8291 29.83H21.2491C21.9891 29.83 22.3591 29.5767 22.3591 29.07C22.3591 28.8367 22.2724 28.66 22.0991 28.54C21.9257 28.4133 21.6757 28.35 21.3491 28.35H19.8291V29.83ZM19.8291 32.65H21.6591C22.3857 32.65 22.7491 32.39 22.7491 31.87C22.7491 31.3633 22.3691 31.11 21.6091 31.11H19.8291V32.65ZM26.1459 34V27H31.4259V28.37H27.6759V29.79H30.9759V31.16H27.6759V32.63H31.4759V34H26.1459ZM33.4451 34V27H36.3051C37.1317 27 37.7851 27.2233 38.2651 27.67C38.7451 28.1167 38.9851 28.7067 38.9851 29.44C38.9851 30.22 38.7184 30.8267 38.1851 31.26C37.6517 31.6867 36.9751 31.9 36.1551 31.9H34.9851V34H33.4451ZM34.9851 30.53H36.2051C36.5851 30.53 36.8817 30.43 37.0951 30.23C37.3151 30.03 37.4251 29.77 37.4251 29.45C37.4251 29.11 37.3151 28.85 37.0951 28.67C36.8751 28.4833 36.5684 28.39 36.1751 28.39H34.9851V30.53ZM40.1948 34L42.6348 30.44L40.2948 27H42.0948L43.5648 29.27L45.0448 27H46.7948L44.4548 30.42L46.8948 34H45.0948L43.5248 31.6L41.9448 34H40.1948Z" fill="#583F4C"/>
</svg>
