<svg width="20" height="21" viewBox="0 0 20 21" fill="none" xmlns="http://www.w3.org/2000/svg"><g clip-path="url(#a)"><path d="M20 18.873c0 .69-.56 1.25-1.25 1.25H1.25a1.25 1.25 0 1 1 0-2.5h17.5c.69 0 1.25.56 1.25 1.25zm-10.884-3.96a1.246 1.246 0 0 0 1.768 0l4.429-4.429a1.25 1.25 0 1 0-1.768-1.767l-2.295 2.295V1.373a1.25 1.25 0 1 0-2.5 0v9.639L6.455 8.717a1.25 1.25 0 0 0-1.768 1.767l4.43 4.43z" fill="#1E34FF"/></g><defs><clipPath id="a"><path fill="#fff" transform="translate(0 .123)" d="M0 0h20v20H0z"/></clipPath></defs></svg>