<svg width="40" height="40" viewBox="0 0 40 40" fill="none" xmlns="http://www.w3.org/2000/svg"><path d="M25.895 17.5 21.29 22.38a.335.335 0 0 1-.49 0l-2.25-2.342a.427.427 0 0 0-.508-.079l-3.947 2.127a.152.152 0 0 1-.182-.237l4.666-4.942a.337.337 0 0 1 .492 0l2.245 2.386a.423.423 0 0 0 .51.082l3.882-2.105a.15.15 0 0 1 .187.229z" fill="#209CDC"/><path d="M36.842 0H3.158A3.158 3.158 0 0 0 0 3.158v33.684A3.158 3.158 0 0 0 3.158 40h33.684A3.158 3.158 0 0 0 40 36.842V3.158A3.158 3.158 0 0 0 36.842 0zM20 28.997a11.24 11.24 0 0 1-2.91-.379l-3.287 1.866a.244.244 0 0 1-.366-.208l-.042-3.434a9.486 9.486 0 0 1-3.921-7.602c0-5.39 4.713-9.766 10.526-9.766s10.526 4.368 10.526 9.758c0 5.39-4.713 9.765-10.526 9.765z" fill="#209CDC"/></svg>