<svg width="40" height="40" viewBox="0 0 40 40" fill="none" xmlns="http://www.w3.org/2000/svg"><path d="M36.842 0H3.158A3.158 3.158 0 0 0 0 3.158v33.684A3.158 3.158 0 0 0 3.158 40h33.684A3.158 3.158 0 0 0 40 36.842V3.158A3.158 3.158 0 0 0 36.842 0zM25.69 13.016c0 .376-.158.526-.527.526-.708 0-1.416 0-2.12.03-.706.028-1.09.35-1.09 1.086-.016.79 0 1.563 0 2.368h3.029c.431 0 .579.148.579.582v3.174c0 .428-.137.563-.572.565h-3.063v8.563c0 .458-.142.603-.594.603h-3.295c-.397 0-.553-.155-.553-.553v-8.6h-2.616c-.41 0-.558-.15-.558-.563v-3.192c0-.41.156-.566.561-.566h2.613v-2.302a5.761 5.761 0 0 1 .719-2.963 4.345 4.345 0 0 1 2.35-1.953 5.766 5.766 0 0 1 2.013-.347h2.587c.37 0 .526.163.526.526.013 1.013.013 2.016.01 3.016z" fill="#4267B2"/></svg>