<svg width="20" height="20" viewBox="0 0 20 20" fill="none" xmlns="http://www.w3.org/2000/svg"><g clip-path="url(#a)" fill="#282534"><path d="M15.005 13.282a2 2 0 0 0-2.832 0l-.967.966A17.74 17.74 0 0 1 5.788 8.83l.967-.966a2 2 0 0 0 0-2.833L4.869 3.152a1.952 1.952 0 0 0-1.407-.586 2 2 0 0 0-1.419.586l-.906.9A4.245 4.245 0 0 0 .044 7.55c.213 2.499 1.852 5.504 4.378 8.037 2.526 2.532 5.565 4.165 8.064 4.405.186.01.373.01.56 0a4.044 4.044 0 0 0 2.939-1.093l.9-.907a1.997 1.997 0 0 0 .586-1.42 1.953 1.953 0 0 0-.587-1.405l-1.88-1.886zm.94 3.772-.907.9a3.047 3.047 0 0 1-2.439.666c-2.166-.187-4.925-1.72-7.204-3.999-2.28-2.279-3.812-5.018-4.018-7.184a3.019 3.019 0 0 1 .666-2.439l.94-.906a.666.666 0 0 1 .473-.193.666.666 0 0 1 .473.193l1.886 1.906a.666.666 0 0 1 0 .94L4.482 8.27a.666.666 0 0 0-.107.807 18.32 18.32 0 0 0 2.886 3.718 18.323 18.323 0 0 0 3.719 2.886.666.666 0 0 0 .806-.107l1.333-1.333a.666.666 0 0 1 .94 0l1.886 1.886a.666.666 0 0 1 .193.474.666.666 0 0 1-.194.453zM17.104 2.926A9.943 9.943 0 0 0 10.04 0a.666.666 0 1 0 0 1.333 8.663 8.663 0 0 1 8.663 8.737.666.666 0 1 0 1.333 0 9.937 9.937 0 0 0-2.932-7.144z"/><path d="M13.312 6.737a4 4 0 0 1 1.18 2.873.667.667 0 0 0 1.333 0 5.331 5.331 0 0 0-5.332-5.398.666.666 0 0 0 0 1.333 3.999 3.999 0 0 1 2.82 1.192z"/></g><defs><clipPath id="a"><path fill="#fff" d="M0 0h20v20H0z"/></clipPath></defs></svg>