<svg width="20" height="20" viewBox="0 0 20 20" fill="none" xmlns="http://www.w3.org/2000/svg"><path fill-rule="evenodd" clip-rule="evenodd" d="M9.059 18c3.258 0 6.741-.396 6.741-5.528 0-2.486-.597-4.51-1.79-6.072-1.114 1.867-1.94 2.8-2.478 2.8-.806 0 0-2.436-.932-4.283C9.978 3.685 8.875 2.713 7.292 2c.22 1.775.172 3.062-.143 3.862-.474 1.2-4.489 3.302-4.126 6.912C3.386 16.384 5.8 18 9.06 18z" fill="#E93C3C" stroke="#E93C3C" stroke-width="2" stroke-linejoin="round"/><path d="M8.483 10.003c-1.522 1.384-2.17 2.664-1.946 3.841.193 1.014.962 1.507 1.542 1.665.449.124 1.226.192 1.921-.426.736-.656.443-1.587-.624-2.74-.45-.486-.748-1.266-.893-2.34z" fill="#E93C3C" stroke="#E93C3C" stroke-width="2" stroke-linejoin="round"/></svg>