<svg width="19" height="19" viewBox="0 0 19 19" fill="none" xmlns="http://www.w3.org/2000/svg"><path d="M9.333 17.667a8.308 8.308 0 0 0 5.893-2.441 8.308 8.308 0 0 0 2.44-5.893 8.308 8.308 0 0 0-2.44-5.892A8.307 8.307 0 0 0 9.333 1a8.307 8.307 0 0 0-5.892 2.44A8.307 8.307 0 0 0 1 9.334c0 2.301.933 4.385 2.44 5.893a8.308 8.308 0 0 0 5.893 2.44z" fill="#fff" stroke="#fff" stroke-width="2" stroke-linejoin="round"/><path fill-rule="evenodd" clip-rule="evenodd" d="M9.334 3.917a1.042 1.042 0 1 1 0 2.083 1.042 1.042 0 0 1 0-2.083z" fill="#933468"/><path d="M9.542 13.5V7.667h-.833M8.084 13.5H11" stroke="#933468" stroke-width="2" stroke-linecap="round" stroke-linejoin="round"/></svg>