<svg width="40" height="40" viewBox="0 0 40 40" fill="none" xmlns="http://www.w3.org/2000/svg"><path d="M28.953 13.227a3.558 3.558 0 0 0-.86-1.32 3.555 3.555 0 0 0-1.32-.86c-.404-.157-1.012-.344-2.132-.395-1.211-.055-1.574-.067-4.64-.067-3.068 0-3.43.012-4.642.067-1.12.051-1.727.238-2.132.395-.499.184-.95.478-1.32.86a3.56 3.56 0 0 0-.86 1.32c-.157.405-.344 1.013-.395 2.132-.055 1.211-.067 1.574-.067 4.641s.012 3.43.067 4.641c.051 1.12.238 1.728.395 2.132.185.5.478.95.86 1.32.37.382.82.676 1.32.86.405.157 1.013.344 2.132.395 1.211.056 1.574.067 4.64.067 3.068 0 3.431-.011 4.642-.067 1.12-.05 1.728-.238 2.132-.395a3.803 3.803 0 0 0 2.18-2.18c.157-.404.344-1.012.395-2.132.056-1.211.067-1.574.067-4.64 0-3.068-.011-3.43-.067-4.642-.05-1.12-.238-1.727-.395-2.132zM20 25.897a5.897 5.897 0 1 1 0-11.794 5.897 5.897 0 0 1 0 11.794zm6.13-10.65a1.378 1.378 0 1 1 0-2.756 1.378 1.378 0 0 1 0 2.757z" fill="url(#a)"/><path d="M23.828 20a3.828 3.828 0 1 1-7.656 0 3.828 3.828 0 0 1 7.656 0z" fill="url(#b)"/><path d="M37.115 0H2.885A2.885 2.885 0 0 0 0 2.885v34.23A2.885 2.885 0 0 0 2.885 40h34.23A2.885 2.885 0 0 0 40 37.115V2.885A2.885 2.885 0 0 0 37.115 0zm-5.7 24.735c-.055 1.222-.25 2.057-.534 2.788a5.872 5.872 0 0 1-3.358 3.358c-.73.284-1.566.478-2.788.534-1.225.056-1.616.07-4.735.07s-3.51-.014-4.735-.07c-1.222-.056-2.057-.25-2.787-.534a5.626 5.626 0 0 1-2.035-1.324 5.628 5.628 0 0 1-1.324-2.034c-.284-.73-.478-1.566-.534-2.788-.056-1.225-.07-1.616-.07-4.735s.014-3.51.07-4.735c.055-1.222.25-2.057.533-2.788.289-.766.741-1.46 1.325-2.034a5.625 5.625 0 0 1 2.034-1.324c.731-.284 1.566-.478 2.788-.534 1.225-.056 1.616-.07 4.735-.07s3.51.014 4.735.07c1.222.056 2.057.25 2.788.533a5.63 5.63 0 0 1 2.034 1.325 5.626 5.626 0 0 1 1.324 2.034c.285.731.479 1.566.534 2.788.056 1.225.07 1.616.07 4.735s-.014 3.51-.07 4.735z" fill="url(#c)"/><defs><linearGradient id="a" x1="20" y1="29.36" x2="20" y2="10.731" gradientUnits="userSpaceOnUse"><stop stop-color="#E09B3D"/><stop offset=".3" stop-color="#C74C4D"/><stop offset=".6" stop-color="#C21975"/><stop offset="1" stop-color="#7024C4"/></linearGradient><linearGradient id="b" x1="20" y1="23.806" x2="20" y2="16.231" gradientUnits="userSpaceOnUse"><stop stop-color="#E09B3D"/><stop offset=".3" stop-color="#C74C4D"/><stop offset=".6" stop-color="#C21975"/><stop offset="1" stop-color="#7024C4"/></linearGradient><linearGradient id="c" x1="20" y1="39.884" x2="20" y2=".311" gradientUnits="userSpaceOnUse"><stop stop-color="#E09B3D"/><stop offset=".3" stop-color="#C74C4D"/><stop offset=".6" stop-color="#C21975"/><stop offset="1" stop-color="#7024C4"/></linearGradient></defs></svg>