<svg width="28" height="30" viewBox="0 0 28 30" fill="none" xmlns="http://www.w3.org/2000/svg"><path d="M26.65 14.611a.901.901 0 0 0 0 .778l1.088 2.288c.606 1.275.126 2.794-1.093 3.459l-2.189 1.194a.878.878 0 0 0-.444.629l-.428 2.51c-.239 1.396-1.495 2.335-2.862 2.136l-2.454-.356a.841.841 0 0 0-.718.24l-1.782 1.771A2.5 2.5 0 0 1 14 30a2.5 2.5 0 0 1-1.768-.74L10.45 27.49a.84.84 0 0 0-.718-.24l-2.454.357a2.534 2.534 0 0 1-.365.026c-1.219 0-2.28-.892-2.497-2.164l-.428-2.51a.878.878 0 0 0-.444-.628l-2.19-1.194C.137 20.47-.343 18.952.263 17.678l1.088-2.29a.901.901 0 0 0 0-.776l-1.088-2.29C-.344 11.049.136 9.53 1.355 8.865L3.544 7.67a.878.878 0 0 0 .444-.629l.428-2.509c.239-1.397 1.495-2.336 2.862-2.137l2.453.357a.84.84 0 0 0 .72-.24L12.23.74a2.484 2.484 0 0 1 3.538 0l1.78 1.771a.84.84 0 0 0 .72.24l2.453-.356c1.366-.2 2.623.74 2.862 2.137l.428 2.51c.046.27.208.5.444.628l2.19 1.194c1.218.665 1.698 2.184 1.092 3.458l-1.088 2.29z" fill="url(#a)"/><path d="M10.323 18.5h-1.73l-1.66-2.7-1.66 2.7h-1.62l2.37-3.68-2.22-3.46h1.67l1.54 2.57 1.51-2.57h1.63l-2.24 3.54 2.41 3.6zm.9-7.14h1.36v3.45c0 .167-.003.353-.01.56l-.02.61a47.33 47.33 0 0 1-.02.51c-.006.14-.013.237-.02.29h.03l3.3-5.42h1.81v7.14h-1.35v-3.43c0-.18.003-.377.01-.59l.02-.63c.014-.2.024-.373.03-.52.014-.153.024-.253.03-.3h-.04l-3.31 5.47h-1.82v-7.14zm10.983 7.14h-1.51v-5.88h-1.94v-1.26h5.39v1.26h-1.94v5.88z" fill="#282534"/><defs><linearGradient id="a" x1="-4.9" y1="28.986" x2="31.979" y2="13.758" gradientUnits="userSpaceOnUse"><stop stop-color="#D3BEFF"/><stop offset="1" stop-color="#C9DBFF"/></linearGradient></defs></svg>