<svg width="24" height="24" viewBox="0 0 24 24" fill="none" xmlns="http://www.w3.org/2000/svg"><rect x="4" y="3" width="16" height="18" rx="3" fill="#AC9FA6"/><path d="M17.414 21.15a3.74 3.74 0 0 0 3.736-3.736V6.586a3.74 3.74 0 0 0-3.736-3.736H6.586A3.74 3.74 0 0 0 2.85 6.586v10.828a3.74 3.74 0 0 0 3.736 3.736h10.828zM5.151 5.151c.381-.38.897-.594 1.435-.595h10.828a2.032 2.032 0 0 1 2.03 2.03v10.828a2.032 2.032 0 0 1-2.03 2.03H6.586a2.032 2.032 0 0 1-2.03-2.03V6.586c0-.538.215-1.054.595-1.435z" fill="#583F4C" stroke="#583F4C" stroke-width=".3"/><path d="M17.01 12.781H8.347a.781.781 0 1 1 0-1.562h8.663a.781.781 0 1 1 0 1.562z" fill="#fff"/><path d="M10.482 16.52a.779.779 0 0 1-.553-.23l-3.32-3.32a1.374 1.374 0 0 1 0-1.94l3.32-3.32a.781.781 0 0 1 1.105 1.104L7.85 12l3.186 3.185a.781.781 0 0 1-.553 1.334z" fill="#fff"/></svg>