<svg width="20" height="20" viewBox="0 0 20 20" fill="none" xmlns="http://www.w3.org/2000/svg"><g opacity=".5"><path d="M10.333 18.667a8.308 8.308 0 0 0 5.893-2.441 8.308 8.308 0 0 0 2.44-5.893 8.308 8.308 0 0 0-2.44-5.892A8.307 8.307 0 0 0 10.333 2a8.307 8.307 0 0 0-5.892 2.44A8.307 8.307 0 0 0 2 10.334c0 2.301.933 4.385 2.44 5.893a8.308 8.308 0 0 0 5.893 2.44z" fill="#583F4C" stroke="#583F4C" stroke-width="2" stroke-linejoin="round"/><path fill-rule="evenodd" clip-rule="evenodd" d="M10.334 4.917a1.042 1.042 0 1 1 0 2.083 1.042 1.042 0 0 1 0-2.083z" fill="#fff"/><path d="M10.542 14.5V8.667h-.833M9.084 14.5H12" stroke="#fff" stroke-width="2" stroke-linecap="round" stroke-linejoin="round"/></g></svg>