<svg width="23" height="24" viewBox="0 0 23 24" fill="none" xmlns="http://www.w3.org/2000/svg"><path d="M11.182 13.519C3.972 13.519 0 16.929 0 23.124c0 .484.392.876.876.876h20.613a.876.876 0 0 0 .876-.876c0-6.194-3.972-9.605-11.183-9.605zm-9.398 8.73c.344-4.632 3.502-6.979 9.398-6.979 5.897 0 9.055 2.347 9.4 6.978H1.783zM11.182 0c-3.312 0-5.81 2.548-5.81 5.927 0 3.477 2.607 6.306 5.81 6.306 3.204 0 5.81-2.829 5.81-6.306 0-3.379-2.497-5.927-5.81-5.927zm0 10.482c-2.238 0-4.058-2.044-4.058-4.555 0-2.42 1.707-4.175 4.058-4.175 2.314 0 4.059 1.795 4.059 4.175 0 2.511-1.82 4.555-4.059 4.555z" fill="currentColor"/></svg>