<svg width="58" height="40" viewBox="0 0 58 40" fill="none" xmlns="http://www.w3.org/2000/svg"><rect x=".5" y=".5" width="56.931" height="39" rx="3.5" fill="#fff" stroke="#F3EFF3"/><path d="M25.721 27.433h-3.857l2.413-14h3.856l-2.412 14zM39.702 13.774a10.051 10.051 0 0 0-3.459-.595c-3.809 0-6.49 1.906-6.507 4.631-.032 2.011 1.92 3.128 3.38 3.799 1.492.685 2 1.132 2 1.743-.016.938-1.206 1.37-2.317 1.37-1.54 0-2.365-.223-3.619-.745l-.508-.223-.54 3.142c.905.387 2.572.73 4.302.746 4.047 0 6.682-1.877 6.713-4.782.016-1.594-1.015-2.815-3.237-3.813-1.35-.64-2.175-1.072-2.175-1.728.015-.596.698-1.206 2.221-1.206a6.922 6.922 0 0 1 2.873.536l.349.149.524-3.023z" fill="#15195A"/><path fill-rule="evenodd" clip-rule="evenodd" d="M46.606 13.433h2.984l3.111 14h-3.57s-.35-1.608-.461-2.1h-4.952l-.81 2.1h-4.046l5.729-12.839c.396-.908 1.095-1.161 2.015-1.161zm-.237 5.123s-1.222 3.113-1.54 3.917h3.206c-.159-.7-.89-4.05-.89-4.05l-.269-1.207c-.113.31-.277.737-.388 1.026-.075.195-.126.326-.12.314zM5.153 13.433h6.205c.841.03 1.524.282 1.746 1.177l1.348 6.432v.002l.414 1.936 3.777-9.547h4.078L16.66 27.419H12.58L9.143 15.253c-1.186-.65-2.54-1.174-4.054-1.537l.064-.283z" fill="#15195A"/></svg>