<svg width="16" height="16" viewBox="0 0 16 16" fill="none" xmlns="http://www.w3.org/2000/svg"><path d="M14.737 0H1.263A1.263 1.263 0 0 0 0 1.263v13.474A1.263 1.263 0 0 0 1.263 16h13.474A1.263 1.263 0 0 0 16 14.737V1.263A1.263 1.263 0 0 0 14.737 0zm-3.04 8.779c.255.265.533.502.787.77.233.245.483.516.632.827.083.18.067.39-.121.485a.717.717 0 0 1-.322.056l-1.243.02c-.047 0-.092 0-.137.006a.994.994 0 0 1-.561-.155c-.316-.185-.56-.485-.794-.762a1.573 1.573 0 0 0-.47-.427c-.173-.083-.304 0-.408.142a1.105 1.105 0 0 0-.175.563c-.013.164.03.388-.105.512-.163.15-.464.105-.667.105a3.799 3.799 0 0 1-.964-.078 3.857 3.857 0 0 1-1.242-.608 4.022 4.022 0 0 1-.683-.6 11.58 11.58 0 0 1-1.379-1.982 20.986 20.986 0 0 1-.667-1.274c-.105-.226-.224-.456-.316-.69-.059-.162-.028-.302.15-.349a2.01 2.01 0 0 1 .484-.02h.737c.137-.007.276-.007.413 0a.453.453 0 0 1 .372.259c.094.217.186.432.29.643.14.287.289.575.443.856.096.182.207.355.332.519.105.13.261.316.435.342.21.03.28-.178.316-.348a4.57 4.57 0 0 0 .06-1.26 1.615 1.615 0 0 0-.12-.564.501.501 0 0 0-.309-.253c-.054-.018-.2-.016-.21-.08-.01-.062.131-.169.178-.202.23-.165.575-.161.842-.173.413-.018.88-.046 1.283.073.42.126.334.679.316 1.024-.015.405-.046.823-.023 1.23.009.165.024.433.2.517.175.084.345-.126.451-.239.275-.321.511-.675.703-1.052a8.888 8.888 0 0 0 .462-.974c.026-.1.08-.191.156-.261.105-.078.284-.05.413-.05H12.54c.184 0 .52-.065.603.16.066.177-.07.42-.146.573a7.17 7.17 0 0 1-.662 1.003c-.238.316-.496.622-.715.954a.703.703 0 0 0-.15.35c.004.168.115.296.227.412z" fill="#5181B8"/></svg>