<svg width="40" height="40" viewBox="0 0 40 40" fill="none" xmlns="http://www.w3.org/2000/svg"><path d="M36.842 0H3.158A3.158 3.158 0 0 0 0 3.158v33.684A3.158 3.158 0 0 0 3.158 40h33.684A3.158 3.158 0 0 0 40 36.842V3.158A3.158 3.158 0 0 0 36.842 0zm-7.6 21.947c.637.663 1.332 1.256 1.968 1.924.582.613 1.208 1.292 1.58 2.069.207.45.168.976-.303 1.213-.254.108-.53.155-.805.14l-3.108.05c-.116 0-.23 0-.342.015a2.485 2.485 0 0 1-1.403-.387c-.79-.463-1.4-1.213-1.984-1.905a3.93 3.93 0 0 0-1.177-1.069c-.431-.207-.758 0-1.018.356-.27.42-.421.907-.437 1.407-.034.411.076.969-.263 1.28-.408.376-1.16.263-1.668.263a9.483 9.483 0 0 1-2.408-.195 9.643 9.643 0 0 1-3.106-1.521 10.056 10.056 0 0 1-1.708-1.497 28.952 28.952 0 0 1-3.447-4.958 52.488 52.488 0 0 1-1.668-3.185c-.263-.565-.56-1.14-.79-1.726-.147-.403-.07-.753.374-.871.4-.065.806-.082 1.21-.05h1.843c.344-.018.69-.018 1.034 0a1.132 1.132 0 0 1 .929.647c.234.543.466 1.08.723 1.608.353.719.724 1.437 1.108 2.14.241.454.52.888.832 1.297.263.324.652.79 1.087.855.526.074.702-.444.79-.87.092-.471.151-.948.175-1.427.035-.574.026-1.15-.026-1.724a4.036 4.036 0 0 0-.297-1.408 1.251 1.251 0 0 0-.774-.634c-.137-.045-.5-.04-.526-.197-.027-.158.329-.424.445-.508.576-.41 1.44-.403 2.105-.432 1.034-.044 2.203-.115 3.208.182 1.052.316.834 1.697.79 2.56-.038 1.014-.114 2.058-.059 3.074.024.413.06 1.084.5 1.295.44.21.863-.316 1.13-.598a13.324 13.324 0 0 0 1.757-2.631 22.045 22.045 0 0 0 1.155-2.434c.063-.251.199-.478.39-.653.263-.195.71-.124 1.032-.126h3.26c.46 0 1.3-.16 1.508.4.166.445-.174 1.052-.366 1.434-.48.88-1.034 1.72-1.655 2.508-.595.79-1.24 1.555-1.787 2.384a1.757 1.757 0 0 0-.376.874c.01.42.29.742.568 1.031z" fill="#008DFF"/></svg>