<svg width="343" height="369" viewBox="0 0 343 369" fill="none" xmlns="http://www.w3.org/2000/svg"><path d="M324.299 177.533c22.551 74.261-41.764 152.35-112.646 174.852-71.352 22.651-167.297-5.328-191.823-76.229-25.675-74.223 39.112-160.225 116.067-182.07 70.706-20.069 166.078 9.935 188.402 83.447z" fill="#FFA6B0" fill-opacity=".31"/><path opacity=".54" d="M324.299 177.533c22.551 74.261-41.764 152.35-112.646 174.852-71.352 22.651-167.297-5.328-191.823-76.229-25.675-74.223 39.112-160.225 116.067-182.07 70.706-20.069 166.078 9.935 188.402 83.447z" fill="#fff"/><path d="M211.654 360.15c.179.88.302 2.243-.383 3.467-.755 1.348-2.015 1.681-5.61 2.846-5.086 1.649-6.42 2.127-8.578 2.097-1.283-.018-3.467-.103-3.813-1.144-.279-.84.703-2.121 2.351-3.177 2.707-1.363 6.385-2.726 9.092-4.089" fill="#583F4C"/><path d="M211.313 360.11h-6.226l-3.4-78.776h13.027a459.727 459.727 0 0 1-.218 32.774c-.573 13.547-1.709 34.28-3.183 46.002zM228.945 360.11h-6.226l-3.401-78.776h13.027a459.703 459.703 0 0 1-.217 32.774c-.573 13.547-1.709 34.28-3.183 46.002z" fill="#F4B99F"/><path d="M196.414 140.664c-.477.562-4.132 4.996-4.026 10.994.09 5.059 2.801 12.026 2.089 16.001-.433 2.418-1.029 3.005-2.228 6.155-1.409 3.703-5.012 13.17-3.203 20.105 2.268 8.696 13.283 14.32 22.14 15.454 14.236 1.823 30.061-7.033 31.053-16.138.858-7.887-10.014-10.42-11.001-23.387-.425-5.581 1.398-7.61.139-14.908-.491-2.847-1.331-8.48-5.013-12.993-5.092-6.242-12.964-7.199-15.789-7.376-.242-.015-.476-.032-.805-.039-5.159-.104-10.24 2.457-13.356 6.132z" fill="#583F4C"/><path d="M199.093 184.464a5.395 5.395 0 0 0-6.013 5.214l-.94 35.236c-.036 1.356 1.251 2.56 2.948 2.756 1.752.203 3.314-.738 3.52-2.123l5.2-34.931a5.394 5.394 0 0 0-4.715-6.152z" fill="#F4B99F"/><path d="m193.473 222.144-26.128 22.887 2.323 3.074 27.853-20.767c.989-.738.899-2.521-.201-3.977-1.135-1.502-2.888-2.056-3.847-1.217zM206.601 168.731l.986 11.361h12.141l.985-24.899-14.112 13.538z" fill="#F4B99F"/><path d="M219.777 178.83c12.228 3.276 17.539 7.895 17.539 7.895-21.658 11.961-43.092 0-43.092 0 2.902-2.632 13.174-7.895 13.174-7.895h12.379z" fill="#F4B99F"/><path d="M195.311 205.161c1.565 4.12 3.445 4.263 5.794 9.415a29.811 29.811 0 0 1 2.19 6.993h27.644a76.968 76.968 0 0 1 .101-9.407c.752-10.409 3.518-19.044 6.277-25.438a54.43 54.43 0 0 0-13.329-6.632s-10.565 10.423-18.987 0c0 0-7.287 3.072-9.097 5.343a40.437 40.437 0 0 0-1.451 7.713c-.359 4.035-.703 7.905.858 12.013z" fill="#933468"/><path d="M203.295 221.566s-9.433 56.401-22.469 80.902c0 0 10.175 4.623 22.469 0 0 0 20.623 7.859 34.022-.462 0 0 15.209.462 20.641-3.698 0 0-9.502-34.886-27.019-76.742h-27.644z" fill="#583F4C"/><path d="M167.556 244.953s-4.347.892-6.23 4.903c-1.883 4.012 2.218 2.921 3.773.109 1.556-2.811 4.67.411 5.592-2.518 0 0 .203-2.018-3.135-2.494z" fill="#F4B99F"/><path d="M130.84 367.636a4.596 4.596 0 1 0 0-9.193 4.596 4.596 0 0 0 0 9.193z" fill="#933468"/><path d="M130.84 367.636a4.596 4.596 0 1 0 0-9.193 4.596 4.596 0 0 0 0 9.193z" fill="#933468"/><path opacity=".1" d="M130.84 366.289a3.25 3.25 0 1 0 0-6.5 3.25 3.25 0 0 0 0 6.5z" fill="#583F4C"/><path opacity=".11" d="M130.84 367.636a4.596 4.596 0 1 0 0-9.193 4.596 4.596 0 0 0 0 9.193z" fill="#583F4C"/><path d="M90.735 367.636a4.596 4.596 0 1 0 0-9.193 4.596 4.596 0 0 0 0 9.193z" fill="#933468"/><path d="M90.735 367.636a4.596 4.596 0 1 0 0-9.193 4.596 4.596 0 0 0 0 9.193z" fill="#933468"/><path opacity=".1" d="M90.735 366.289a3.25 3.25 0 1 0 0-6.5 3.25 3.25 0 0 0 0 6.5z" fill="#583F4C"/><path opacity=".11" d="M90.735 367.636a4.596 4.596 0 1 0 0-9.193 4.596 4.596 0 0 0 0 9.193z" fill="#583F4C"/><path d="M169.56 367.636a4.596 4.596 0 1 0 0-9.193 4.596 4.596 0 0 0 0 9.193zM131.739 324.649l11.08-25.163 17.567-39.896 4.057-9.214-.9.516h36.32l-1.005-1.319-9.32 25.065-14.868 39.984-3.43 9.224 1.004-.765H130.84c-1.34 0-1.343 2.084 0 2.084h41.404c.492 0 .843-.33 1.005-.765l9.32-25.064 14.868-39.985 3.43-9.224c.24-.645-.376-1.318-1.004-1.318h-36.32c-.334 0-.756.191-.899.516l-11.08 25.162-17.567 39.897-4.057 9.213c-.535 1.216 1.26 2.277 1.799 1.052z" fill="#933468"/><path d="M171.944 357.401h-41.105l1.042 1.042V324.54l-1.042 1.042h41.105l-1.042-1.042v33.903c0 1.341 2.083 1.343 2.083 0V324.54c0-.563-.477-1.042-1.042-1.042h-41.104c-.563 0-1.042.477-1.042 1.042v33.903c0 .563.477 1.042 1.042 1.042h41.104c1.341 0 1.344-2.084.001-2.084z" fill="#933468"/><path d="M171.944 357.818H81.785c-1.34 0-1.343 2.084 0 2.084H171.944c1.34 0 1.343-2.084 0-2.084zM152.106 273.834h-91.14c-.81 0-1.271.879-.9 1.568l23.298 43.128 3.305 6.118c.173.319.542.516.9.516H171.527c.498 0 .835-.332 1.005-.765l16.896-43.149 2.387-6.097c.252-.643-.385-1.318-1.004-1.318h-33.852l-4.853-.001c-1.34 0-1.343 2.083 0 2.083H190.81l-1.004-1.318-16.896 43.149-2.388 6.096 1.005-.764H87.568l.9.516-23.298-43.129-3.305-6.117-.9 1.567H152.107c1.341.001 1.343-2.083 0-2.083z" fill="#933468"/><path d="m72.163 275.272 23.298 43.129 3.305 6.117c.478.885 1.828.097 1.349-.789l-23.298-43.128a33912.08 33912.08 0 0 1-3.305-6.118c-.478-.885-1.827-.097-1.349.789zM87.863 275.272l23.298 43.129 3.305 6.117c.478.885 1.828.097 1.349-.789l-23.298-43.128a33911.75 33911.75 0 0 1-3.305-6.118c-.478-.885-1.828-.097-1.35.789zM101.164 275.272l23.298 43.129 3.304 6.117c.479.885 1.828.097 1.35-.789l-23.298-43.128-3.305-6.118c-.478-.885-1.828-.097-1.349.789zM182.186 274.484l-23.298 43.128-3.305 6.118c-.478.884.87 1.674 1.349.788l23.298-43.128 3.305-6.118c.478-.884-.871-1.674-1.349-.788zM166.817 274.484l-23.299 43.128-3.304 6.118c-.478.884.87 1.674 1.349.788l23.298-43.128 3.305-6.118c.478-.884-.871-1.674-1.349-.788z" fill="#933468"/><path d="m132.791 274.484-23.298 43.128-3.305 6.118c-.478.884.87 1.674 1.349.788l23.298-43.128 3.305-6.118c.478-.884-.871-1.674-1.349-.788zM136.65 274.878v49.245c0 1.006 1.563 1.007 1.563 0v-49.245c0-1.006-1.563-1.007-1.563 0z" fill="#933468"/><path d="M76.654 304.068h44.223c5.575 0 11.171-.141 16.745 0 5.889.149 11.791.653 17.673.981l23.395 1.304c.67.038.668-1.004 0-1.042-13.622-.759-27.267-1.859-40.903-2.28-14.105-.436-28.29-.005-42.402-.005H76.654c-.67 0-.672 1.042 0 1.042zM70.294 292.666h48.62c6.227 0 12.475-.154 18.699 0 6.505.16 13.025.721 19.522 1.083l25.641 1.43c.67.037.668-1.005 0-1.042-14.978-.835-29.982-2.039-44.976-2.508-5.123-.16-10.276-.005-15.401-.005H70.294c-.67 0-.672 1.042 0 1.042zM169.56 367.636a4.596 4.596 0 1 0 0-9.193 4.596 4.596 0 0 0 0 9.193z" fill="#933468"/><path opacity=".1" d="M169.559 366.289a3.25 3.25 0 1 0 0-6.5 3.25 3.25 0 0 0 0 6.5z" fill="#583F4C"/><path d="M108.08 367.636a4.596 4.596 0 1 0 0-9.193 4.596 4.596 0 0 0 0 9.193z" fill="#933468"/><path d="M108.08 367.636a4.596 4.596 0 1 0 0-9.193 4.596 4.596 0 0 0 0 9.193z" fill="#933468"/><path opacity=".1" d="M108.08 366.289a3.25 3.25 0 1 0 0-6.5 3.25 3.25 0 0 0 0 6.5z" fill="#583F4C"/><path d="M204.713 360.152s-3.832 1.794-6.829 4.16c-.4.315-.268.964.229 1.078 1.641.377 5.541.162 13.54-5.238a15.194 15.194 0 0 0-3.409-.4 15.344 15.344 0 0 0-3.531.4z" fill="#F4B99F"/><path d="M229.634 360.15c.18.88.303 2.243-.382 3.467-.755 1.348-2.015 1.681-5.611 2.846-5.086 1.649-6.42 2.127-8.578 2.097-1.282-.018-3.467-.103-3.812-1.144-.279-.84.703-2.121 2.351-3.177 2.707-1.363 6.385-2.726 9.092-4.089" fill="#583F4C"/><path d="M222.694 360.15s-3.832 1.794-6.829 4.159c-.4.316-.268.965.229 1.079 1.641.377 5.541.162 13.54-5.238a15.152 15.152 0 0 0-6.94 0zM233.609 184.416a5.733 5.733 0 0 0-6.391 5.542l-.999 37.455c-.039 1.442 1.33 2.721 3.133 2.93 1.863.216 3.523-.785 3.742-2.256l5.527-37.131a5.733 5.733 0 0 0-5.012-6.54z" fill="#F4B99F"/><path d="m227.635 224.468-27.774 24.327 2.47 3.269 29.607-22.076c1.051-.784.955-2.679-.214-4.226-1.207-1.597-3.07-2.187-4.089-1.294z" fill="#F4B99F"/><path d="M199.999 248.111s-5.137-.255-8.41 3.705c-3.272 3.959 1.647 3.918 4.205 1.211 2.559-2.706 5.124 1.81 7.005-1.211 0 0 .811-2.206-2.8-3.705z" fill="#F4B99F"/><path d="M207.057 173.985a24.046 24.046 0 0 0 4.265-.477c1.633-.332 3.138-.638 4.608-1.487.862-.498 2.932-1.888 4.321-5.144a11.898 11.898 0 0 1-1.389 3.405c-.476.786-2.071 3.215-5.139 4.576-1.027.456-2.025.899-3.376.751-1.696-.187-2.841-1.184-3.29-1.624z" fill="#E5A691"/><path d="M223.061 153.617c.079-.712.768-8.055-5.347-12.562-.951-.701-5.418-3.807-11.167-2.874-1.124.183-3.579.621-5.812 2.4-7.144 5.688-3.982 18.718-3.443 20.773 1.214 4.628 3.164 7.1 3.719 7.776 1.165 1.413 4.743 5.759 9.381 5.35 1.875-.165 3.169-1.041 4.71-2.084 3.884-2.629 5.608-6.24 6.247-7.612 2.097-4.505 2.023-8.658 1.712-11.167z" fill="#F4B99F"/><path d="M222.509 152.427c1.232-.557 3.434.952 3.789 3.021.506 2.953-3.015 5.525-4.29 4.857-1.517-.795-1.431-7.003.501-7.878z" fill="#F4B99F"/><path d="M204.077 147.343s5.474 7.965 17.299 9.019c0 0-.563-3.395 2.276-3.963 0 0 2.464-15.238-13.756-15.786 0 0-16.329-.876-14.468 15.766 0 0 3.613-.547 8.649-5.036z" fill="#583F4C"/><path d="M218.749 156.043s5.259 8.475 2.362 16.636c0 0 2.867-9.28.845-16.176-2.022-6.896-3.207-.46-3.207-.46z" fill="#583F4C"/><path d="m101.406 225.546 2.078-5.444 2.078 5.444 3.799 1.575-3.799 1.575-2.078 5.444-2.078-5.444-3.8-1.575 3.8-1.575zM153.615 179.054l.964-2.527.965 2.527 1.763.731-1.763.732-.965 2.527-.964-2.527-1.764-.732 1.764-.731zM259.758 254.207l.964-2.527.965 2.527 1.764.731-1.764.731-.965 2.528-.964-2.528-1.764-.731 1.764-.731zM62.135 319.549l.53-1.385.528 1.385.967.401-.967.401-.529 1.385-.529-1.385-.966-.401.966-.401zM58.99 247.388l.946-2.478.945 2.478 1.73.716-1.73.717-.945 2.478-.946-2.478-1.729-.717 1.73-.716zM154.537 226.403l.946-2.477.945 2.477 1.729.717-1.729.717-.945 2.477-.946-2.477-1.729-.717 1.729-.717zM258.795 181.586l1.927-5.049 1.927 5.049 3.523 1.46-3.523 1.461-1.927 5.048-1.927-5.048-3.523-1.461 3.523-1.46zM270.776 220.926l.846-2.215.845 2.215 1.546.641-1.546.641-.845 2.215-.846-2.215-1.546-.641 1.546-.641z" fill="#933468"/><path d="M194.085 70.174c-2.088-3.225-6.314-1.468-6.314 2.045 0 2.639 5.793 6.766 6.314 7.302.524-.536 6.03-4.663 6.03-7.302 0-3.487-3.938-5.27-6.03-2.045z" fill="#FFA6B0"/><circle cx="193.943" cy="74" r="13.8" stroke="#DBD7DC" stroke-width=".65"/><path d="M144.562 50.94c-1.848-2.855-5.588-1.3-5.588 1.81 0 2.335 5.127 5.988 5.588 6.462.464-.474 5.337-4.127 5.337-6.462 0-3.086-3.485-4.665-5.337-1.81z" fill="#FFA6B0"/><circle cx="144.436" cy="54.325" r="12.213" stroke="#DBD7DC" stroke-width=".575"/><path d="M177.244 29.965c-1.263-1.952-3.822-.889-3.822 1.238 0 1.597 3.507 4.095 3.822 4.42.318-.325 3.65-2.823 3.65-4.42 0-2.11-2.383-3.19-3.65-1.238z" fill="#FFA6B0"/><circle cx="177.158" cy="32.28" r="8.353" stroke="#DBD7DC" stroke-width=".393"/><path d="M119.515 19.1c-1.035-1.597-3.128-.727-3.128 1.013 0 1.307 2.87 3.351 3.128 3.617.259-.266 2.986-2.31 2.986-3.617 0-1.727-1.95-2.61-2.986-1.013z" fill="#FFA6B0"/><circle cx="119.444" cy="20.996" r="6.835" stroke="#DBD7DC" stroke-width=".322"/><path d="M114.428 93.988C112.17 90.5 107.6 92.4 107.6 96.199c0 2.853 6.265 7.316 6.828 7.897.566-.581 6.52-5.044 6.52-7.897 0-3.77-4.258-5.699-6.52-2.211z" fill="#FFA6B0"/><circle cx="114.274" cy="98.124" r="14.923" stroke="#DBD7DC" stroke-width=".703"/></svg>