<svg width="359" height="310" viewBox="0 0 359 310" fill="none" xmlns="http://www.w3.org/2000/svg"><mask id="a" mask-type="alpha" maskUnits="userSpaceOnUse" x="0" y="0" width="359" height="310"><path d="M353.419 102.013c25.695 84.613-47.585 173.587-128.348 199.226-81.297 25.809-190.617-6.07-218.562-86.856C-22.745 129.814 51.073 31.824 138.756 6.935c80.561-22.867 189.228 11.32 214.663 95.078z" fill="#F3EFF3"/></mask><g mask="url(#a)"><path fill-rule="evenodd" clip-rule="evenodd" d="M143.442 128.639c.988-2.146 2.146-3.812 2.91-4.691a18.424 18.424 0 0 1-.799 5.547 18.446 18.446 0 0 1 4.615 3.18c-1.165-.035-3.174-.317-5.42-1.048-1.035 2.282-2.343 3.858-3.201 4.592.058-1.921.462-3.762 1.03-5.423-1.604-.711-3.23-1.664-4.679-2.926 1.121-.131 3.166-.021 5.544.769z" fill="url(#b)"/><path fill-rule="evenodd" clip-rule="evenodd" d="M135.634 107.148c.657-1.428 1.428-2.537 1.937-3.122.01 1.38-.203 2.617-.532 3.693a12.235 12.235 0 0 1 3.07 2.116c-.775-.024-2.112-.211-3.606-.698-.689 1.519-1.56 2.568-2.13 3.056.038-1.278.307-2.503.685-3.608-1.068-.474-2.151-1.108-3.116-1.949.746-.087 2.108-.014 3.692.512z" fill="url(#c)"/><path fill-rule="evenodd" clip-rule="evenodd" d="M114.495 85.789c.988-2.145 2.145-3.812 2.91-4.69a18.428 18.428 0 0 1-.799 5.547 18.435 18.435 0 0 1 4.614 3.18c-1.164-.035-3.173-.317-5.419-1.049-1.035 2.282-2.343 3.858-3.201 4.592.058-1.92.462-3.762 1.03-5.422-1.605-.711-3.23-1.665-4.68-2.927 1.121-.13 3.167-.021 5.545.769z" fill="url(#d)"/><path fill-rule="evenodd" clip-rule="evenodd" d="M111.147 133.881c1.454-3.156 3.157-5.607 4.282-6.9a27.118 27.118 0 0 1-1.176 8.16 27.14 27.14 0 0 1 6.788 4.678c-1.713-.051-4.668-.466-7.972-1.542-1.523 3.358-3.448 5.677-4.71 6.756.086-2.826.68-5.534 1.516-7.978-2.361-1.046-4.754-2.449-6.886-4.305 1.649-.194 4.659-.032 8.158 1.131z" fill="url(#e)"/><circle cx="119.891" cy="112.283" r="1.274" transform="rotate(21.387 119.891 112.283)" fill="#2F235A"/><circle cx="151.425" cy="96.271" r="1.274" transform="rotate(21.387 151.425 96.271)" fill="#FE9076"/><circle cx="90.893" cy="103.226" r="1.274" transform="rotate(21.387 90.893 103.226)" fill="#FFA400"/><circle cx="118.241" cy="154.508" r="1.274" transform="rotate(21.387 118.241 154.508)" fill="#23BB86"/><path d="M150.458 90.184c-1.239-4.732-5.711-15.554-13.688-20.988" stroke="#FE9076" stroke-width=".737" stroke-linecap="round"/><path d="M87.135 98.088C84.052 94.291 75.509 86.281 66 84.628" stroke="#FFA400" stroke-width=".737" stroke-linecap="round"/><path d="M112.822 156.359c-2.732.997-9.61 4.172-15.264 8.901" stroke="#23BB86" stroke-width=".737" stroke-linecap="round"/><path fill-rule="evenodd" clip-rule="evenodd" d="M206.557 128.639c-.988-2.146-2.145-3.812-2.91-4.691a18.424 18.424 0 0 0 .799 5.547 18.442 18.442 0 0 0-4.614 3.18c1.164-.035 3.173-.317 5.419-1.048 1.035 2.282 2.344 3.858 3.201 4.592-.058-1.921-.462-3.762-1.03-5.423 1.605-.711 3.231-1.664 4.68-2.926-1.121-.131-3.166-.021-5.545.769z" fill="url(#f)"/><path fill-rule="evenodd" clip-rule="evenodd" d="M214.366 107.148c-.658-1.428-1.428-2.537-1.938-3.122-.01 1.38.203 2.617.532 3.693a12.271 12.271 0 0 0-3.07 2.116c.775-.024 2.112-.211 3.606-.698.689 1.519 1.56 2.568 2.131 3.056-.039-1.278-.308-2.503-.685-3.608 1.068-.474 2.151-1.108 3.116-1.949-.747-.087-2.109-.014-3.692.512z" fill="url(#g)"/><path fill-rule="evenodd" clip-rule="evenodd" d="M235.505 85.789c-.988-2.145-2.145-3.812-2.91-4.69a18.428 18.428 0 0 0 .799 5.547 18.435 18.435 0 0 0-4.614 3.18c1.164-.035 3.173-.317 5.419-1.049 1.035 2.282 2.343 3.858 3.201 4.592-.058-1.92-.462-3.762-1.03-5.422 1.605-.711 3.23-1.665 4.68-2.927-1.121-.13-3.167-.021-5.545.769z" fill="url(#h)"/><path fill-rule="evenodd" clip-rule="evenodd" d="M238.853 133.881c-1.453-3.156-3.156-5.607-4.281-6.9a27.12 27.12 0 0 0 1.175 8.16 27.135 27.135 0 0 0-6.787 4.678c1.712-.051 4.668-.466 7.971-1.542 1.523 3.358 3.448 5.677 4.71 6.756-.085-2.826-.68-5.534-1.515-7.978 2.361-1.046 4.753-2.449 6.886-4.305-1.65-.194-4.659-.032-8.159 1.131z" fill="url(#i)"/><circle r="1.274" transform="scale(-1 1) rotate(21.387 -412.366 -553.16)" fill="#2F235A"/><circle r="1.274" transform="scale(-1 1) rotate(21.387 -354.203 -477.667)" fill="#FE9076"/><circle r="1.274" transform="scale(-1 1) rotate(21.387 -402.884 -634.471)" fill="#FFA400"/><circle r="1.274" transform="scale(-1 1) rotate(21.387 -524.998 -536.416)" fill="#23BB86"/><path d="M199.542 90.184c1.239-4.732 5.711-15.554 13.688-20.988" stroke="#FE9076" stroke-width=".737" stroke-linecap="round"/><path d="M262.865 98.088c3.083-3.797 11.626-11.807 21.135-13.46" stroke="#FFA400" stroke-width=".737" stroke-linecap="round"/><path d="M237.178 156.359c2.732.997 9.61 4.172 15.264 8.901" stroke="#23BB86" stroke-width=".737" stroke-linecap="round"/><path fill="url(#j)" d="M106.601 224.551h135.175v93.441H106.601z"/><mask id="k" mask-type="alpha" maskUnits="userSpaceOnUse" x="106" y="224" width="136" height="94"><path fill="#C4C4C4" d="M106.601 224.551h135.175v93.441H106.601z"/></mask><g mask="url(#k)"><path d="M112.997 222.172h92.045l-20.805 36.124H92.192l20.805-36.124z" fill="#000" fill-opacity=".03"/><path fill="url(#l)" d="M198.525 224.551H333.7v93.441H198.525z"/></g><path d="M106.481 224.551h92.045l-17.78 29.671H88.701l17.78-29.671z" fill="url(#m)"/><mask id="n" mask-type="alpha" maskUnits="userSpaceOnUse" x="198" y="224" width="44" height="94"><path fill="#C4C4C4" d="M198.526 224.551h43.25v93.441h-43.25z"/></mask><g mask="url(#n)"><path d="m236.511 224.395-43.318-.001 20.354 34.161h43.318l-20.354-34.16z" fill="#000" fill-opacity=".02"/></g><path d="M241.844 224.551h-43.318l17.781 29.671h43.317l-17.78-29.671z" fill="url(#o)"/><circle cx="154.519" cy="198.674" r="12.774" fill="url(#p)"/><circle cx="194.237" cy="181.599" r="12.344" fill="url(#q)"/><circle cx="167.293" cy="150.147" r="9.954" fill="url(#r)"/><circle cx="201.009" cy="148.646" r="2.482" fill="#FFA800" fill-opacity=".23"/><circle cx="184.376" cy="205.072" r="2.482" fill="#FFA800" fill-opacity=".23"/><circle cx="143.614" cy="166.775" r="2.482" fill="#FFA800" fill-opacity=".23"/><path d="M242.095 224.993H106.494L85.669 96.592h181.433l-25.007 128.401z" fill="url(#s)"/></g><defs><linearGradient id="b" x1="145.977" y1="125.308" x2="141.465" y2="136.828" gradientUnits="userSpaceOnUse"><stop stop-color="#FFE89E"/><stop offset="1" stop-color="#FFBF1A"/></linearGradient><linearGradient id="c" x1="137.32" y1="104.93" x2="134.317" y2="112.599" gradientUnits="userSpaceOnUse"><stop stop-color="#FFE89E"/><stop offset="1" stop-color="#FFBF1A"/></linearGradient><linearGradient id="d" x1="117.03" y1="82.458" x2="112.518" y2="93.979" gradientUnits="userSpaceOnUse"><stop stop-color="#FFE89E"/><stop offset="1" stop-color="#FFBF1A"/></linearGradient><linearGradient id="e" x1="114.875" y1="128.98" x2="108.237" y2="145.93" gradientUnits="userSpaceOnUse"><stop stop-color="#FFE89E"/><stop offset="1" stop-color="#FFBF1A"/></linearGradient><linearGradient id="f" x1="204.022" y1="125.308" x2="208.534" y2="136.828" gradientUnits="userSpaceOnUse"><stop stop-color="#FFE89E"/><stop offset="1" stop-color="#FFBF1A"/></linearGradient><linearGradient id="g" x1="212.679" y1="104.93" x2="215.683" y2="112.599" gradientUnits="userSpaceOnUse"><stop stop-color="#FFE89E"/><stop offset="1" stop-color="#FFBF1A"/></linearGradient><linearGradient id="h" x1="232.97" y1="82.458" x2="237.482" y2="93.979" gradientUnits="userSpaceOnUse"><stop stop-color="#FFE89E"/><stop offset="1" stop-color="#FFBF1A"/></linearGradient><linearGradient id="i" x1="235.125" y1="128.98" x2="241.763" y2="145.93" gradientUnits="userSpaceOnUse"><stop stop-color="#FFE89E"/><stop offset="1" stop-color="#FFBF1A"/></linearGradient><linearGradient id="j" x1="151.755" y1="207.251" x2="97.881" y2="355.637" gradientUnits="userSpaceOnUse"><stop stop-color="#FFD481"/><stop offset="1" stop-color="#FA620C"/></linearGradient><linearGradient id="l" x1="129.664" y1="218.624" x2="293.167" y2="393.35" gradientUnits="userSpaceOnUse"><stop stop-color="#FFD481"/><stop offset=".833" stop-color="#FA620C"/></linearGradient><linearGradient id="m" x1="108.376" y1="213.946" x2="104.001" y2="277.167" gradientUnits="userSpaceOnUse"><stop stop-color="#FFD481"/><stop offset="1" stop-color="#FA620C"/></linearGradient><linearGradient id="o" x1="248.679" y1="213.946" x2="256.459" y2="276.502" gradientUnits="userSpaceOnUse"><stop stop-color="#FFD481"/><stop offset="1" stop-color="#FA620C"/></linearGradient><linearGradient id="p" x1="155.486" y1="181.685" x2="153.057" y2="216.165" gradientUnits="userSpaceOnUse"><stop stop-color="#FF9F81"/><stop offset="1" stop-color="#F53838"/></linearGradient><linearGradient id="q" x1="195.172" y1="165.182" x2="192.824" y2="198.5" gradientUnits="userSpaceOnUse"><stop stop-color="#FF9F81"/><stop offset="1" stop-color="#F53838"/></linearGradient><linearGradient id="r" x1="168.047" y1="136.908" x2="166.154" y2="163.776" gradientUnits="userSpaceOnUse"><stop stop-color="#FF9F81"/><stop offset="1" stop-color="#F53838"/></linearGradient><linearGradient id="s" x1="174.895" y1="96.592" x2="174.895" y2="369.383" gradientUnits="userSpaceOnUse"><stop stop-color="#fff" stop-opacity="0"/><stop offset="1" stop-color="#FE9277"/></linearGradient></defs></svg>