<svg width="58" height="58" viewBox="0 0 58 58" fill="none" xmlns="http://www.w3.org/2000/svg">
<path d="M11.0695 37.8253C11.2066 39.1759 11.9373 40.3872 12.9771 41.2054C12.395 41.8903 12.0427 42.776 12.0427 43.743V47.3681C12.0427 48.9307 12.9445 50.2766 14.2664 50.9089C14.1915 51.27 14.1518 51.6439 14.1518 52.0268C14.1518 55.0574 16.6174 57.5229 19.6478 57.5229C22.6783 57.5229 25.1439 55.0574 25.1439 52.0268C25.1439 51.7784 25.1258 51.5343 25.0936 51.2945H34.1337C34.1017 51.5344 34.0835 51.7784 34.0835 52.0268C34.0835 55.0574 36.549 57.5229 39.5796 57.5229C42.61 57.5229 45.0755 55.0574 45.0755 52.0268C45.0755 48.9963 42.61 46.5308 39.5796 46.5308C37.7412 46.5308 36.112 47.4389 35.1136 48.8292H24.1136C23.1153 47.4389 21.4861 46.5308 19.6477 46.5308C17.8815 46.5308 16.3083 47.3692 15.3021 48.6679C14.8287 48.4263 14.5077 47.9363 14.5077 47.3683V43.7431C14.5077 42.938 15.1631 42.2831 15.9688 42.2831C15.9725 42.2831 15.9762 42.2826 15.9799 42.2825C15.9874 42.2826 15.9949 42.2831 16.0023 42.2831H44.8228C47.2058 42.2831 49.674 40.5164 50.4422 38.261L57.7658 16.7574C58.1802 15.5407 58.0392 14.314 57.3789 13.3916C56.7186 12.4692 55.6028 11.9401 54.3176 11.9401H51.6891L43.7682 3.98133C42.5367 2.75009 40.5407 2.73941 39.2949 3.94799L25.9276 7.54356L22.3393 1.10962C22.0078 0.515129 21.2572 0.302058 20.6624 0.633463L13.4855 4.63616C13.1999 4.79535 12.9894 5.0616 12.9002 5.3761C12.8108 5.6906 12.8502 6.02764 13.0095 6.31315L16.1477 11.94H13.1746C12.3819 11.94 11.6351 12.1425 10.9876 12.5222L10.4055 6.70301C10.3425 6.07284 9.81222 5.59305 9.17899 5.59305H1.23265C0.551873 5.59305 0 6.14492 0 6.82569C0 7.50647 0.551873 8.05834 1.23265 8.05834H8.0635L11.0695 37.8253ZM39.5798 48.9959C41.2509 48.9959 42.6105 50.3556 42.6105 52.0267C42.6105 53.6978 41.2509 55.0575 39.5798 55.0575C37.9087 55.0575 36.549 53.698 36.549 52.0267C36.549 50.3555 37.9087 48.9959 39.5798 48.9959ZM19.6479 48.9959C21.319 48.9959 22.6787 50.3556 22.6787 52.0267C22.6787 53.6978 21.319 55.0575 19.6479 55.0575C17.9768 55.0575 16.6172 53.698 16.6172 52.0267C16.6172 50.3555 17.9768 48.9959 19.6479 48.9959ZM42.0235 5.72241L48.2114 11.94H34.788L41.0032 5.72465C41.2851 5.44278 41.7435 5.44278 42.0235 5.72241ZM35.8006 7.44084L31.3016 11.94H28.3796L27.1658 9.76362L35.8006 7.44084ZM15.7627 6.18882L20.7866 3.38696L25.5569 11.94H18.9703L15.7627 6.18882ZM55.4325 15.9624L48.1089 37.466C47.6822 38.7187 46.1468 39.8175 44.8231 39.8175H16.0027C14.7814 39.8175 13.6454 38.7912 13.5221 37.5765L13.0866 33.2805H39.5883C40.269 33.2805 40.8209 32.7286 40.8209 32.0479C40.8209 31.3671 40.269 30.8152 39.5883 30.8152H12.8368L11.378 16.4259C11.378 16.4255 11.378 16.4254 11.378 16.4252L11.3778 16.4225C11.3223 15.8744 11.481 15.3631 11.825 14.9825C12.1613 14.6103 12.6406 14.4053 13.1746 14.4053H51.1657C51.1698 14.4054 51.1737 14.4059 51.1778 14.4059C51.1818 14.4059 51.1858 14.4054 51.1898 14.4053H54.318C54.805 14.4053 55.1804 14.5549 55.3747 14.8264C55.5691 15.0978 55.5895 15.5013 55.4325 15.9624Z" fill="#E6ACB3"/>
</svg>
