<svg width="50" height="50" viewBox="0 0 50 50" fill="none" xmlns="http://www.w3.org/2000/svg"><path fill="#fff" fill-opacity=".01" d="M0 0h50v50H0z"/><mask id="a" mask-type="alpha" maskUnits="userSpaceOnUse" x="2" y="4" width="46" height="42"><path fill-rule="evenodd" clip-rule="evenodd" d="M46.753 33.236 32.16 8.286a8.27 8.27 0 0 0-7.15-4.12 8.28 8.28 0 0 0-7.169 4.12L3.24 33.246a8.332 8.332 0 0 0-.081 8.337 8.348 8.348 0 0 0 7.204 4.248H39.61a8.364 8.364 0 0 0 7.23-4.246 8.344 8.344 0 0 0-.086-8.348zM6.83 35.362 21.44 10.385a4.115 4.115 0 0 1 7.116-.005l14.606 24.968a4.182 4.182 0 0 1 .048 4.189 4.19 4.19 0 0 1-3.621 2.126H10.38a4.175 4.175 0 0 1-3.592-2.127 4.171 4.171 0 0 1 .041-4.174zm18.172 2.134a2.084 2.084 0 1 0 0-4.167 2.084 2.084 0 0 0 0 4.167zm2.09-20.833h-4.168v14.583h4.168V16.663z" fill="#fff"/></mask><g mask="url(#a)"><path fill="#E93C3C" d="M0 0h50v50H0z"/></g></svg>