<svg width="50" height="50" viewBox="0 0 50 50" fill="none" xmlns="http://www.w3.org/2000/svg"><path fill="#fff" fill-opacity=".01" d="M0 0h50v50H0z"/><mask id="a" mask-type="alpha" maskUnits="userSpaceOnUse" x="6" y="2" width="38" height="46"><path fill-rule="evenodd" clip-rule="evenodd" d="M25 47.917C12.5 42.348 6.25 36.792 6.25 31.25V10.417c0-1.6.614-1.971 2.312-3 .515-.311 1.128-.683 1.855-1.167.337-.225 7.423-4.167 14.583-4.167 6.24 0 11.458 2.084 14.583 4.167.727.484 1.34.856 1.855 1.167 1.698 1.029 2.312 1.4 2.312 3 .041.452.02 10.077.008 16.239v.005c-.004 2.099-.008 3.795-.008 4.589 0 5.556-6.25 11.111-18.75 16.667zM39.583 31.25l.004-2.595.009-4.069.006-3.524c.008-4.65.006-8.642.001-9.876l-.286-.178c-.674-.418-1.552-.962-2.045-1.291C34.197 7.667 29.71 6.25 25 6.25c-4.504 0-10.357 2.19-12.272 3.467-.493.329-1.371.873-2.045 1.291l-.266.166V31.25c0 3.142 4.644 7.435 14.585 12.087 9.94-4.642 14.581-8.932 14.581-12.087zM31.86 17.277l-8.943 8.943-4.777-4.776-2.947 2.946 7.724 7.723 11.89-11.89-2.947-2.946z" fill="#fff"/></mask><g mask="url(#a)"><path fill="#40DD7F" d="M0 0h50v50H0z"/></g></svg>