<svg width="20" height="21" viewBox="0 0 20 21" fill="none" xmlns="http://www.w3.org/2000/svg"><g clip-path="url(#a)"><path d="M10.25 20.911A6.257 6.257 0 0 1 4 14.661v-8.75a.833.833 0 1 1 1.667 0v8.75a4.589 4.589 0 0 0 4.583 4.583 4.589 4.589 0 0 0 4.583-4.583V5.494a2.92 2.92 0 0 0-2.916-2.916A2.92 2.92 0 0 0 9 5.494v8.334c0 .689.56 1.25 1.25 1.25s1.25-.561 1.25-1.25V5.91a.833.833 0 1 1 1.667 0v7.917a2.92 2.92 0 0 1-2.917 2.916 2.92 2.92 0 0 1-2.917-2.916V5.494A4.589 4.589 0 0 1 11.917.911 4.589 4.589 0 0 1 16.5 5.494v9.167a6.257 6.257 0 0 1-6.25 6.25z" fill="#1E34FF"/></g><defs><clipPath id="a"><path fill="#fff" transform="translate(0 .911)" d="M0 0h20v20H0z"/></clipPath></defs></svg>