<svg width="21" height="24" viewBox="0 0 21 24" fill="none" xmlns="http://www.w3.org/2000/svg"><path d="M4.927 24h10.946c1.77 0 3.25-1.311 3.445-3.05l1.476-13.141a.847.847 0 0 0-.215-.666.869.869 0 0 0-.646-.286H15.6V5.143C15.6 2.307 13.268 0 10.4 0 7.532 0 5.2 2.307 5.2 5.143v1.714H.867a.869.869 0 0 0-.646.286.852.852 0 0 0-.216.666l1.476 13.14C1.677 22.69 3.158 24 4.927 24zM6.933 5.143c0-1.891 1.555-3.429 3.467-3.429 1.912 0 3.466 1.538 3.466 3.429v1.714H6.934V5.143zM5.2 8.57v1.715a.862.862 0 0 0-.867.857c0 .473.389.857.867.857h1.733a.862.862 0 0 0 .867-.857.862.862 0 0 0-.867-.857V8.57h6.934v1.715a.862.862 0 0 0-.867.857c0 .473.388.857.867.857H15.6a.862.862 0 0 0 .867-.857.862.862 0 0 0-.867-.857V8.57h3.365l-1.37 12.19a1.724 1.724 0 0 1-1.722 1.525H4.927a1.725 1.725 0 0 1-1.723-1.525L1.834 8.57H5.2z" fill="currentColor"/></svg>