<svg width="18" height="18" viewBox="0 0 18 18" fill="none" xmlns="http://www.w3.org/2000/svg"><path d="M4.62 1a.764.764 0 0 0-.5.2L1.213 3.84A.63.63 0 0 0 1 4.305a.63.63 0 0 0 .212.466L4.12 7.412a.769.769 0 0 0 .515.193c.193 0 .378-.07.515-.194a.632.632 0 0 0 .214-.467.632.632 0 0 0-.213-.468l-1.663-1.51H14.82v2.022a.604.604 0 0 0 .035.27.65.65 0 0 0 .153.234.73.73 0 0 0 .243.159.791.791 0 0 0 .587 0 .73.73 0 0 0 .243-.159.649.649 0 0 0 .153-.234.602.602 0 0 0 .035-.27V4.967c0-.72-.656-1.322-1.449-1.322H3.481l1.67-1.514a.644.644 0 0 0 .205-.343.604.604 0 0 0-.045-.387.681.681 0 0 0-.277-.297A.784.784 0 0 0 4.621 1zm8.735 9.372a.781.781 0 0 0-.406.114.677.677 0 0 0-.267.3.603.603 0 0 0-.037.383c.03.129.102.246.206.338l1.669 1.515H3.182V11.06a.606.606 0 0 0-.054-.256.66.66 0 0 0-.16-.218.737.737 0 0 0-.24-.145.791.791 0 0 0-.794.15.63.63 0 0 0-.207.47v1.962c0 .72.661 1.315 1.455 1.315H14.52l-1.67 1.516a.667.667 0 0 0-.17.214.608.608 0 0 0-.013.518.66.66 0 0 0 .16.22c.069.064.151.114.242.147a.792.792 0 0 0 .571-.01.728.728 0 0 0 .236-.154l2.91-2.64a.662.662 0 0 0 .158-.215.607.607 0 0 0 0-.506.66.66 0 0 0-.158-.215l-2.91-2.64a.733.733 0 0 0-.238-.148.792.792 0 0 0-.283-.052z" fill="#EB5176" stroke="#E93C3C" stroke-linejoin="round"/></svg>