<svg width="114" height="114" viewBox="0 0 114 114" fill="none" xmlns="http://www.w3.org/2000/svg">
<g filter="url(#filter0_d)">
<circle cx="45" cy="39" r="27" fill="#FCD2D7"/>
</g>
<g opacity="0.7">
<path d="M34.3667 52.4151H32.241L33.7441 50.9119C34.5546 50.1014 35.0607 49.0473 35.1968 47.9038C33.0819 46.5159 31.5354 44.6899 30.7075 42.5958C29.8803 40.5033 29.7763 38.1999 30.4069 35.9344C31.1636 33.2161 32.9382 30.7384 35.4039 28.9577C38.0834 27.0228 41.4189 26 45.0501 26C49.6245 26 53.4801 27.3142 56.2001 29.8005C58.6505 32.0405 60 35.0618 60 38.3081C60 39.8853 59.6789 41.4199 59.0455 42.8693C58.3902 44.3691 57.4305 45.7046 56.1931 46.8385C53.4695 49.3346 49.6162 50.654 45.0501 50.654C43.355 50.654 41.5862 50.4278 40.007 50.0125C38.5122 51.5459 36.4866 52.4151 34.3667 52.4151ZM45.0501 27.761C37.769 27.761 33.3013 32.1032 32.1034 36.4067C30.9714 40.4734 32.6401 44.3161 36.5671 46.6859L37.0059 46.9507L36.9924 47.463C36.9657 48.477 36.7239 49.4536 36.2913 50.3365C37.3449 49.98 38.3009 49.3337 39.0496 48.4492L39.4219 48.0094L39.9739 48.1745C41.5232 48.6379 43.3259 48.893 45.0501 48.893C54.1118 48.893 58.239 43.4062 58.239 38.3081C58.239 35.5624 57.0929 33.0026 55.0119 31.1003C52.622 28.9158 49.1773 27.761 45.0501 27.761Z" fill="#583F4C"/>
</g>
<defs>
<filter id="filter0_d" x="0" y="0" width="114" height="114" filterUnits="userSpaceOnUse" color-interpolation-filters="sRGB">
<feFlood flood-opacity="0" result="BackgroundImageFix"/>
<feColorMatrix in="SourceAlpha" type="matrix" values="0 0 0 0 0 0 0 0 0 0 0 0 0 0 0 0 0 0 127 0"/>
<feOffset dx="12" dy="18"/>
<feGaussianBlur stdDeviation="15"/>
<feColorMatrix type="matrix" values="0 0 0 0 0.904167 0 0 0 0 0.904167 0 0 0 0 0.904167 0 0 0 0.3 0"/>
<feBlend mode="normal" in2="BackgroundImageFix" result="effect1_dropShadow"/>
<feBlend mode="normal" in="SourceGraphic" in2="effect1_dropShadow" result="shape"/>
</filter>
</defs>
</svg>
