<?xml version="1.0" encoding="utf-8"?>
<!-- Svg Vector Icons : http://www.onlinewebfonts.com/icon -->
<!DOCTYPE svg PUBLIC "-//W3C//DTD SVG 1.1//EN" "http://www.w3.org/Graphics/SVG/1.1/DTD/svg11.dtd">
<svg version="1.1" xmlns="http://www.w3.org/2000/svg" xmlns:xlink="http://www.w3.org/1999/xlink" x="0px" y="0px" viewBox="0 0 1000 1000" enable-background="new 0 0 1000 1000" xml:space="preserve">
<metadata> Svg Vector Icons : http://www.onlinewebfonts.com/icon </metadata>
<g><path d="M540.5,283.5c53.8,6.2,104,24.3,147.7,51.8l48-57.3l55.6,46.4L745.4,380c1.7,1.7,3.4,3.4,5.1,5c64.1,64.1,103.8,152.8,103.8,250.6c0,97.9-39.7,186.4-103.8,250.6C686.4,950.3,597.8,990,500,990c-97.9,0-186.4-39.7-250.6-103.8C185.2,822,145.6,733.4,145.6,635.6c0-97.8,39.6-186.5,103.8-250.6c55.1-55,128.1-92,209.5-101.4V248h-56.3v-51.6c-3.3-1.7-6.4-3.4-9.5-5.1c-31.8-18.8-51.4-46-51.4-77.2c0-31.1,19.6-58.4,51.4-77.2c28-16.6,66.1-26.9,107.8-26.9c41.7,0,79.9,10.3,107.9,26.9c31.7,18.8,51.3,46,51.3,77.2c0,31.2-19.6,58.4-51.3,77.2c-3.5,2-7,4-10.8,5.8V248h-57.5L540.5,283.5L540.5,283.5z M402.6,140v-4.7H598v5.8c9.4-8.3,14.8-17.6,14.8-27.1c0-13.3-10.7-26.2-28.1-36.5c-21.1-12.5-50.7-20.3-83.9-20.3c-33.1,0-62.8,7.7-83.8,20.3c-17.3,10.3-28.1,23.2-28.1,36.5C389,123.1,394,132,402.6,140L402.6,140z M319,474.9l42.3,42.3l21.1-21.1l-42.2-42.3L319,474.9L319,474.9z M339.3,816.6l42.3-42.3l-21.1-21.1l-42.3,42.3L339.3,816.6L339.3,816.6z M681,796.3L638.7,754l-21.1,21.1l42.3,42.2L681,796.3L681,796.3z M741.5,621.2h-59.8v29.9h59.8V621.2L741.5,621.2z M514.3,877.2v-59.8h-29.9v59.8H514.3L514.3,877.2z M258.4,649.9h59.8V620h-59.8V649.9L258.4,649.9z M485.6,394v59.8h29.9V394H485.6L485.6,394z M544.6,621.7c-2.1-4.8-4.9-9.1-8.1-12.9c40.1-47.8,75.4-100.1,107.1-156c-7.9-6-15.7-12-23.6-18c-43.8,48.6-81.3,101-113.1,157c-10-2-20.7-1-30.7,3.5c-26.2,11.6-38,42.2-26.4,68.3c11.6,26.2,42.2,38,68.4,26.4c3.2-1.4,6.3-3.2,9.1-5.1c38.6,17.7,80,31,125.1,38.5c3.7-10.6,7.6-21.2,11.4-31.8c-36.3-20.5-74.7-35.9-114.8-47.1C549.2,636.9,547.9,629.2,544.6,621.7L544.6,621.7z M682.8,452.8C636,406,571.4,377.1,500,377.1c-71.4,0-136,29-182.8,75.8c-46.8,46.7-75.7,111.4-75.7,182.8c0,71.4,29,136.1,75.7,182.8c46.8,46.8,111.4,75.8,182.8,75.8c71.4,0,136-29,182.8-75.8c46.8-46.7,75.7-111.4,75.7-182.8C758.5,564.2,729.6,499.6,682.8,452.8z"/></g>
</svg>