<?xml version="1.0" encoding="utf-8"?>
<!-- Svg Vector Icons : http://www.onlinewebfonts.com/icon -->
<!DOCTYPE svg PUBLIC "-//W3C//DTD SVG 1.1//EN" "http://www.w3.org/Graphics/SVG/1.1/DTD/svg11.dtd">
<svg version="1.1" xmlns="http://www.w3.org/2000/svg" xmlns:xlink="http://www.w3.org/1999/xlink" x="0px" y="0px" viewBox="0 0 1000 1000" enable-background="new 0 0 1000 1000" xml:space="preserve">
<metadata> Svg Vector Icons : http://www.onlinewebfonts.com/icon </metadata>
<g><g transform="translate(0.000000,512.000000) scale(0.100000,-0.100000)"><path d="M3586.4,4999c-862.4-141.8-1548.5-804.9-1715.3-1659.7c-24.9-122.7-30.7-264.5-30.7-601.8c1.9-538.5-19.2-803-76.7-914.2c-23-46-92-155.2-151.4-245.3c-130.3-193.6-145.7-239.6-103.5-345c26.8-65.2,63.2-97.7,216.6-201.2c266.4-176.3,486.8-260.6,856.7-323.9c164.8-28.8,168.7-30.7,260.6-134.2c274.1-306.6,745.5-488.7,1203.5-465.7C4466.1,129.2,4790,271,5071.7,554.7L5225,708l230,53.7c291.3,69,458,132.2,701.4,270.2c205.1,115,266.4,182.1,266.4,287.5c0,67.1-32.6,124.6-182.1,318.1c-59.4,76.7-118.8,162.9-134.2,189.7c-51.7,103.5-80.5,375.6-105.4,1015.7c-19.2,521.3-57.5,697.6-220.4,1025.3c-281.7,569.2-810.7,979.3-1431.6,1113.5C4151.8,5023.9,3785.7,5033.5,3586.4,4999z M4203.5,4521.8c563.4-111.2,1000.4-469.5,1211.2-996.6c76.7-191.7,101.6-360.3,115-787.7c23-724.4,69-998.5,203.1-1211.2c42.2-69,76.7-126.5,76.7-132.2c0-36.4-507.9-199.3-626.7-199.3h-42.1l34.5,82.4c103.5,239.6,162.9,668.9,136.1,981.3c-23,268.3-40.2,356.5-78.6,394.8c-49.8,49.8-78.6,46-256.8-28.7c-212.7-92-402.5-126.5-686.1-126.5c-475.3,0-895,124.6-1339.6,396.7c-99.7,61.3-111.2,65.2-161,40.2c-44.1-19.2-63.2-51.7-97.7-166.7c-139.9-448.5-136.1-941,13.4-1408.6c32.6-97.7,57.5-182.1,57.5-187.8c0-15.3-260.6,36.4-412,82.4c-147.6,44.1-277.9,105.4-277.9,128.4c0,9.6,38.3,84.3,84.3,166.7c47.9,80.5,95.8,193.6,107.3,247.2c38.3,172.5,57.5,527,55.6,960.2c-1.9,375.6,1.9,438.9,38.3,574.9c153.3,576.9,597.9,1021.5,1161.4,1165.2C3739.7,4554.4,3990.8,4562.1,4203.5,4521.8z M3084.3,2547.8c216.6-109.2,456.1-191.6,699.5-245.3c277.9-59.4,737.8-59.4,975.5,0c92,23,197.4,53.7,233.8,69l67.1,26.8l13.4-107.3c21.1-166.7-3.8-532.8-47.9-703.4c-84.3-327.7-214.7-571.1-412.1-768.5c-116.9-115-155.2-139.9-270.2-178.2c-182.1-61.3-454.2-74.7-622.9-32.6c-69,17.2-189.7,63.2-268.3,101.6c-113.1,57.5-162.9,97.7-243.4,197.4c-277.9,343.1-429.3,904.6-373.7,1387.5c23,189.7,53.7,337.3,72.8,337.3C2911.8,2632.1,2992.3,2593.8,3084.3,2547.8z"/><path d="M2302.4,215.4c-115-70.9-291.3-212.7-448.5-362.2c-515.5-488.7-918-1172.9-1134.6-1924.2c-157.1-546.2-249.1-1354.9-170.6-1506.4c63.2-122.7-92-115,2518.3-115h2374.5l59.4,49.8c109.2,90.1,113,256.8,9.6,354.6l-49.8,46l-2225,9.6l-2227,9.6l5.7,105.4c11.5,197.4,65.2,527,128.4,776.2C1280.9-1793,1507-1312,1825.2-888.5c122.7,161,446.5,498.3,538.5,557.7l51.7,34.5l111.2-95.8c256.8-218.5,582.6-391,900.8-477.2c168.6-46,220.4-51.7,513.6-51.7c272.1,1.9,350.7,7.7,473.4,42.2c335.4,92,620.9,237.7,898.8,460l151.4,122.7l93.9-78.6c162.9-136.1,429.3-429.3,565.4-620.9c70.9-103.5,153.3-203.2,180.1-224.2c103.5-82.4,287.5-23,341.1,109.2c42.2,97.7,23,168.6-90.1,333.5c-237.7,345-517.5,640.1-829.8,879.7c-180.2,136.1-195.5,143.7-289.4,143.7c-95.8,0-101.6-3.8-260.6-149.5c-423.6-394.8-831.8-565.4-1301.3-544.3c-433.1,19.2-791.5,182.1-1148,521.3c-80.5,76.7-164.8,147.6-187.8,161C2472.9,267.2,2377.1,259.5,2302.4,215.4z"/><path d="M7522.9-1296.7c-797.3-99.7-1447-764.7-1517.9-1558.1c-30.7-333.5,19.2-628.6,151.4-910.3c300.9-647.8,975.5-1054.1,1675-1011.9c780,46,1424,582.6,1613.7,1347.3c49.8,203.1,46,619-11.5,827.9C9234.3-1854.4,8598-1335,7831.4-1290.9C7737.5-1285.2,7597.6-1289,7522.9-1296.7z M8063.3-1806.5c218.5-55.6,387.1-155.2,565.4-333.5c134.2-134.2,180.2-195.5,245.3-329.6c44.1-90.1,92-222.3,107.3-295.1c172.5-814.5-481-1583-1303.2-1535.1c-680.4,40.3-1201.7,580.7-1203.6,1249.6c-1.9,230,30.7,368,132.2,580.7C6863.6-1934.9,7478.8-1655.1,8063.3-1806.5z"/><path d="M7670.4-2036.4c-38.3-47.9-40.2-74.7-40.2-546.2c0-519.4,9.6-584.5,84.3-603.7c23-3.8,182.1-5.8,354.5-3.8l314.3,5.8l38.3,49.8c32.6,46,34.5,57.5,9.6,105.4l-24.9,55.6l-264.5,5.7l-262.6,5.8v437c0,414-1.9,440.8-40.2,488.7c-23,28.8-57.5,49.8-84.3,49.8S7693.4-2007.7,7670.4-2036.4z"/></g></g>
</svg>