<svg width="26" height="24" viewBox="0 0 26 24" fill="none" xmlns="http://www.w3.org/2000/svg"><path d="M18.281 0a7.049 7.049 0 0 0-2.956.657 7.467 7.467 0 0 0-2.468 1.855A7.336 7.336 0 0 0 9.061.197a6.998 6.998 0 0 0-4.359.361 7.542 7.542 0 0 0-3.414 2.914A8.306 8.306 0 0 0 0 7.929c0 7.895 11.937 15.644 12.455 15.949a.766.766 0 0 0 .828 0c.494-.305 12.431-8.054 12.431-15.949-.002-2.102-.786-4.118-2.18-5.604C22.142.838 20.253.002 18.282 0zm-5.424 22.133C10.78 20.72 1.607 14.11 1.607 7.93a6.497 6.497 0 0 1 1.128-3.67 5.855 5.855 0 0 1 2.943-2.25 5.48 5.48 0 0 1 3.62.038 5.876 5.876 0 0 1 2.9 2.312.822.822 0 0 0 .287.267.763.763 0 0 0 .74 0 .822.822 0 0 0 .287-.267 5.876 5.876 0 0 1 2.9-2.317 5.48 5.48 0 0 1 3.624-.04 5.855 5.855 0 0 1 2.945 2.253 6.497 6.497 0 0 1 1.126 3.674c0 6.176-9.173 12.786-11.25 14.204z" fill="currentColor"/></svg>