<?xml version="1.0" encoding="utf-8"?>
<!-- Svg Vector Icons : http://www.onlinewebfonts.com/icon -->
<!DOCTYPE svg PUBLIC "-//W3C//DTD SVG 1.1//EN" "http://www.w3.org/Graphics/SVG/1.1/DTD/svg11.dtd">
<svg version="1.1" xmlns="http://www.w3.org/2000/svg" xmlns:xlink="http://www.w3.org/1999/xlink" x="0px" y="0px" viewBox="0 0 1000 1000" enable-background="new 0 0 1000 1000" xml:space="preserve">
<metadata> Svg Vector Icons : http://www.onlinewebfonts.com/icon </metadata>
<g><path d="M500,10C229.4,10,10,229.4,10,500c0,270.6,219.4,490,490,490c270.6,0,490-219.4,490-490C990,229.4,770.6,10,500,10z M517.4,353.1c17.3-15.5,42.1-15.9,55.5-1c13.4,14.9,10.2,39.6-7.1,55.1c-17.3,15.5-42.1,15.9-55.5,1C496.9,393.2,500.1,368.6,517.4,353.1z M475.1,682.8c-21.8-0.2-23-20-20.4-41.2c2.7-21.2,21.1-91,25.7-109.7c4.8-19.2,0.5-17.9-16.3-10.2c-9.9,4.6-20.8,10.2-27.7,14.3c-2.4-3.7-5.4-9.2-9-15.1c8-6.7,35.3-28.2,55.9-38.4c20.6-10.2,52-24.3,66.1-20c10.2,3.1,11.4,16.7,11,28.6c-0.4,14.1-21.8,87.5-26.9,108.9c-5.1,21.4-8,33.5,7.3,27.7s30.2-16.7,32.6-18.8c2.4,2.7,9.8,13.3,10.2,13.9C580.3,629.2,520.8,683.2,475.1,682.8z"/></g>
</svg>