<?xml version="1.0" encoding="utf-8"?>
<!-- Svg Vector Icons : http://www.onlinewebfonts.com/icon -->
<!DOCTYPE svg PUBLIC "-//W3C//DTD SVG 1.1//EN" "http://www.w3.org/Graphics/SVG/1.1/DTD/svg11.dtd">
<svg version="1.1" xmlns="http://www.w3.org/2000/svg" xmlns:xlink="http://www.w3.org/1999/xlink" x="0px" y="0px" viewBox="0 0 1000 1000" enable-background="new 0 0 1000 1000" xml:space="preserve">
<metadata> Svg Vector Icons : http://www.onlinewebfonts.com/icon </metadata>
<g><path d="M437.4,830.9c-21.6,0-40.3-7.7-53.9-22.4c-9.1-9.7-19.8-27.1-19.8-54.8c0-53,33.7-173.5,63.7-272.8c-14.1,6-29.4,12.7-43.5,19l-158.5,70.2l116.5-128.3c35.5-39.1,67.6-66.5,98.2-83.7c32.7-18.5,61-27.4,86.6-27.4h0.9l0.9,0c1,0.1,2,0.1,3.1,0.1c11.5,0.4,33,1,49.1,18.4c10.5,11.3,15.4,26.2,14.8,44.3c0,7.9-1,22.3-33.2,129.9c-25.5,85.7-38.2,135-44.4,163.4c16.2-7.1,35-15.8,51.9-23.8l209.7-99.3l-169,159.1c-47.2,44.4-81.4,72.5-104.7,85.7C479.5,823.6,457.1,830.9,437.4,830.9L437.4,830.9z M560.3,295c-22.7,0-42.8-8.5-58.1-24.6c-14.9-15.6-22.7-36.4-22.7-60c0-28,9.7-53.3,28-73.2c19.1-20.8,43.5-31.7,70.6-31.7c22.9,0,43.1,8.3,58.4,24c15.1,15.5,23.1,35.8,23.1,58.8c0,27.9-9.7,52.6-28.8,73.7C605.8,289.3,578.7,295,560.3,295L560.3,295z"/><path d="M500,10C229.4,10,10,229.4,10,500c0,270.6,219.4,490,490,490c270.6,0,490-219.4,490-490C990,229.4,770.6,10,500,10z M500,953.1C249.8,953.1,46.9,750.2,46.9,500C46.9,249.8,249.8,46.9,500,46.9c250.2,0,453.1,202.9,453.1,453.1C953.1,750.2,750.2,953.1,500,953.1z"/></g>
</svg>