<?xml version="1.0" encoding="utf-8"?>
<!-- Svg Vector Icons : http://www.onlinewebfonts.com/icon -->
<!DOCTYPE svg PUBLIC "-//W3C//DTD SVG 1.1//EN" "http://www.w3.org/Graphics/SVG/1.1/DTD/svg11.dtd">
<svg version="1.1" xmlns="http://www.w3.org/2000/svg" xmlns:xlink="http://www.w3.org/1999/xlink" x="0px" y="0px" viewBox="0 0 1000 1000" enable-background="new 0 0 1000 1000" xml:space="preserve">
<metadata> Svg Vector Icons : http://www.onlinewebfonts.com/icon </metadata>
<g><path d="M500,10C228.9,10,10,230.1,10,500c0,271.1,218.9,490,490,490c270,0,490-218.9,490-490C990,230.1,770,10,500,10z M459.5,807.1c-35,2.6-60.4-11.2-62.7-46c-3-44,24.9-121.6,30.7-137.7l57-166.4c5.7-17-3.6-24.6-11.4-24c-35.9,2.7-77.2,85.9-94.6,87.1c-6.8,0.5-13.1-5.5-13.5-11c-1.1-16.5,39-58.2,50.8-71.1c36.5-37.7,85.2-68,141.6-72.2c41.8-3.1,88.1,17.4,59.1,109l-57.8,183.9c-4.9,14.2-14,37.9-13,52.6c0.4,6.4,4.7,12.5,12.5,12c29.2-2.2,77.3-84.1,90.9-85.1c4.8-0.3,12,4.7,12.6,12.9C663.6,677.7,557.7,799.8,459.5,807.1z M595,329.9c-39.9,3-67.8-19.8-70.3-57.5c-2.8-40.3,31.9-76.1,74.7-79.2c38.9-2.9,68.8,19.8,71.3,57.4C673.6,292.8,638.8,326.7,595,329.9z"/></g>
</svg>