<?xml version="1.0" encoding="utf-8"?>
<!-- Svg Vector Icons : http://www.onlinewebfonts.com/icon -->
<!DOCTYPE svg PUBLIC "-//W3C//DTD SVG 1.1//EN" "http://www.w3.org/Graphics/SVG/1.1/DTD/svg11.dtd">
<svg version="1.1" xmlns="http://www.w3.org/2000/svg" xmlns:xlink="http://www.w3.org/1999/xlink" x="0px" y="0px" viewBox="0 0 1000 1000" enable-background="new 0 0 1000 1000" xml:space="preserve">
<metadata> Svg Vector Icons : http://www.onlinewebfonts.com/icon </metadata>
<g><path d="M500,990C229.8,990,10,770.2,10,500C10,229.8,229.8,10,500,10c270.2,0,490,219.8,490,490C990,770.2,770.2,990,500,990L500,990z M500,67.6C261.6,67.6,67.6,261.6,67.6,500c0,238.4,193.9,432.4,432.4,432.4c238.4,0,432.4-193.9,432.4-432.4C932.4,261.6,738.4,67.6,500,67.6L500,67.6z"/><path d="M500,792.4c-19.8,0-35.8-16-35.8-35.8V394.2c0-19.8,16-35.8,35.8-35.8c19.8,0,35.8,16,35.8,35.8v362.3C535.9,776.3,519.8,792.4,500,792.4L500,792.4z"/><path d="M500,295.2L500,295.2c-27,0-48.9-21.9-48.9-48.9l0,0c0-27,21.9-48.9,48.9-48.9l0,0c27,0,48.9,21.9,48.9,48.9l0,0C548.9,273.4,527,295.2,500,295.2L500,295.2z"/></g>
</svg>