<svg width="28" height="30" viewBox="0 0 28 30" fill="none" xmlns="http://www.w3.org/2000/svg"><path opacity=".5" d="M26.65 14.611a.901.901 0 0 0 0 .778l1.088 2.288c.606 1.275.126 2.794-1.093 3.459l-2.189 1.194a.878.878 0 0 0-.444.629l-.428 2.51c-.239 1.396-1.495 2.335-2.862 2.136l-2.454-.356a.841.841 0 0 0-.718.24l-1.782 1.771A2.5 2.5 0 0 1 14 30a2.5 2.5 0 0 1-1.768-.74L10.45 27.49a.84.84 0 0 0-.718-.24l-2.454.357a2.534 2.534 0 0 1-.365.026c-1.219 0-2.28-.892-2.497-2.164l-.428-2.51a.878.878 0 0 0-.444-.628l-2.19-1.194C.137 20.47-.343 18.952.263 17.678l1.088-2.29a.901.901 0 0 0 0-.776l-1.088-2.29C-.344 11.049.136 9.53 1.355 8.865L3.544 7.67a.878.878 0 0 0 .444-.629l.428-2.509c.239-1.397 1.495-2.336 2.862-2.137l2.453.357a.84.84 0 0 0 .72-.24L12.23.74a2.484 2.484 0 0 1 3.538 0l1.78 1.771a.84.84 0 0 0 .72.24l2.453-.356c1.366-.2 2.623.74 2.862 2.137l.428 2.51c.046.27.208.5.444.628l2.19 1.194c1.218.665 1.698 2.184 1.092 3.458l-1.088 2.29z" fill="#282534"/><path d="M9.2 18.5H7.8l-3.17-4.79v4.79h-1.4v-6.99h1.4l3.17 4.8v-4.8h1.4v6.99zm2.784-5.85v1.75h2.35v1.11h-2.35v1.85h2.65v1.14h-4.05v-6.99h4.05v1.14h-2.65zm13.252-1.13-1.95 6.98h-1.65l-1.31-4.97-1.37 4.97-1.64.01-1.88-6.99h1.5l1.23 5.42 1.42-5.42h1.56l1.34 5.39 1.24-5.39h1.51z" fill="#fff"/></svg>