<svg width="28" height="30" viewBox="0 0 28 30" fill="none" xmlns="http://www.w3.org/2000/svg"><path d="M26.65 14.611a.901.901 0 0 0 0 .778l1.088 2.288c.606 1.275.126 2.794-1.093 3.459l-2.189 1.194a.878.878 0 0 0-.444.629l-.428 2.51c-.239 1.396-1.495 2.335-2.862 2.136l-2.454-.356a.841.841 0 0 0-.718.24l-1.782 1.771A2.5 2.5 0 0 1 14 30a2.5 2.5 0 0 1-1.768-.74L10.45 27.49a.84.84 0 0 0-.718-.24l-2.454.357a2.534 2.534 0 0 1-.365.026c-1.219 0-2.28-.892-2.497-2.164l-.428-2.51a.878.878 0 0 0-.444-.628l-2.19-1.194C.137 20.47-.343 18.952.263 17.678l1.088-2.29a.901.901 0 0 0 0-.776l-1.088-2.29C-.344 11.049.136 9.53 1.355 8.865L3.544 7.67a.878.878 0 0 0 .444-.629l.428-2.509c.239-1.397 1.495-2.336 2.862-2.137l2.453.357a.84.84 0 0 0 .72-.24L12.23.74a2.484 2.484 0 0 1 3.538 0l1.78 1.771a.84.84 0 0 0 .72.24l2.453-.356c1.366-.2 2.623.74 2.862 2.137l.428 2.51c.046.27.208.5.444.628l2.19 1.194c1.218.665 1.698 2.184 1.092 3.458l-1.088 2.29z" fill="#E93C3C"/><path d="M7.323 11.1c0-.912.26-1.626.778-2.142.53-.516 1.209-.774 2.034-.774.825 0 1.497.258 2.016.774.53.516.796 1.23.796 2.142 0 .924-.265 1.644-.796 2.16-.519.516-1.19.774-2.016.774-.825 0-1.503-.258-2.034-.774-.518-.516-.778-1.236-.778-2.16zm11.354-2.7L11.727 21H9.322l6.932-12.6h2.422zm-8.56 1.296c-.648 0-.972.468-.972 1.404 0 .948.324 1.422.972 1.422.319 0 .566-.114.743-.342.177-.24.265-.6.265-1.08 0-.936-.336-1.404-1.008-1.404zm4.97 8.586c0-.924.259-1.638.778-2.142.53-.516 1.208-.774 2.033-.774.826 0 1.492.258 1.999.774.519.504.778 1.218.778 2.142 0 .924-.26 1.644-.778 2.16-.507.516-1.173.774-1.999.774-.837 0-1.514-.258-2.033-.774-.519-.516-.778-1.236-.778-2.16zm2.794-1.404c-.672 0-1.008.468-1.008 1.404 0 .948.336 1.422 1.008 1.422.66 0 .99-.474.99-1.422 0-.936-.33-1.404-.99-1.404z" fill="#fff"/></svg>