<svg width="66" height="16" viewBox="0 0 66 16" fill="none" xmlns="http://www.w3.org/2000/svg"><path fill="#F7F4FC" fill-opacity=".75" d="M.5.5h65v15H.5z"/><path d="M8.677 4.86c.894 0 1.567.133 2.02.4.46.26.69.717.69 1.37 0 .42-.117.77-.35 1.05-.233.273-.57.45-1.01.53v.05c.3.047.57.133.81.26.247.127.44.307.58.54.14.233.21.537.21.91 0 .647-.223 1.147-.67 1.5-.44.353-1.043.53-1.81.53h-2.51V4.86h2.04zm.18 3.04c.614 0 1.034-.097 1.26-.29.227-.2.34-.493.34-.88 0-.393-.14-.673-.42-.84-.273-.173-.713-.26-1.32-.26h-1.18V7.9h1.32zm-1.32.75v2.59h1.44c.634 0 1.073-.123 1.32-.37.247-.247.37-.57.37-.97 0-.373-.13-.673-.39-.9-.253-.233-.71-.35-1.37-.35h-1.37zM17.1 6.64v2.23h2.91V6.64h.88V12h-.88V9.61h-2.91V12h-.88V6.64h.88zm7.817-.09c.653 0 1.137.143 1.45.43.313.287.47.743.47 1.37V12h-.64l-.17-.76h-.04a2.45 2.45 0 0 1-.74.65c-.253.14-.607.21-1.06.21-.487 0-.89-.127-1.21-.38-.32-.26-.48-.663-.48-1.21 0-.533.21-.943.63-1.23.42-.293 1.067-.453 1.94-.48l.91-.03v-.32c0-.447-.097-.757-.29-.93-.193-.173-.467-.26-.82-.26-.28 0-.547.043-.8.13-.253.08-.49.173-.71.28l-.27-.66c.233-.127.51-.233.83-.32.32-.093.653-.14 1-.14zm.26 2.86c-.667.027-1.13.133-1.39.32-.253.187-.38.45-.38.79 0 .3.09.52.27.66.187.14.423.21.71.21.453 0 .83-.123 1.13-.37.3-.253.45-.64.45-1.16v-.48l-.79.03zM32.87 12h-.89V7.37h-1.58c-.086 1.127-.206 2.037-.36 2.73-.153.687-.356 1.187-.61 1.5-.253.313-.573.47-.96.47-.086 0-.173-.007-.26-.02a.55.55 0 0 1-.2-.05v-.66a.984.984 0 0 0 .27.04c.36 0 .647-.383.86-1.15.22-.767.387-1.963.5-3.59h3.23V12zm2.832-2.09a11.706 11.706 0 0 1-.04.84c-.007.16-.014.287-.02.38l2.87-4.49h1.08V12h-.82V8.42l.02-.51c.006-.173.013-.303.02-.39L35.963 12h-1.09V6.64h.83v3.27zm6.665-1.32c0 .613.344.92 1.03.92.334 0 .637-.05.91-.15.274-.107.554-.247.84-.42v-2.3h.88V12h-.88V9.61c-.3.193-.596.347-.89.46-.286.107-.633.16-1.04.16-.546 0-.973-.143-1.28-.43-.3-.287-.45-.67-.45-1.15V6.64h.88v1.95zm6.493 1.32a11.362 11.362 0 0 1-.04.84c-.006.16-.013.287-.02.38l2.87-4.49h1.08V12h-.82V8.42l.02-.51c.007-.173.014-.303.02-.39L49.121 12h-1.09V6.64h.83v3.27zm6.726 0a11.362 11.362 0 0 1-.04.84c-.007.16-.013.287-.02.38l2.87-4.49h1.08V12h-.82V8.42l.02-.51c.007-.173.013-.303.02-.39L55.847 12h-1.09V6.64h.83v3.27z" fill="#933468"/><path stroke="#933468" d="M.5.5h65v15H.5z"/></svg>