<svg width="60" height="60" viewBox="0 0 60 60" fill="none" xmlns="http://www.w3.org/2000/svg"><rect width="60" height="60" rx="15" fill="url(#a)"/><path fill-rule="evenodd" clip-rule="evenodd" d="M19 28.286C19 22.605 23.605 18 29.286 18c5.579 0 10.12 4.442 10.281 9.982l2.718 4.892a1.143 1.143 0 0 1-.775 1.675l-1.939.388v2.492c0 .63-.511 1.142-1.142 1.142h-1.715c-.063 0-.125-.005-.188-.015l-2.274-.38-.406 2.843c-.08.563-.563.981-1.132.981h-8.571a1.143 1.143 0 0 1-1.122-.927l-1.076-5.582A10.256 10.256 0 0 1 19 28.286zm10.286-2.857c-.947 0-1.715.767-1.715 1.714a1.143 1.143 0 0 1-2.285 0 4 4 0 1 1 5.143 3.834v.737a1.143 1.143 0 0 1-2.286 0V30c0-.631.511-1.143 1.143-1.143a1.714 1.714 0 1 0 0-3.428zm0 8.571c.63 0 1.143.512 1.143 1.143v.571a1.143 1.143 0 0 1-2.286 0v-.571c0-.631.511-1.143 1.143-1.143z" fill="#fff"/><circle cx="30" cy="30" r="24.5" stroke="#fff" stroke-opacity=".3"/><defs><linearGradient id="a" x1="-10.5" y1="57.972" x2="66.86" y2="23.748" gradientUnits="userSpaceOnUse"><stop stop-color="#D3BEFF"/><stop offset="1" stop-color="#C9DBFF"/></linearGradient></defs></svg>