<svg width="59" height="40" viewBox="0 0 59 40" fill="none" xmlns="http://www.w3.org/2000/svg"><rect x="1.431" y=".5" width="56.931" height="39" rx="3.5" fill="#fff" stroke="#F3EFF3"/><path fill-rule="evenodd" clip-rule="evenodd" d="M22.155 30.89v2.954h-.647v-.358c-.205.266-.516.433-.939.433-.834 0-1.487-.65-1.487-1.552 0-.901.653-1.55 1.487-1.55.423 0 .734.166.94.432v-.358h.646zm-1.506.532c-.56 0-.902.426-.902.945 0 .52.343.946.902.946.535 0 .896-.408.896-.946 0-.537-.36-.945-.896-.945zm23.354.945c0-.519.342-.945.902-.945.535 0 .895.408.895.945 0 .538-.36.946-.895.946-.56 0-.902-.427-.902-.946zm2.408-2.663v4.14h-.648v-.358c-.205.266-.516.433-.939.433-.834 0-1.487-.65-1.487-1.552 0-.901.653-1.55 1.487-1.55.423 0 .734.166.94.432v-1.545h.647zm-16.23 1.687c.416 0 .683.26.752.717H29.39c.069-.427.33-.717.79-.717zm-1.47.976c0-.92.61-1.55 1.482-1.55.833 0 1.405.63 1.412 1.55 0 .087-.007.167-.013.247h-2.208c.093.532.473.724.89.724.298 0 .615-.112.864-.31l.317.477c-.36.302-.77.413-1.219.413-.89 0-1.524-.611-1.524-1.55zm9.289 0c0-.519.342-.945.902-.945.534 0 .895.408.895.945 0 .538-.36.946-.895.946-.56 0-.902-.427-.902-.946zm2.407-1.476V33.843h-.647v-.358c-.205.266-.516.433-.939.433-.834 0-1.487-.65-1.487-1.552 0-.901.653-1.55 1.487-1.55.423 0 .734.166.94.432v-.358h.646zm-6.059 1.476c0 .897.628 1.552 1.587 1.552.447 0 .746-.1 1.069-.353l-.31-.519a1.312 1.312 0 0 1-.779.266c-.516-.006-.895-.377-.895-.946 0-.568.38-.939.895-.945.28 0 .536.092.779.266l.31-.52c-.323-.253-.622-.352-1.07-.352-.958 0-1.586.655-1.586 1.551zM41.9 31.25c.168-.26.41-.433.784-.433.13 0 .317.025.46.08l-.199.606a1.054 1.054 0 0 0-.404-.074c-.423 0-.635.272-.635.76v1.656h-.647v-2.953h.64v.358zm-16.548-.124c-.31-.203-.74-.309-1.212-.309-.753 0-1.238.359-1.238.946 0 .481.36.779 1.026.871l.305.043c.355.05.522.143.522.31 0 .228-.236.358-.678.358-.448 0-.77-.142-.989-.309l-.305.5c.355.26.803.384 1.288.384.858 0 1.356-.402 1.356-.965 0-.519-.391-.79-1.039-.883l-.304-.044c-.28-.037-.505-.092-.505-.29 0-.216.212-.346.566-.346.38 0 .747.142.928.253l.28-.519zm7.56.124a.877.877 0 0 1 .783-.433c.13 0 .317.025.46.08l-.2.606a1.054 1.054 0 0 0-.404-.074c-.422 0-.634.272-.634.76v1.656h-.646v-2.953h.64v.358zm-4.735-.358H27.12v-.897h-.654v.896h-.603v.587h.603v1.348c0 .685.268 1.093 1.032 1.093.281 0 .604-.086.81-.228l-.187-.55a1.202 1.202 0 0 1-.573.167c-.323 0-.428-.198-.428-.495v-1.334h1.057v-.588zm-9.667 1.1v1.853h-.654V32.2c0-.5-.211-.778-.653-.778-.43 0-.727.272-.727.785v1.637h-.654V32.2c0-.5-.217-.778-.647-.778-.442 0-.728.272-.728.785v1.637h-.653v-2.953h.647v.364c.243-.346.554-.439.871-.439.454 0 .778.198.983.526.274-.415.665-.532 1.045-.526.722.007 1.17.476 1.17 1.174z" fill="#231F20"/><path d="M34.937 25.871h-9.799V8.378h9.799v17.493z" fill="#FF5F00"/><path d="M25.76 17.125c0-3.548 1.672-6.71 4.277-8.746A11.197 11.197 0 0 0 23.116 6c-6.185 0-11.198 4.981-11.198 11.125 0 6.145 5.013 11.126 11.198 11.126 2.612 0 5.016-.89 6.92-2.379-2.604-2.037-4.276-5.198-4.276-8.747z" fill="#EB001B"/><path d="M48.157 17.125c0 6.145-5.014 11.126-11.198 11.126a11.2 11.2 0 0 1-6.922-2.379c2.605-2.037 4.278-5.198 4.278-8.747 0-3.548-1.673-6.71-4.278-8.746A11.2 11.2 0 0 1 36.959 6c6.184 0 11.198 4.981 11.198 11.125z" fill="#F79E1B"/></svg>