<svg width="59" height="40" viewBox="0 0 59 40" fill="none" xmlns="http://www.w3.org/2000/svg"><rect x="1.293" y=".5" width="56.931" height="39" rx="3.5" fill="#fff" stroke="#F3EFF3"/><path fill-rule="evenodd" clip-rule="evenodd" d="M10.164 14.002h.067c.476-.009 1.638-.029 2.145 1.683.358 1.212.93 3.196 1.713 5.954h.32c.84-2.907 1.417-4.892 1.732-5.954.505-1.709 1.724-1.692 2.315-1.684l.105.001h4.15v12.924h-4.23V19.31h-.283l-2.358 7.616h-3.182L10.3 19.304h-.284v7.622H5.788V14.002h4.377zm18.62 0v7.622h.338l2.867-6.267c.557-1.247 1.744-1.355 1.744-1.355h4.093v12.924h-4.318v-7.622h-.338l-2.811 6.268c-.557 1.241-1.8 1.354-1.8 1.354h-4.093V14.002h4.318zm19.378 9.074c2.094 0 3.985-1.224 4.588-2.932H39.528v6.782h4.106v-3.85h4.528z" fill="#40A548"/><path d="M48.36 14.002h-9.047c.215 2.878 2.69 5.34 5.252 5.34h8.47c.489-2.39-1.194-5.34-4.675-5.34z" fill="#1291D0"/></svg>