<svg width="18" height="18" viewBox="0 0 18 18" fill="none" xmlns="http://www.w3.org/2000/svg"><path d="M12.2 6.398A5.807 5.807 0 0 0 6.397 12.2C6.398 15.398 9.001 18 12.2 18 15.398 18 18 15.398 18 12.2c0-3.2-2.602-5.802-5.8-5.802zm0 5.274c.872 0 1.581.71 1.581 1.582a1.58 1.58 0 0 1-1.054 1.485v1.152h-1.055v-1.152a1.58 1.58 0 0 1-1.055-1.485h1.055a.528.528 0 1 0 .527-.527c-.872 0-1.582-.71-1.582-1.582a1.58 1.58 0 0 1 1.055-1.485V8.508h1.055V9.66a1.58 1.58 0 0 1 1.054 1.485h-1.054a.528.528 0 1 0-.528.527zM5.871 6.398c3.253 0 5.8-1.39 5.8-3.164C11.672 1.46 9.125 0 5.872 0 2.618 0 0 1.46 0 3.234s2.618 3.164 5.871 3.164zM0 11.867v.86C0 14.5 2.618 15.89 5.871 15.89c.185 0 .363-.017.545-.025a6.81 6.81 0 0 1-.884-2.097c-2.352-.065-4.394-.787-5.532-1.9zM5.37 12.7c-.013-.166-.026-.332-.026-.5 0-.55.072-1.083.195-1.595-2.355-.064-4.4-.787-5.539-1.902v.86c0 1.68 2.365 3 5.37 3.137zM5.871 9.562h.002a6.879 6.879 0 0 1 1.481-2.208c-.476.06-.968.099-1.483.099-2.504 0-4.678-.747-5.871-1.914v.86c0 1.773 2.618 3.163 5.871 3.163z" fill="#7ABB7D"/></svg>