<svg width="16" height="15" viewBox="0 0 16 15" fill="none" xmlns="http://www.w3.org/2000/svg"><path d="M14.609 3.478h-2.226L11.13 2.087H6.957v1.391h3.547l1.322 1.392h2.783v8.347H3.479v-6.26H2.086v6.26c0 .766.626 1.392 1.391 1.392h11.13c.766 0 1.392-.626 1.392-1.392V4.87c0-.766-.626-1.392-1.391-1.392zM5.565 9.043c0 3.096 3.75 4.654 5.941 2.463s.633-5.94-2.463-5.94a3.48 3.48 0 0 0-3.478 3.477zm3.478-2.086a2.15 2.15 0 0 1 2.087 2.086 2.15 2.15 0 0 1-2.087 2.087 2.15 2.15 0 0 1-2.086-2.087 2.15 2.15 0 0 1 2.086-2.086zM3.478 3.478h2.087V2.087H3.478V0H2.087v2.087H0v1.391h2.087v2.087h1.391" fill="#fff"/></svg>