<svg height="496pt" viewBox="0 0 496 496" width="496pt" xmlns="http://www.w3.org/2000/svg"><path d="m416 72c0-8.824219-7.175781-16-16-16h-40v-14.054688c0-23.128906-18.816406-41.945312-41.9375-41.945312-11.207031 0-21.742188 4.359375-29.65625 12.289062l-40.40625 40.398438-40.398438-40.398438c-7.921874-7.929687-18.449218-12.289062-29.664062-12.289062-23.121094 0-41.9375 18.816406-41.9375 41.945312v14.054688h-40c-8.824219 0-16 7.175781-16 16v32c0 8.824219 7.175781 16 16 16h304c8.824219 0 16-7.175781 16-16zm-116.273438-48.40625c4.890626-4.898438 11.402344-7.59375 18.335938-7.59375 14.304688 0 25.9375 11.640625 25.9375 25.945312v14.054688h-76.6875zm-43.726562 48.40625v32h-16v-32zm-104-30.054688c0-14.304687 11.632812-25.945312 25.9375-25.945312 6.933594 0 13.445312 2.695312 18.34375 7.601562l32.40625 32.398438h-76.6875zm-56 30.054688h128v32h-128zm176 32v-32h128l.007812 32zm0 0"/><path d="m96 496h304v-168h-304zm144-16v-136h16v136zm144 0h-112v-136h112zm-272-136h112v136h-112zm0 0"/><path d="m288 448h16v16h-16zm0 0"/><path d="m320 448h16v16h-16zm0 0"/><path d="m352 448h16v16h-16zm0 0"/><path d="m232 192h32c4.414062 0 8 3.59375 8 8h16c0-13.230469-10.769531-24-24-24h-8v-8h-16v8h-8c-13.230469 0-24 10.769531-24 24v8c0 13.230469 10.769531 24 24 24h32c4.414062 0 8 3.59375 8 8v8c0 4.40625-3.585938 8-8 8h-32c-4.414062 0-8-3.59375-8-8h-16c0 13.230469 10.769531 24 24 24h8v8h16v-8h8c13.230469 0 24-10.769531 24-24v-8c0-13.230469-10.769531-24-24-24h-32c-4.414062 0-8-3.59375-8-8v-8c0-4.40625 3.585938-8 8-8zm0 0"/><path d="m179.878906 168.3125c-12.816406 15.664062-19.878906 35.441406-19.878906 55.6875 0 48.519531 39.480469 88 88 88 20.246094 0 40.023438-7.054688 55.6875-19.871094l-10.144531-12.386718c-12.800781 10.480468-28.984375 16.257812-45.542969 16.257812-39.703125 0-72-32.304688-72-72 0-16.558594 5.777344-32.742188 16.257812-45.550781zm0 0"/><path d="m316.121094 279.6875c12.816406-15.664062 19.878906-35.441406 19.878906-55.6875 0-48.519531-39.480469-88-88-88-20.246094 0-40.023438 7.054688-55.6875 19.871094l10.144531 12.386718c12.800781-10.480468 28.984375-16.257812 45.542969-16.257812 39.703125 0 72 32.304688 72 72 0 16.558594-5.777344 32.742188-16.257812 45.550781zm0 0"/><path d="m32 136h16v16h-16zm0 0"/><path d="m32 168h16v96h-16zm0 0"/><path d="m64 296h16v16h-16zm0 0"/><path d="m64 184h16v96h-16zm0 0"/><path d="m416 296h16v16h-16zm0 0"/><path d="m416 184h16v96h-16zm0 0"/><path d="m448 136h16v16h-16zm0 0"/><path d="m448 168h16v96h-16zm0 0"/><path d="m480 96h16v16h-16zm0 0"/><path d="m480 128h16v96h-16zm0 0"/><path d="m0 96h16v16h-16zm0 0"/><path d="m0 128h16v96h-16zm0 0"/></svg>