<?xml version="1.0" encoding="utf-8"?>
<!-- Svg Vector Icons : http://www.onlinewebfonts.com/icon -->
<!DOCTYPE svg PUBLIC "-//W3C//DTD SVG 1.1//EN" "http://www.w3.org/Graphics/SVG/1.1/DTD/svg11.dtd">
<svg version="1.1" xmlns="http://www.w3.org/2000/svg" xmlns:xlink="http://www.w3.org/1999/xlink" x="0px" y="0px" viewBox="0 0 1000 1000" enable-background="new 0 0 1000 1000" xml:space="preserve">
<metadata> Svg Vector Icons : http://www.onlinewebfonts.com/icon </metadata>
<g><path d="M500,10C229.4,10,10,229.4,10,500c0,270.6,219.4,490,490,490c270.6,0,490-219.4,490-490C990,229.4,770.6,10,500,10z M500,867.5C297,867.5,132.5,703,132.5,500c0-203,164.5-367.5,367.5-367.5c203,0,367.5,164.5,367.5,367.5C867.5,703,703,867.5,500,867.5z"/><path d="M701.2,354.7l-55.9-55.9c-8.5-8.5-22.2-8.5-30.7,0L500,413.4L385.4,298.8c-8.5-8.5-22.2-8.5-30.7,0l-55.9,55.9c-8.5,8.5-8.5,22.2,0,30.7L413.4,500L298.8,614.6c-8.5,8.5-8.5,22.2,0,30.7l55.9,55.9c8.5,8.5,22.2,8.5,30.7,0L500,586.6l114.6,114.6c8.5,8.5,22.2,8.5,30.7,0l55.9-55.9c8.5-8.5,8.5-22.2,0-30.7L586.6,500l114.6-114.6C709.7,376.9,709.7,363.2,701.2,354.7z"/></g>
</svg>