<svg width="25" height="24" viewBox="0 0 25 24" fill="none" xmlns="http://www.w3.org/2000/svg"><rect x="3" y="2" width="20" height="20" rx="10" fill="#E93C3C"/><path d="M10.263 7a.477.477 0 0 0-.313.125l-1.818 1.65a.394.394 0 0 0-.132.29c0 .11.048.214.132.292l1.818 1.65a.48.48 0 0 0 .323.121.48.48 0 0 0 .321-.121.395.395 0 0 0 .134-.292.394.394 0 0 0-.133-.292l-1.04-.944h7.083v1.263a.378.378 0 0 0 .022.17c.02.054.053.103.096.146a.494.494 0 0 0 .671 0 .406.406 0 0 0 .095-.147.378.378 0 0 0 .022-.169V9.48c0-.45-.41-.826-.906-.826H9.551l1.044-.946a.402.402 0 0 0 .127-.214.377.377 0 0 0-.028-.242.426.426 0 0 0-.173-.186.49.49 0 0 0-.258-.065zm5.459 5.858a.488.488 0 0 0-.254.07.423.423 0 0 0-.167.188.377.377 0 0 0-.023.24c.02.08.064.153.129.21l1.043.948H9.364v-1.227a.38.38 0 0 0-.034-.16.411.411 0 0 0-.1-.136.495.495 0 0 0-.647.003.393.393 0 0 0-.129.293v1.227c0 .45.414.822.91.822h7.086l-1.043.947a.415.415 0 0 0-.107.134.38.38 0 0 0 .092.462.496.496 0 0 0 .656-.011l1.818-1.65a.412.412 0 0 0 .1-.135.38.38 0 0 0 0-.316.412.412 0 0 0-.1-.135l-1.818-1.65a.493.493 0 0 0-.326-.125z" fill="#fff" stroke="#fff" stroke-linejoin="round"/></svg>