<svg width="25" height="24" viewBox="0 0 25 24" fill="none" xmlns="http://www.w3.org/2000/svg"><path d="M12.993 20.333a8.307 8.307 0 0 0 5.893-2.44A8.307 8.307 0 0 0 21.326 12a8.307 8.307 0 0 0-2.44-5.893 8.307 8.307 0 0 0-5.893-2.44 8.307 8.307 0 0 0-5.892 2.44A8.307 8.307 0 0 0 4.66 12c0 2.301.932 4.384 2.44 5.892a8.307 8.307 0 0 0 5.892 2.441z" fill="#FFA6B0" stroke="#E93C3C" stroke-width="2" stroke-linejoin="round"/><path fill-rule="evenodd" clip-rule="evenodd" d="M12.993 17.416a1.042 1.042 0 1 0 0-2.083 1.042 1.042 0 0 0 0 2.083z" fill="#fff"/><path d="M12.993 7v6.667" stroke="#fff" stroke-width="2" stroke-linecap="round" stroke-linejoin="round"/></svg>