<svg width="24" height="24" viewBox="0 0 24 24" fill="none" xmlns="http://www.w3.org/2000/svg"><path d="M11.999 21a8.971 8.971 0 0 0 6.364-2.636A8.971 8.971 0 0 0 20.999 12a8.972 8.972 0 0 0-2.636-6.364A8.972 8.972 0 0 0 11.999 3a8.972 8.972 0 0 0-6.364 2.636A8.972 8.972 0 0 0 3 12a8.972 8.972 0 0 0 2.636 6.364A8.972 8.972 0 0 0 12 21z" fill="#AC9FA6" stroke="#583F4C" stroke-width="2" stroke-linejoin="round"/><path d="m8.999 9 6 6M15 9l-6 6" stroke="#fff" stroke-width="2" stroke-linecap="round" stroke-linejoin="round"/></svg>