<?xml version="1.0" encoding="utf-8"?>
<!-- Svg Vector Icons : http://www.onlinewebfonts.com/icon -->
<!DOCTYPE svg PUBLIC "-//W3C//DTD SVG 1.1//EN" "http://www.w3.org/Graphics/SVG/1.1/DTD/svg11.dtd">
<svg version="1.1" xmlns="http://www.w3.org/2000/svg" xmlns:xlink="http://www.w3.org/1999/xlink" x="0px" y="0px" viewBox="0 0 1000 1000" enable-background="new 0 0 1000 1000" xml:space="preserve">
<metadata> Svg Vector Icons : http://www.onlinewebfonts.com/icon </metadata>
<g><path d="M528,874H10V10.7h791.8v486.6c-21.4-6.3-42.7-9.6-62.7-9.6c-138.5,0-250.9,112.3-250.9,250.9C488.3,788.4,502.9,834.9,528,874z M227.3,644.7h-34.9v36h34.9V644.7z M227.3,428.9h-34.9v36h34.9V428.9z M227.3,213h-34.9v36h34.9V213z M624.3,428.9h-361v36h361V428.9z M521.9,644.7H263.3v36h258.6V644.7z M624.3,213h-361v36h361V213z"/><path d="M624.6,732.7"/><path d="M990,738.5c0,138.5-112.3,250.9-250.9,250.9c-138.5,0-250.9-112.3-250.9-250.9c0-138.5,112.3-250.9,250.9-250.9C845.6,487.6,990,580.4,990,738.5L990,738.5z M738.2,525.5c-117.6,0-213,95.4-213,213c0,117.6,95.4,213,213,213c117.6,0,213-95.4,213-213C951.2,620.8,855.9,525.5,738.2,525.5L738.2,525.5z"/><path d="M619.9,726.9l76.6,83.6l161-161.5c0,0,21.2-4.4,23.2,24c-12.4,13.1-182.9,182.6-182.9,182.6l-99.4-103.4C598.5,752.2,595.1,728.3,619.9,726.9L619.9,726.9z"/></g>
</svg>