<svg version="1.1" xmlns="http://www.w3.org/2000/svg" xmlns:xlink="http://www.w3.org/1999/xlink" x="20px" y="30px" viewBox="0 0 1000 1000" xml:space="preserve">

<g><g><g><path d="M978.3,752.6L507.7,433.1c-0.5-0.4-1.3-0.7-2.1-1c-1.2-0.4-2.3-7.6-2.3-16.1c0-8.5,7.3-18.2,15.3-23.4c26.8-17.3,44.7-47.8,44.7-80.9c0-66.9-45.4-111.8-112.9-111.8c-52,0-95.4,34.4-108.1,85.6c-3.4,13.9,5,27.9,18.9,31.4c13.9,3.5,27.9-5,31.4-18.9c6.9-27.7,30.1-46.3,57.8-46.3c38.9,0,61.1,21.9,61.1,60c0,20.9-17.2,40.9-37.5,43.6c-12.9,1.7-22.5,12.7-22.5,25.7v33c0,9.5-1.8,17.6-4,18.3c-1.6,0.5-2.9,1-3.7,1.7L20.7,753.3c-9.1,6.6-12.9,18.3-9.4,28.9c3.4,10.7,13.4,17.9,24.6,17.9h928.2c11.5,0,21.6-7.5,24.8-18.5C992.2,770.7,987.9,758.9,978.3,752.6z M860,748.4H133c-9.6,0-10.7-4-2.6-9.1l304.6-188.1c23.2-16.8,61.3-17.7,85.3-2L862.2,740C870.5,744.6,869.5,748.4,860,748.4z"/></g></g><g></g><g></g><g></g><g></g><g></g><g></g><g></g><g></g><g></g><g></g><g></g><g></g><g></g><g></g><g></g></g>
</svg>