<svg width="20" height="20" viewBox="0 0 20 20" fill="none" xmlns="http://www.w3.org/2000/svg"><path d="M19.992 15.142v-3.356c0-.5-.143-1-.357-1.429l-2.137-3.642C17.284 6.286 16.784 6 16.284 6H13.07c-.5 0-.928.428-.928.928v7.642h-.715V4.572c0-.785-.642-1.428-1.428-1.428H0v12.855h2.143c.357-1.214 1.428-2.142 2.785-2.142 1.357 0 2.5.928 2.785 2.143h5.214c.357-1.215 1.429-2.143 2.786-2.143 1.142 0 2.07.643 2.5 1.571.213.357.565.571.922.571.5 0 .929-.428.857-.857zM13.57 11V7.429h2.857L18.497 11H13.57z" fill="#933468"/><path d="M15.713 14.571c-1.214 0-2.143.928-2.143 2.143 0 1.214.928 2.142 2.143 2.142 1.214 0 2.142-.928 2.142-2.142s-.928-2.143-2.142-2.143zm0 3.143c-.572 0-1-.429-1-1 0-.572.428-1 1-1 .571 0 1 .428 1 1 0 .571-.429 1-1 1zM5 14.571c-1.215 0-2.143.928-2.143 2.143 0 1.214.928 2.142 2.143 2.142 1.214 0 2.142-.928 2.142-2.142S6.214 14.57 5 14.57zm0 3.143c-.572 0-1-.429-1-1 0-.572.428-1 1-1 .57 0 1 .428 1 1 0 .571-.43 1-1 1z" fill="#933468"/><path d="M5 17.07a.357.357 0 1 0 0-.714.357.357 0 0 0 0 .715zM15.712 17.07a.357.357 0 1 0 0-.714.357.357 0 0 0 0 .715z" fill="#933468"/></svg>