<svg width="40" height="40" viewBox="0 0 40 40" fill="none" xmlns="http://www.w3.org/2000/svg"><path d="M26.316 22.876c.074.131.074.744-.18 1.463-.252.718-1.262 1.316-2.065 1.484-.55.119-1.268.21-3.684-.79-3.105-1.284-5.098-4.428-5.253-4.63-.155-.204-1.25-1.667-1.25-3.175a3.354 3.354 0 0 1 1.077-2.563 1.52 1.52 0 0 1 1.076-.379c.129 0 .247 0 .353.013.307 0 .463.032.668.527.263.613.871 2.123.947 2.279a.628.628 0 0 1 .042.568c-.085.18-.2.343-.339.484-.155.18-.303.316-.458.508-.155.192-.303.348-.124.655a9.287 9.287 0 0 0 1.708 2.122 7.696 7.696 0 0 0 2.482 1.515.665.665 0 0 0 .742-.116 12.8 12.8 0 0 0 .824-1.092.59.59 0 0 1 .755-.229c.284.1 1.787.843 2.105.998.319.155.492.229.574.358z" fill="#0CBC2D"/><path d="M36.842 0H3.158A3.158 3.158 0 0 0 0 3.158v33.684A3.158 3.158 0 0 0 3.158 40h33.684A3.158 3.158 0 0 0 40 36.842V3.158A3.158 3.158 0 0 0 36.842 0zM20 30.526a10.439 10.439 0 0 1-5.79-1.74l-4.044 1.296 1.316-3.91A10.527 10.527 0 0 1 20 9.473a10.526 10.526 0 1 1 0 21.052z" fill="#0CBC2D"/></svg>