<svg width="19" height="20" viewBox="0 0 19 20" fill="none" xmlns="http://www.w3.org/2000/svg"><path d="M1.368 4.584a3.75 3.75 0 1 1 7.5 0 3.75 3.75 0 0 1-7.5 0zM9.701 4.584a3.75 3.75 0 1 1 7.5 0 3.75 3.75 0 0 1-7.5 0zM1.784 14.584c0-1.98 1.327-3.333 2.676-3.333h2.105c.567 0 1.056.28 1.441.625a3.607 3.607 0 0 1 .565.65l.003.005a.834.834 0 0 0 1.45-.048 3.605 3.605 0 0 1 .53-.613c.378-.347.85-.62 1.383-.62h2.13c1.38 0 2.717 1.363 2.717 3.334v3.75a.833.833 0 0 0 1.667 0v-3.75c0-2.631-1.843-5-4.384-5h-2.13c-1.118 0-1.974.567-2.51 1.058a5.13 5.13 0 0 0-.149.143 4.953 4.953 0 0 0-.158-.149c-.549-.493-1.42-1.052-2.555-1.052H4.46c-2.527 0-4.342 2.379-4.342 5v3.75a.833.833 0 0 0 1.666 0v-3.75z" fill="currentColor"/><path d="m5.848 17.672-.17-.171h7.48l-.183.188a.833.833 0 1 0 1.198 1.159l1.55-1.601a.833.833 0 0 0-.008-1.167l-1.55-1.56a.834.834 0 0 0-1.182 1.176l.137.138H5.696l.147-.146a.833.833 0 1 0-1.176-1.181l-1.574 1.567a.833.833 0 0 0-.005 1.176l1.574 1.593a.833.833 0 0 0 1.186-1.171z" fill="currentColor"/></svg>