<?xml version="1.0" encoding="utf-8"?>
<!-- Svg Vector Icons : http://www.onlinewebfonts.com/icon -->
<!DOCTYPE svg PUBLIC "-//W3C//DTD SVG 1.1//EN" "http://www.w3.org/Graphics/SVG/1.1/DTD/svg11.dtd">
<svg version="1.1" xmlns="http://www.w3.org/2000/svg" xmlns:xlink="http://www.w3.org/1999/xlink" x="0px" y="0px" viewBox="0 0 1000 1000" enable-background="new 0 0 1000 1000" xml:space="preserve">
<metadata> Svg Vector Icons : http://www.onlinewebfonts.com/icon </metadata>
<g><path d="M965.5,59h-26.7C919.9,270.1,780.4,441.3,598,487.3v25.2C780.4,558.6,919.7,730,938.6,941h26.9c13.5,0,24.5,11,24.5,24.5c0,13.5-11,24.5-24.5,24.5H941l0,0h-49l0,0h-94.4l0,0h-55.4l0,0H257.9l0,0h-55.4l0,0H108l0,0H59l0,0H34.5C21,990,10,979,10,965.5C10,952,21,941,34.5,941h26.9C80.3,730,219.6,558.6,402,512.6v-25.2C219.6,441.3,80.1,270.1,61.2,59H34.5C21,59,10,48,10,34.5S21,10,34.5,10H59l0,0h49l0,0h784l0,0h49l0,0h24.5C979,10,990,21,990,34.5S979,59,965.5,59z M711,941c-58-82.5-137.7-147-211-147s-153,64.5-211,147H711z M451,447.2v105.7C271.9,578,130.6,738.8,110.6,941h119.2C297.4,832.8,402,745,500,745c98,0,202.6,87.8,270.2,196h119.2C869.4,738.8,728,578,549,552.8V447.2c96-13.5,181-66.2,242.4-143.2H208.5C270,381,355,433.7,451,447.2z M110.5,59c7.1,72.1,29.9,138.7,64,196h650.8c34.2-57.3,56.9-123.9,64-196H110.5z"/></g>
</svg>