<svg width="56" height="56" viewBox="0 0 56 56" fill="none" xmlns="http://www.w3.org/2000/svg"><circle cx="28" cy="28" r="28" fill="#933468" fill-opacity=".05"/><path d="M28.632 16v5.053V16z" fill="#933468"/><path d="M28.632 16v5.053" stroke="#933468" stroke-width="2" stroke-linecap="round" stroke-linejoin="round"/><path fill-rule="evenodd" clip-rule="evenodd" d="M27.368 27.368 40 29.895l-3.79 2.526 3.79 3.79L36.21 40l-3.789-3.79L29.895 40l-2.527-12.632z" fill="#933468" stroke="#933468" stroke-width="2" stroke-linecap="round" stroke-linejoin="round"/><path d="m37.563 19.7-3.572 3.573 3.572-3.573z" fill="#933468"/><path d="m37.563 19.7-3.572 3.573" stroke="#933468" stroke-width="2" stroke-linecap="round" stroke-linejoin="round"/><path d="m19.7 37.563 3.572-3.572-3.572 3.572z" fill="#933468"/><path d="m19.7 37.563 3.572-3.572" stroke="#933468" stroke-width="2" stroke-linecap="round" stroke-linejoin="round"/><path d="M16 28.632h5.053H16z" fill="#933468"/><path d="M16 28.632h5.053" stroke="#933468" stroke-width="2" stroke-linecap="round" stroke-linejoin="round"/><path d="m19.7 19.7 3.573 3.572L19.7 19.7z" fill="#933468"/><path d="m19.7 19.7 3.573 3.572" stroke="#933468" stroke-width="2" stroke-linecap="round" stroke-linejoin="round"/></svg>