<svg width="60" height="60" viewBox="0 0 60 60" fill="none" xmlns="http://www.w3.org/2000/svg"><rect width="60" height="60" rx="15" fill="url(#a)"/><path d="M34.364 18a7.636 7.636 0 0 0-7.096 10.462L18.32 37.41a1.091 1.091 0 0 0 0 1.543l2.727 2.727a1.091 1.091 0 0 0 1.543 0l8.948-8.948a7.636 7.636 0 0 0 9.577-10.667 1.091 1.091 0 0 0-1.735-.26L36 25.185 34.816 24l3.38-3.38a1.091 1.091 0 0 0-.261-1.735A7.608 7.608 0 0 0 34.364 18z" fill="#fff"/><circle cx="30" cy="30" r="24.5" stroke="#fff" stroke-opacity=".3"/><defs><linearGradient id="a" x1="-10.5" y1="57.972" x2="66.86" y2="23.748" gradientUnits="userSpaceOnUse"><stop stop-color="#D3BEFF"/><stop offset="1" stop-color="#C9DBFF"/></linearGradient></defs></svg>