<svg width="209" height="456" viewBox="0 0 209 456" fill="none" xmlns="http://www.w3.org/2000/svg"><g clip-path="url(#a)"><path d="M158 18.33h-7.22c-.55 0-1-.45-1-1s.45-1 1-1H158c.55 0 1 .45 1 1s-.45 1-1 1zm-12.45 0h-7.22c-.55 0-1-.45-1-1s.45-1 1-1h7.22c.55 0 1 .45 1 1s-.45 1-1 1zm-13.45 0h-7.22c-.55 0-1-.45-1-1s.45-1 1-1h7.22c.55 0 1 .45 1 1s-.45 1-1 1zm-13.45 0h-7.22c-.55 0-1-.45-1-1s.45-1 1-1h7.22c.55 0 1 .45 1 1s-.45 1-1 1zm-13.45 0h-7.22c-.55 0-1-.45-1-1s.45-1 1-1h7.22c.55 0 1 .45 1 1s-.44 1-1 1zm-12.45 0h-8.22c-.55 0-1-.45-1-1s.45-1 1-1h8.22c.55 0 1 .45 1 1s-.44 1-1 1zm-13.44 0h-7.22c-.55 0-1-.45-1-1s.45-1 1-1h7.22c.55 0 1 .45 1 1s-.45 1-1 1z" fill="#FFA6B0"/><path d="M116.89 169.42c-1.22-13.17-2.48-26.8-2.07-40.83.41-13.99-3.13-23.89-4.29-27.15l-.05-.14c-2.12-5.92-5.77-9.62-10.05-10.17-1.44-.33-3.24-.64-5.15-.96-2.21-.38-4.72-.81-7.25-1.37.73-5.46.99-14.79.69-25.3-.24-8.05-.89-16.33-1.95-24.62-1.09-8.62-4.11-14.61-9.2-18.26-4.27-3.47-9.84-5.06-17.01-4.84-7.21-.22-12.79 1.38-17.02 4.81-5.66 4.06-8.15 12.16-9.24 18.24-1.36 7.5-1.71 16.3-1.96 24.67-.15 5.15-.36 17.6.71 25.31-2.5.55-4.97.98-7.16 1.35-1.91.33-3.71.64-5.15.96-4.27.55-7.93 4.25-10.04 10.17l-.05.13c-1.16 3.25-4.71 13.15-4.3 27.16.41 14.04-.85 27.67-2.07 40.84l-.13 1.39C.75 181.62-.55 191.2.2 222.16c.02.92.02 1.83.01 2.7-.01 1.64-.01 3.19.14 4.62.01.05.01.1.02.16-.01.21 0 .43.01.73.4 2.75.48 5.16.55 7.28.11 3.13.2 5.84 1.2 8.7 3.76 10.81 10.56 17.63 13.82 18.22 1.14.2 1.74-.3 2.01-.62 1.5-1.82.39-3.89-1.02-6.51-.56-1.05-1.2-2.24-1.79-3.61-2.01-4.65-2.37-7.41-2.48-9.68.57.88 1.27 2.32 2.32 5.43.85 2.53 2.54 3.08 3.73 2.79.89-.22 1.2-.84 1.12-1.35-.3-2.04-.75-4.19-1.23-6.47-.16-.75-.31-1.5-.47-2.26-1.57-7.71-3.41-10.1-4.89-12.03-.43-.55-.8-1.04-1.11-1.6-.06-1.05 0-2.33.2-3.92 1.24-10.11 2.97-17.84 4.49-24.67 1.85-8.26 3.45-15.4 3.89-24.71.16-.56.26-1.08.33-1.61.21-1.62.48-3.69.78-6.07 1.15-9.01 2.98-23.31 4.71-34.93.09.26.19.52.29.78.75 1.92 2.71 6.07 3.11 6.93l.39 3.31c1.27 10.78 2.72 23 1.93 30.22-.4 3.69-1.94 7.36-3.72 11.62-3 7.16-6.74 16.08-7.73 30.45-.27 2.41-.27 4.81-.26 6.75v.96c-.03 21.74 4.91 42.04 8.51 56.86 1.68 6.92 3.01 12.38 3.38 16.12.18 1.82.36 3.55.54 5.2.77 7.24 1.38 12.95.75 19.08-.73 7.22-1.64 16.2-1.47 28.49.12 9.04 2.34 23.33 4.48 37.16 2.14 13.82 4.35 28.1 4.24 36.02-.03 2.18-.19 8.48-.55 11.38-.61 4.99-1.2 8.89-1.91 12.66-.31 1.64-.02 3.07.88 4.23 1.39 1.81 4.13 2.85 8.38 3.16.37.03.82.09 1.33.16 2.43.33 6.1.83 8.34-1.08 1.14-.97 1.74-2.42 1.79-4.3.03-1.13-.47-2.66-1.15-4.79-.86-2.67-1.93-5.98-2.25-9.55-.29-3.28-.66-6.47-1-9.29-.33-2.79-.62-5.19-.7-6.79-.41-7.57.96-19.73 2.41-32.6 1.18-10.46 2.4-21.27 2.77-30.53.43-10.85-.76-18.81-1.71-25.21-.48-3.24-.9-6.04-1.08-8.79-.19-3.01.22-5.67.69-8.75.6-3.93 1.28-8.38 1.02-15.01-.75-19.06.71-40.33 1.88-57.43l.3-4.4H60.66l.3 4.4c1.18 17.1 2.64 38.38 1.88 57.43-.26 6.63.42 11.08 1.02 15.01.47 3.08.88 5.74.69 8.75-.17 2.75-.59 5.55-1.08 8.79-.96 6.4-2.15 14.36-1.71 25.21.37 9.26 1.59 20.08 2.77 30.54 1.45 12.87 2.82 25.02 2.41 32.59-.09 1.59-.37 4-.7 6.79-.33 2.82-.71 6.01-1 9.29-.31 3.57-1.39 6.89-2.25 9.55-.69 2.12-1.18 3.66-1.15 4.78.05 1.88.65 3.33 1.79 4.3 1.28 1.09 3.02 1.39 4.73 1.39 1.29 0 2.56-.17 3.61-.32.51-.07.96-.13 1.33-.16 4.24-.32 6.98-1.35 8.37-3.16.89-1.16 1.19-2.58.88-4.23-.7-3.74-1.29-7.64-1.91-12.66-.36-2.9-.52-9.19-.55-11.37-.11-7.92 2.1-22.21 4.24-36.03s4.35-28.11 4.48-37.15c.17-12.29-.74-21.27-1.47-28.49-.62-6.13-.01-11.85.75-19.09.18-1.65.36-3.38.54-5.2.37-3.74 1.7-9.2 3.38-16.12 3.61-14.82 8.54-35.12 8.51-56.86v-.97c.01-1.93.01-4.33-.26-6.69-1-14.42-4.74-23.33-7.74-30.5-1.78-4.25-3.32-7.93-3.72-11.62-.78-7.2.67-19.49 1.95-30.34l.37-3.19c.41-.86 2.36-5.01 3.11-6.93.1-.26.2-.52.29-.78 1.73 11.62 3.56 25.92 4.71 34.93.3 2.39.57 4.45.78 6.07.07.53.18 1.05.33 1.62.44 9.31 2.04 16.45 3.89 24.7 1.53 6.82 3.26 14.56 4.49 24.67.19 1.58.26 2.87.2 3.92-.31.56-.68 1.04-1.11 1.6-1.48 1.92-3.32 4.31-4.89 12.03-.16.79-.32 1.57-.48 2.35-.47 2.25-.91 4.37-1.21 6.38-.08.52.24 1.15 1.12 1.36 1.19.29 2.88-.27 3.73-2.79 1.05-3.11 1.75-4.55 2.32-5.44-.11 2.27-.47 5.03-2.48 9.68-.59 1.36-1.23 2.56-1.79 3.61-1.41 2.62-2.52 4.69-1.01 6.51.26.32.87.83 2.01.62 3.26-.58 10.06-7.41 13.82-18.22 1-2.86 1.09-5.57 1.2-8.7.07-2.12.16-4.53.56-7.38.01-.21.01-.42 0-.63.01-.05.02-.1.02-.16.16-1.42.15-2.96.14-4.6 0-.88-.01-1.8.01-2.73.75-30.95-.55-40.53-3.95-51.34l-.04-1.37zM51.74 71.68a.968.968 0 0 0-.19-.22c-2.02-1.76-3.39-3.58-4.07-5.4-.55-1.46-1.08-2.74-1.55-3.87-1.67-4.02-2.77-6.68-2.77-12.25 0-6.32 2.56-12.7 6.61-16.59 1.21-.56 9.33 1.29 17.28 5.31.4.2.8.41 1.18.61.15.08.28.16.43.24.23.13.47.25.69.38.14.08.27.16.41.24.22.13.44.25.65.38l.33.21c.22.14.45.28.66.42.07.05.14.1.22.14.25.16.49.32.72.49.03.02.05.04.08.06 2.94 2.06 4.82 4.14 5.47 6.07.02.05.03.09.04.14.04.13.07.26.1.38.03.51.04 1.02.04 1.53 0 5.59-1.11 8.25-2.78 12.29-.47 1.12-.99 2.39-1.54 3.83-2.21 5.9-10.81 10.11-13.11 10.18-1.51-.04-5.6-1.8-8.9-4.57zm-17.39-8.12c.24-8.29.59-17.01 1.92-24.37 1.03-5.72 3.33-13.3 8.48-17.01 3.66-2.97 8.44-4.41 14.63-4.41.39 0 .78.01 1.18.02 6.72-.19 11.87 1.24 15.8 4.43 4.66 3.35 7.42 8.88 8.43 16.92 1.05 8.22 1.7 16.44 1.93 24.42.29 10.28.05 19.38-.64 24.76-8.29-2.08-12.66-5.01-13.72-9.19-.29-1.14-.59-3.27-.91-6.51 2.07-1.86 3.5-3.83 4.25-5.85.53-1.42 1.03-2.62 1.51-3.79 1.7-4.1 2.92-7.06 2.92-13.04v-.81c-.01-.4-.06-.76-.13-1.06-1.41-7.05-14.56-12.91-22.11-15.27-5.23-1.63-8.4-1.95-9.43-.95-4.5 4.32-7.3 11.25-7.3 18.09 0 5.97 1.23 8.92 2.92 13.01.49 1.17.99 2.38 1.52 3.81.1.25.2.51.32.76.04.09.09.18.14.28l.24.48c.06.11.13.22.19.32.08.14.17.29.26.43.07.12.16.23.23.34.09.13.18.27.28.4.09.12.18.24.28.36.1.13.19.26.3.38.1.12.21.24.31.36.11.12.21.25.33.37.11.12.22.24.34.35.12.13.24.25.36.38.12.11.24.23.36.34.09.08.17.16.25.24-.31 3.18-.62 5.39-.91 6.56-1.26 4.99-7.42 7.61-13.88 9.23-.7-5.35-.95-14.47-.65-24.78zm84.62 158.56c-.02.95-.02 1.88-.02 2.78.01 1.57.01 3.06-.14 4.43 0 .01-.02.11-.02.12-.01.06-.01.13-.01.19.01.18.01.37.01.46-.41 2.86-.5 5.32-.57 7.5-.1 2.97-.19 5.54-1.09 8.11-3.96 11.38-11.03 17.08-12.43 16.93-.55-.76.07-1.99 1.27-4.24.58-1.09 1.24-2.32 1.87-3.76 2.51-5.82 2.6-9.01 2.68-11.57.02-.72.04-1.4.11-2.06a.992.992 0 0 0-.69-1.06c-.45-.14-.95.05-1.18.46-.37.66-.67 1.01-1.02 1.43-.88 1.04-1.79 2.11-3.48 7.13-.21.63-.5 1.1-.81 1.33.28-1.66.64-3.4 1.02-5.24.16-.78.33-1.56.49-2.36 1.48-7.26 3.16-9.45 4.52-11.2.51-.66.99-1.28 1.4-2.07.06-.12.1-.25.11-.38.1-1.24.04-2.68-.19-4.52-1.25-10.21-2.99-18-4.53-24.87-1.83-8.2-3.42-15.28-3.85-24.47 0-.08-.02-.15-.04-.23-.15-.51-.24-.97-.3-1.44-.21-1.62-.48-3.68-.78-6.07-1.32-10.36-3.54-27.69-5.48-39.94a1 1 0 0 0-.99-.84h-.01c-.5 0-.91.37-.98.86-.26 1.82-.73 3.6-1.39 5.31-.8 2.03-3.11 6.9-3.13 6.95a.91.91 0 0 0-.09.31l-.39 3.35c-1.29 10.95-2.76 23.36-1.95 30.79.43 3.98 2.02 7.78 3.86 12.17 2.94 7.03 6.61 15.77 7.59 29.91.26 2.28.25 4.52.25 6.5v.98c.03 21.5-4.88 41.66-8.46 56.39-1.7 7-3.05 12.52-3.43 16.4-.18 1.82-.36 3.54-.54 5.18-.78 7.35-1.4 13.16-.76 19.5.72 7.17 1.63 16.08 1.46 28.26-.12 8.9-2.33 23.12-4.46 36.87-2.25 14.54-4.38 28.28-4.27 36.36 0 .08.12 7.99.56 11.59.62 5.06 1.22 9 1.93 12.78.2 1.08.04 1.94-.5 2.64-1.01 1.32-3.35 2.12-6.94 2.39-.4.03-.89.1-1.45.17-2.08.28-5.21.71-6.77-.62-.7-.59-1.05-1.52-1.09-2.83-.02-.79.48-2.33 1.06-4.12.89-2.76 2-6.2 2.34-9.99.28-3.24.66-6.42.99-9.23.33-2.82.62-5.25.71-6.91.42-7.73-.96-19.97-2.42-32.92-1.18-10.43-2.39-21.21-2.76-30.4-.42-10.66.7-18.19 1.69-24.84.47-3.15.92-6.13 1.09-8.96.2-3.23-.22-5.98-.71-9.18-.59-3.84-1.25-8.19-1-14.63.76-19.16-.71-40.5-1.89-57.65l-.37-5.46c-.06-.54-.54-.94-1.09-.89l-.96.09-.96-.09a1 1 0 0 0-.74.25c-.21.17-.33.44-.35.71l-.37 5.39c-1.18 17.15-2.64 38.48-1.89 57.65.25 6.44-.41 10.79-1 14.63-.49 3.19-.91 5.95-.71 9.18.18 2.83.62 5.81 1.09 8.96.99 6.64 2.12 14.17 1.69 24.83-.37 9.18-1.58 19.96-2.76 30.38-1.46 12.96-2.84 25.2-2.42 32.93.09 1.66.38 4.09.71 6.91.33 2.8.71 5.98.99 9.23.33 3.79 1.44 7.23 2.34 9.99.58 1.79 1.08 3.33 1.06 4.12-.03 1.31-.39 2.23-1.09 2.82-1.56 1.33-4.7.9-6.77.62-.56-.08-1.05-.14-1.45-.17-3.59-.27-5.93-1.07-6.94-2.39-.54-.7-.7-1.56-.5-2.64.72-3.81 1.31-7.75 1.93-12.78.44-3.6.56-11.51.56-11.59.11-8.09-2.02-21.82-4.27-36.36-2.13-13.75-4.33-27.98-4.46-36.88-.17-12.17.73-21.09 1.46-28.26.64-6.33.03-12.14-.76-19.5-.18-1.65-.36-3.37-.54-5.19-.38-3.88-1.73-9.4-3.43-16.4-3.58-14.72-8.49-34.89-8.46-56.39v-.97c-.01-1.98-.01-4.23.25-6.56.98-14.09 4.64-22.83 7.59-29.86 1.84-4.4 3.43-8.19 3.86-12.17.81-7.44-.65-19.79-1.94-30.67l-.41-3.47a.85.85 0 0 0-.09-.31c-.02-.05-2.33-4.92-3.13-6.95-.66-1.7-1.13-3.48-1.39-5.31a1 1 0 0 0-.98-.86h-.01c-.49 0-.91.36-.99.84-1.94 12.25-4.16 29.59-5.48 39.94-.3 2.38-.57 4.45-.78 6.07-.06.47-.16.93-.3 1.44-.02.07-.03.15-.04.23-.43 9.19-2.01 16.28-3.85 24.48-1.54 6.87-3.28 14.65-4.53 24.86-.23 1.85-.29 3.29-.19 4.52.01.13.05.26.11.38.41.79.89 1.41 1.4 2.07 1.35 1.76 3.04 3.95 4.51 11.2.16.76.31 1.52.47 2.27.39 1.86.76 3.63 1.04 5.32-.32-.23-.6-.7-.81-1.33-1.69-5.01-2.6-6.09-3.48-7.12-.35-.41-.66-.77-1.02-1.43a.997.997 0 0 0-1.18-.46c-.45.15-.74.59-.69 1.06.07.66.09 1.34.11 2.06.08 2.56.17 5.75 2.68 11.57.62 1.44 1.28 2.67 1.87 3.76 1.21 2.25 1.82 3.48 1.28 4.24-1.37.16-8.48-5.55-12.43-16.93-.9-2.58-.99-5.14-1.09-8.11-.07-2.17-.16-4.64-.56-7.4a5.23 5.23 0 0 1 0-.56c0-.06 0-.12-.01-.18 0-.01-.03-.17-.03-.18-.15-1.31-.14-2.81-.13-4.39 0-.9.01-1.82-.02-2.76-.75-30.77.53-40.18 3.89-50.8.02-.07.04-.14.04-.21l.14-1.49c1.23-13.24 2.49-26.93 2.08-41.09-.39-13.63 3.05-23.26 4.19-26.43l.05-.13c1.83-5.13 4.99-8.44 8.45-8.86.03 0 .07-.01.1-.02 1.4-.32 3.19-.63 5.09-.95 2.53-.43 5.31-.91 8.07-1.54.03 0 .07 0 .1-.01 6.25-1.45 14.76-4.17 16.48-10.95.28-1.08.55-2.92.82-5.44 3.28 2.41 7.04 4.01 8.95 4.06 1.76-.05 5.5-1.56 8.88-4.08.27 2.54.55 4.37.82 5.45 2.2 8.68 15.14 10.9 24.59 12.52 1.9.33 3.69.63 5.09.95.03.01.07.01.1.02 3.46.42 6.62 3.73 8.46 8.86l.05.14c1.13 3.17 4.57 12.8 4.18 26.42-.41 14.16.85 27.84 2.08 41.07l.14 1.51c.01.07.02.14.04.21 3.44 10.66 4.72 20.07 3.97 50.83z" fill="#AFAFAF"/><path d="M174.13 454.47c-.26 0-.51-.1-.71-.29l-6.88-6.88a.996.996 0 1 1 1.41-1.41l6.88 6.88c.39.39.39 1.02 0 1.41-.19.2-.44.29-.7.29z" fill="#FFA6B0"/><path d="M174.13 454.47c-.26 0-.51-.1-.71-.29a.996.996 0 0 1 0-1.41l6.88-6.88a.996.996 0 1 1 1.41 1.41l-6.88 6.88c-.19.2-.44.29-.7.29zM167.26 9.17c-.26 0-.51-.1-.71-.29a.996.996 0 0 1 0-1.41l6.88-6.88A.996.996 0 1 1 174.84 2l-6.88 6.88c-.19.19-.45.29-.7.29z" fill="#FFA6B0"/><path d="M181.01 9.17c-.26 0-.51-.1-.71-.29L173.43 2a.996.996 0 1 1 1.41-1.41l6.88 6.88c.39.39.39 1.02 0 1.41-.2.19-.46.29-.71.29z" fill="#FFA6B0"/><path d="M174.13 453.669c-.55 0-1-.45-1-1V1.609c0-.55.45-1 1-1s1 .45 1 1v451.06c0 .55-.44 1-1 1zM77.55 455.171c-.26 0-.51-.1-.71-.29l-6.87-6.88a.996.996 0 1 1 1.41-1.41l6.88 6.88c.39.39.39 1.02 0 1.41-.2.19-.45.29-.71.29z" fill="#FFA6B0"/><path d="M77.55 455.171c-.26 0-.51-.1-.71-.29a.996.996 0 0 1 0-1.41l6.88-6.88a.996.996 0 1 1 1.41 1.41l-6.88 6.88c-.19.19-.44.29-.7.29zM70.68 245.371c-.26 0-.51-.1-.71-.29a.996.996 0 0 1 0-1.41l6.88-6.88a.996.996 0 1 1 1.41 1.41l-6.88 6.88a.96.96 0 0 1-.7.29z" fill="#FFA6B0"/><path d="M84.43 245.371c-.26 0-.51-.1-.71-.29l-6.88-6.88a.996.996 0 1 1 1.41-1.41l6.88 6.88c.39.39.39 1.02 0 1.41a.96.96 0 0 1-.7.29z" fill="#FFA6B0"/><path d="M77.55 455.17c-.55 0-1-.45-1-1V237.5c0-.55.45-1 1-1s1 .45 1 1v216.67c0 .55-.45 1-1 1zM106.04 126.551h-5.93c-.55 0-1 .45-1 1s.45 1 1 1h5.93c.55 0 1-.45 1-1 0-.56-.44-1-1-1zM142.75 126.551h-6.26c-.55 0-1 .45-1 1s.45 1 1 1h6.26c.55 0 1-.45 1-1 0-.56-.44-1-1-1zM155.61 126.551h-7.26c-.55 0-1 .45-1 1s.45 1 1 1h7.26c.55 0 1-.45 1-1 0-.56-.45-1-1-1zM130.9 126.551h-7.26c-.55 0-1 .45-1 1s.45 1 1 1h7.26c.55 0 1-.45 1-1 0-.56-.45-1-1-1zM118.04 126.551h-6.06c-.55 0-1 .45-1 1s.45 1 1 1h6.06c.55 0 1-.45 1-1 0-.56-.44-1-1-1zM98.52 179.551h-5.93c-.55 0-1 .45-1 1s.45 1 1 1h5.93c.55 0 1-.45 1-1 0-.56-.45-1-1-1zM134.23 179.551h-6.58c-.55 0-1 .45-1 1s.45 1 1 1h6.58c.55 0 1-.45 1-1 0-.56-.45-1-1-1zM169.8 179.551h-6.58c-.55 0-1 .45-1 1s.45 1 1 1h6.58c.55 0 1-.45 1-1 0-.56-.45-1-1-1zM146.09 179.551h-6.58c-.55 0-1 .45-1 1s.45 1 1 1h6.58c.55 0 1-.45 1-1 0-.56-.45-1-1-1zM157.94 179.551h-6.58c-.55 0-1 .45-1 1s.45 1 1 1h6.58c.55 0 1-.45 1-1 0-.56-.45-1-1-1zM122.38 179.551h-6.39c-.55 0-1 .45-1 1s.45 1 1 1h6.39c.55 0 1-.45 1-1 0-.56-.45-1-1-1zM110.52 179.551h-6.39c-.55 0-1 .45-1 1s.45 1 1 1h6.39c.55 0 1-.45 1-1 0-.56-.45-1-1-1zM181.65 179.551h-6.58c-.55 0-1 .45-1 1s.45 1 1 1h6.58c.55 0 1-.45 1-1 0-.56-.44-1-1-1zM109.28 217.17h-6.11c-.57 0-1.03.45-1.03 1s.46 1 1.03 1h6.11c.57 0 1.03-.45 1.03-1s-.46-1-1.03-1zM146.08 217.17h-6.45c-.57 0-1.03.45-1.03 1s.46 1 1.03 1h6.45c.57 0 1.03-.45 1.03-1s-.46-1-1.03-1zM182.72 217.17h-6.45c-.57 0-1.03.45-1.03 1s.46 1 1.03 1h6.45c.57 0 1.03-.45 1.03-1s-.46-1-1.03-1zM158.29 217.17h-6.45c-.57 0-1.03.45-1.03 1s.46 1 1.03 1h6.45c.57 0 1.03-.45 1.03-1s-.46-1-1.03-1zM170.51 217.17h-6.45c-.57 0-1.03.45-1.03 1s.46 1 1.03 1h6.45c.57 0 1.03-.45 1.03-1s-.46-1-1.03-1zM133.86 217.17h-6.45c-.57 0-1.03.45-1.03 1s.46 1 1.03 1h6.45c.57 0 1.03-.45 1.03-1s-.46-1-1.03-1zM121.64 217.17H115.38c-.57 0-1.03.45-1.03 1s.46 1 1.03 1H121.64c.57 0 1.03-.45 1.03-1 .01-.55-.46-1-1.03-1zM67.61 235.371H62.5c-.57 0-1.03.45-1.03 1s.46 1 1.03 1h5.11c.57 0 1.03-.45 1.03-1s-.46-1-1.03-1zM104.4 235.371h-6.44c-.57 0-1.03.45-1.03 1s.46 1 1.03 1h6.45c.57 0 1.03-.45 1.03-1s-.47-1-1.04-1zM141.05 235.371h-6.45c-.57 0-1.03.45-1.03 1s.46 1 1.03 1h6.45c.57 0 1.03-.45 1.03-1s-.46-1-1.03-1zM116.62 235.371h-6.45c-.57 0-1.03.45-1.03 1s.46 1 1.03 1h6.45c.57 0 1.03-.45 1.03-1s-.46-1-1.03-1zM128.84 235.371h-6.45c-.57 0-1.03.45-1.03 1s.46 1 1.03 1h6.45c.57 0 1.03-.45 1.03-1s-.46-1-1.03-1zM92.19 235.371h-6.45c-.57 0-1.03.45-1.03 1s.46 1 1.03 1h6.45c.57 0 1.03-.45 1.03-1s-.46-1-1.03-1z" fill="#FFA6B0"/><path d="M79.97 235.371H73.71c-.57 0-1.03.45-1.03 1s.46 1 1.03 1H79.97c.57 0 1.03-.45 1.03-1s-.46-1-1.03-1zM153.27 235.371h-6.45c-.57 0-1.03.45-1.03 1s.46 1 1.03 1h6.45c.57 0 1.03-.45 1.03-1s-.46-1-1.03-1zM85.14 453h-5.11c-.57 0-1.03.45-1.03 1s.46 1 1.03 1h5.11c.57 0 1.03-.45 1.03-1s-.46-1-1.03-1zM121.93 453h-6.44c-.57 0-1.03.45-1.03 1s.46 1 1.03 1h6.45c.57 0 1.03-.45 1.03-1s-.47-1-1.04-1zM158.58 453h-6.45c-.57 0-1.03.45-1.03 1s.46 1 1.03 1h6.45c.57 0 1.03-.45 1.03-1s-.46-1-1.03-1zM134.15 453h-6.45c-.57 0-1.03.45-1.03 1s.46 1 1.03 1h6.45c.57 0 1.03-.45 1.03-1s-.46-1-1.03-1zM146.37 453h-6.45c-.57 0-1.03.45-1.03 1s.46 1 1.03 1h6.45c.57 0 1.03-.45 1.03-1s-.46-1-1.03-1zM109.72 453h-6.45c-.57 0-1.03.45-1.03 1s.46 1 1.03 1h6.45c.57 0 1.03-.45 1.03-1s-.46-1-1.03-1zM97.5 453H91.24c-.57 0-1.03.45-1.03 1s.46 1 1.03 1H97.5c.57 0 1.03-.45 1.03-1s-.46-1-1.03-1zM170.8 453h-6.45c-.57 0-1.03.45-1.03 1s.46 1 1.03 1h6.45c.57 0 1.03-.45 1.03-1s-.46-1-1.03-1zM94.81 128.551H26.85c-.55 0-1-.45-1-1s.45-1 1-1h67.96c.55 0 1 .45 1 1s-.45 1-1 1zM88.51 181.551H32.43c-.55 0-1-.45-1-1s.45-1 1-1h56.08c.55 0 1 .45 1 1s-.45 1-1 1zM97.63 219.17h-75c-.55 0-1-.45-1-1s.45-1 1-1h75c.55 0 1 .45 1 1s-.44 1-1 1zM190.31 27.21c0 8.52-6.91 15.43-15.43 15.43s-15.43-6.91-15.43-15.43 6.91-15.43 15.43-15.43c8.53 0 15.43 6.9 15.43 15.43z" fill="#FFA6B0"/><path d="M173.57 32.66v-9.33c-1.74 1.33-2.91 2-3.51 2-.29 0-.54-.11-.76-.34-.22-.23-.33-.49-.33-.8 0-.35.11-.6.33-.77.22-.16.6-.38 1.16-.64.83-.39 1.49-.8 1.98-1.23.5-.43.94-.91 1.32-1.45.38-.53.63-.86.75-.98s.34-.18.66-.18c.36 0 .65.14.87.42.22.28.33.67.33 1.16v11.74c0 1.37-.47 2.06-1.4 2.06-.42 0-.75-.14-1-.42-.27-.28-.4-.69-.4-1.24z" fill="#fff"/><path d="M188.65 118.549c0 8.52-6.91 15.43-15.43 15.43s-15.43-6.91-15.43-15.43 6.91-15.43 15.43-15.43 15.43 6.9 15.43 15.43z" fill="#FFA6B0"/><path d="M172.17 122.319c-.16.18-.33.41-.5.67h5.35c.53 0 .94.11 1.22.33.28.22.42.52.42.89 0 .33-.11.62-.33.85-.22.23-.56.35-1.01.35h-7.55c-.51 0-.91-.14-1.2-.43-.29-.28-.43-.62-.43-1 0-.25.09-.57.28-.98.18-.41.39-.73.6-.96.91-.94 1.73-1.75 2.46-2.43.73-.67 1.25-1.12 1.57-1.33.56-.4 1.03-.79 1.4-1.19.37-.4.66-.81.85-1.23.2-.42.29-.83.29-1.24 0-.44-.1-.83-.31-1.17-.21-.35-.49-.61-.85-.81-.36-.19-.75-.29-1.17-.29-.9 0-1.6.39-2.11 1.18-.07.1-.18.38-.34.84-.16.46-.34.81-.54 1.06s-.5.37-.89.37c-.34 0-.63-.11-.85-.34-.23-.23-.34-.53-.34-.92 0-.47.11-.96.32-1.48.21-.51.53-.98.95-1.39.42-.42.95-.75 1.6-1.01.65-.26 1.4-.38 2.27-.38 1.05 0 1.94.16 2.68.49.48.22.9.52 1.26.9s.64.83.85 1.33c.2.5.3 1.02.3 1.56 0 .85-.21 1.62-.63 2.31-.42.69-.85 1.24-1.29 1.63-.44.39-1.17 1.01-2.2 1.85-1.04.85-1.75 1.5-2.13 1.97z" fill="#fff"/><path d="M189.61 171.45c0 8.52-6.91 15.43-15.43 15.43s-15.43-6.91-15.43-15.43 6.91-15.43 15.43-15.43 15.43 6.91 15.43 15.43z" fill="#FFA6B0"/><path d="M173.7 169.229c.63 0 1.17-.18 1.63-.55.45-.37.68-.9.68-1.59 0-.53-.18-.98-.54-1.36-.36-.38-.85-.57-1.47-.57-.42 0-.76.06-1.03.17-.27.12-.48.27-.64.46-.16.19-.31.44-.45.74s-.27.58-.38.85a.73.73 0 0 1-.37.34c-.18.08-.38.12-.62.12-.27 0-.52-.11-.75-.33-.23-.22-.34-.52-.34-.89 0-.36.11-.73.32-1.12.22-.39.53-.77.94-1.12.41-.36.93-.64 1.54-.86.62-.22 1.3-.32 2.06-.32.66 0 1.27.09 1.81.27a4.3 4.3 0 0 1 1.43.78c.4.34.71.74.91 1.19.21.45.31.94.31 1.46 0 .68-.15 1.27-.45 1.76-.3.49-.72.97-1.28 1.43.53.29.98.62 1.35.98.37.37.64.78.83 1.23.18.45.28.93.28 1.45 0 .62-.13 1.22-.37 1.8-.25.58-.62 1.1-1.1 1.55-.49.46-1.06.81-1.73 1.07-.67.26-1.4.38-2.21.38-.82 0-1.56-.15-2.2-.44-.64-.29-1.18-.66-1.6-1.1-.42-.44-.74-.9-.95-1.37-.22-.47-.32-.86-.32-1.17 0-.4.13-.72.38-.96.26-.24.58-.36.96-.36.19 0 .38.06.55.17.18.11.29.25.35.4.36.95.74 1.66 1.14 2.12.41.46.98.69 1.72.69.42 0 .83-.1 1.23-.31.39-.21.72-.52.97-.93.26-.41.38-.89.38-1.43 0-.8-.22-1.43-.66-1.88-.44-.45-1.05-.68-1.83-.68-.14 0-.35.01-.64.04-.29.03-.47.04-.55.04-.38 0-.67-.09-.87-.28-.21-.19-.31-.45-.31-.78s.12-.59.37-.79c.25-.2.61-.3 1.1-.3h.42z" fill="#fff"/><path d="M188.65 208.17c0 8.52-6.91 15.43-15.43 15.43s-15.43-6.91-15.43-15.43 6.91-15.43 15.43-15.43 15.43 6.91 15.43 15.43z" fill="#FFA6B0"/><path d="M173.33 213.721v-1.91h-5.15c-.65 0-1.14-.15-1.46-.44-.33-.29-.49-.69-.49-1.2 0-.13.02-.26.07-.4.05-.13.12-.27.22-.42.1-.15.19-.29.3-.43.1-.14.23-.3.38-.5l5.43-7.27c.36-.48.65-.83.88-1.04.23-.21.5-.32.83-.32 1.04 0 1.56.59 1.56 1.78v7.94h.44c.53 0 .95.07 1.27.22.32.14.48.46.48.94 0 .4-.13.69-.39.87-.26.18-.65.27-1.17.27h-.63v1.91c0 .53-.12.92-.35 1.17-.23.26-.54.38-.93.38-.38 0-.69-.13-.93-.4-.24-.24-.36-.63-.36-1.15zm-4.41-4.2h4.41v-5.96l-4.41 5.96z" fill="#fff"/><path d="M188.65 241.17c0 8.52-6.91 15.43-15.43 15.43s-15.43-6.91-15.43-15.43 6.91-15.43 15.43-15.43 15.43 6.91 15.43 15.43z" fill="#FFA6B0"/><path d="M175.7 235.531h-4.87l-.58 3.32c.97-.52 1.87-.78 2.69-.78.66 0 1.27.12 1.84.37.57.25 1.07.59 1.5 1.02.43.43.77.95 1.02 1.54.25.59.37 1.23.37 1.92 0 .99-.22 1.89-.67 2.71-.44.81-1.09 1.46-1.92 1.94-.84.48-1.8.72-2.9.72-1.22 0-2.22-.22-2.98-.68-.76-.45-1.3-.97-1.62-1.55-.32-.58-.48-1.1-.48-1.53 0-.27.11-.52.33-.76.22-.24.5-.36.84-.36.57 0 1 .33 1.28 1 .27.61.64 1.08 1.11 1.42.46.34.98.51 1.56.51.53 0 .99-.14 1.38-.41.4-.27.7-.65.92-1.13.21-.48.32-1.02.32-1.63 0-.66-.12-1.22-.35-1.68-.23-.46-.54-.81-.93-1.04a2.5 2.5 0 0 0-1.3-.34c-.59 0-1.01.07-1.26.22-.25.14-.62.39-1.09.75-.48.36-.87.54-1.17.54-.34 0-.63-.12-.89-.36s-.39-.52-.39-.83c0-.03.04-.27.11-.7l.86-4.91c.1-.59.27-1.01.53-1.28s.68-.4 1.27-.4h5.41c1.07 0 1.6.41 1.6 1.22 0 .36-.13.64-.39.86-.26.2-.64.31-1.15.31z" fill="#fff"/></g><defs><clipPath id="a"><path fill="#fff" d="M0 0h209v456H0z"/></clipPath></defs></svg>