<svg width="61" height="61" viewBox="0 0 61 61" fill="none" xmlns="http://www.w3.org/2000/svg">
<path d="M60.8959 41.6829L55.0866 19.0334C54.8669 18.1772 54.3271 17.4577 53.5662 17.0074C52.8054 16.5571 51.9147 16.43 51.0587 16.6499L48.2558 17.3688V8.14909C48.2558 6.32421 46.7712 4.8396 44.9463 4.8396H3.30949C1.48461 4.8396 0 6.32433 0 8.14909V31.5317C0 33.3565 1.48461 34.8411 3.30949 34.8411H9.32335L14.1532 53.6717C14.3729 54.5279 14.9128 55.2474 15.6735 55.6975C16.1907 56.0036 16.7676 56.1603 17.3532 56.1603C17.6291 56.1603 17.907 56.1255 18.1811 56.0552L58.5123 45.7108C60.2799 45.2575 61.3491 43.4505 60.8959 41.6829ZM3.30949 32.4109C2.82482 32.411 2.43035 32.0165 2.43035 31.5319V8.14909C2.43035 7.66442 2.82482 7.26995 3.30949 7.26995H44.9462C45.4311 7.26995 45.8253 7.66442 45.8253 8.14909V31.5317C45.8253 32.0165 45.4308 32.4108 44.9462 32.4108H3.30949V32.4109ZM14.5618 45.4836L11.8322 34.8412H44.9462C46.771 34.8412 48.2556 33.3566 48.2556 31.5319V19.8776L51.6625 19.0039C51.8899 18.9454 52.1264 18.9792 52.3285 19.0988C52.5307 19.2184 52.6741 19.4097 52.7324 19.6371L56.5964 34.7023L14.5618 45.4836ZM15.6699 49.8028L15.1658 47.8377L57.2004 37.0563L57.7044 39.0214L15.6699 49.8028ZM57.9085 43.3567L17.5773 53.7011C17.35 53.7595 17.1132 53.7257 16.9112 53.6061C16.7091 53.4865 16.5655 53.2954 16.5073 53.068L16.2737 52.1569L58.3083 41.3755L58.5419 42.2865C58.6622 42.7561 58.3781 43.2361 57.9085 43.3567Z" fill="#E6ACB3"/>
<path d="M41.7485 12.7174H40.9849C40.3138 12.7174 39.7698 13.2615 39.7698 13.9325C39.7698 14.6035 40.3138 15.1476 40.9849 15.1476H41.7485C42.4196 15.1476 42.9636 14.6035 42.9636 13.9325C42.9636 13.2615 42.4196 12.7174 41.7485 12.7174Z" fill="#E6ACB3"/>
<path d="M36.5257 12.7174H29.2552C28.584 12.7174 28.04 13.2615 28.04 13.9325C28.04 14.6035 28.584 15.1476 29.2552 15.1476H36.5257C37.1968 15.1476 37.7408 14.6035 37.7408 13.9325C37.7408 13.2615 37.1968 12.7174 36.5257 12.7174Z" fill="#E6ACB3"/>
<path d="M41.7485 18.8221H29.2552C28.584 18.8221 28.04 19.3662 28.04 20.0372C28.04 20.7082 28.584 21.2523 29.2552 21.2523H41.7484C42.4195 21.2523 42.9635 20.7082 42.9635 20.0372C42.9635 19.3662 42.4196 18.8221 41.7485 18.8221Z" fill="#E6ACB3"/>
<path d="M41.7997 24.9268H29.2552C28.584 24.9268 28.04 25.4709 28.04 26.1419C28.04 26.8129 28.584 27.357 29.2552 27.357H41.7997C42.4708 27.357 43.0148 26.8129 43.0148 26.1419C43.0148 25.4709 42.4708 24.9268 41.7997 24.9268Z" fill="#E6ACB3"/>
<path d="M15.2714 20.5132C10.5468 20.5132 6.70312 24.1471 6.70312 28.6138C6.70312 29.2848 7.24712 29.8289 7.91824 29.8289H22.6245C23.2956 29.8289 23.8396 29.2848 23.8396 28.6138C23.8397 24.1472 19.9959 20.5132 15.2714 20.5132ZM9.27525 27.3988C9.87906 24.8542 12.3382 22.9437 15.2714 22.9437C18.2045 22.9437 20.6637 24.8542 21.2675 27.3988H9.27525Z" fill="#E6ACB3"/>
<path d="M15.191 9.70172C12.3193 9.70172 9.98279 12.0382 9.98279 14.9098C9.98279 17.7817 12.3191 20.1181 15.191 20.1181C18.0629 20.1181 20.3993 17.7816 20.3993 14.9098C20.3993 12.0381 18.0627 9.70172 15.191 9.70172ZM15.191 17.6878C13.6593 17.6878 12.4131 16.4416 12.4131 14.91C12.4131 13.3783 13.6592 12.1322 15.191 12.1322C16.7228 12.1322 17.9689 13.3783 17.9689 14.91C17.9689 16.4415 16.7228 17.6878 15.191 17.6878Z" fill="#E6ACB3"/>
</svg>
