<svg width="229" height="50" viewBox="0 0 229 50" fill="none" xmlns="http://www.w3.org/2000/svg"><path d="M77.479 5.032c0 .044-.065.077-.195.098-.108.022-.173 0-.195-.065-.346-1.272-.93-2.215-1.753-2.829-.822-.614-1.904-.92-3.246-.92h-.974c-.65 0-1.126.142-1.428.427-.303.285-.455.724-.455 1.316v7.103h2.337c1.256 0 2.208-.219 2.857-.657.671-.46 1.006-1.086 1.006-1.875 0-.044.066-.066.195-.066.13 0 .195.022.195.066l-.032 2.993c0 .701.01 1.228.032 1.578l.033 1.743c0 .066-.065.099-.195.099s-.195-.033-.195-.099c0-.877-.346-1.567-1.039-2.072-.67-.526-1.634-.789-2.89-.789h-2.304v7.038c0 .68.087 1.184.26 1.513.173.329.498.559.974.69.476.132 1.222.198 2.24.198.043 0 .065.066.065.197 0 .132-.022.197-.065.197-.888 0-1.58-.01-2.078-.032l-3.311-.033-2.435.033c-.433.021-1.028.032-1.786.032-.065 0-.097-.065-.097-.197 0-.131.032-.197.097-.197.758 0 1.31-.055 1.656-.165.346-.11.574-.317.682-.624.13-.33.194-.823.194-1.48V3.026c0-.658-.054-1.14-.162-1.447a.98.98 0 0 0-.649-.625c-.325-.132-.822-.198-1.493-.198-.065 0-.098-.065-.098-.197 0-.131.033-.197.098-.197h13.764c.217 0 .325.098.325.296l.065 4.374zM104.067 20.522c.108 0 .162.066.162.197 0 .132-.054.197-.162.197-.433 0-1.104-.021-2.013-.065a50.816 50.816 0 0 0-2.045-.066c-.54 0-1.2.022-1.98.066a31.03 31.03 0 0 1-1.753.066c-.087 0-.13-.066-.13-.198 0-.131.043-.197.13-.197.563 0 .963-.055 1.201-.165.26-.131.39-.35.39-.657 0-.373-.217-.998-.65-1.875l-2.207-4.44h-7.986l-1.266 2.862c-.282.635-.422 1.227-.422 1.775 0 .79.27 1.404.811 1.842.563.439 1.31.658 2.24.658.109 0 .163.066.163.197 0 .132-.054.197-.163.197-.39 0-.952-.021-1.688-.065a41.019 41.019 0 0 0-2.142-.066c-.585 0-1.288.022-2.11.066-.736.044-1.332.066-1.786.066-.087 0-.13-.066-.13-.198 0-.131.043-.197.13-.197.606 0 1.114-.12 1.526-.362.41-.263.822-.712 1.233-1.348.412-.658.898-1.623 1.461-2.894L91.926.23c.043-.066.14-.098.292-.098.173 0 .27.032.292.098l8.116 16.18c.757 1.558 1.385 2.632 1.883 3.224.498.592 1.017.888 1.558.888zm-16.621-8.058h7.077L90.79 4.966l-3.344 7.498zM112.275 3.683c0 .79.194 1.491.584 2.105a7 7 0 0 0 1.493 1.612c.585.46 1.375 1.02 2.37 1.677 1.082.702 1.948 1.316 2.597 1.842a7.188 7.188 0 0 1 1.656 1.94c.454.745.682 1.611.682 2.598 0 1.14-.303 2.16-.909 3.059-.606.877-1.45 1.567-2.533 2.072-1.06.482-2.25.723-3.571.723-.973 0-1.991-.131-3.051-.395-1.061-.285-1.775-.591-2.143-.92a3.082 3.082 0 0 1-.259-.23c-.044-.088-.065-.22-.065-.395l-.098-5.23v-.032c0-.088.054-.132.163-.132.108-.022.173.011.194.099.65 1.337 1.212 2.423 1.688 3.256a8.987 8.987 0 0 0 1.851 2.203c.757.636 1.612.954 2.564.954.866 0 1.58-.23 2.143-.69.563-.483.844-1.294.844-2.434 0-.965-.216-1.81-.649-2.533a6.628 6.628 0 0 0-1.526-1.841c-.606-.505-1.439-1.108-2.5-1.81-1.038-.679-1.85-1.26-2.434-1.742a7.132 7.132 0 0 1-1.461-1.743c-.411-.68-.617-1.48-.617-2.401 0-1.162.325-2.138.974-2.927.671-.811 1.526-1.403 2.564-1.776A9.156 9.156 0 0 1 116.105 0c.758 0 1.526.077 2.305.23.779.132 1.407.296 1.883.494.195.087.325.186.39.296a.596.596 0 0 1 .097.361v4.835c0 .066-.054.12-.162.164-.108.022-.173 0-.195-.066l-.26-.624c-.541-1.382-1.179-2.555-1.915-3.52-.714-.964-1.721-1.446-3.019-1.446-.866 0-1.58.252-2.143.756-.541.504-.811 1.239-.811 2.203zM149.694 20.522c.065 0 .097.066.097.197 0 .132-.032.197-.097.197a39.6 39.6 0 0 1-1.818-.032l-2.5-.033-2.922.033a29.9 29.9 0 0 1-1.59.032c-.065 0-.098-.065-.098-.197 0-.131.033-.197.098-.197.8 0 1.385-.055 1.753-.165.368-.11.616-.317.746-.624s.195-.8.195-1.48v-7.565h-10.486v7.565c0 .657.065 1.15.195 1.48.13.306.379.515.747.624.368.11.952.165 1.753.165.043 0 .065.066.065.197 0 .132-.022.197-.065.197a39.6 39.6 0 0 1-1.818-.032l-2.824-.033-2.435.033c-.433.021-1.028.032-1.786.032-.043 0-.065-.065-.065-.197 0-.131.022-.197.065-.197.758 0 1.31-.055 1.656-.165.346-.11.584-.317.714-.624.13-.33.195-.823.195-1.48V3.026c0-.658-.065-1.14-.195-1.447-.13-.307-.368-.516-.714-.625-.325-.132-.855-.198-1.591-.198-.065 0-.097-.065-.097-.197 0-.131.032-.197.097-.197l1.753.033c.996.044 1.797.065 2.403.065.822 0 1.774-.021 2.856-.065l1.786-.033c.043 0 .065.066.065.197 0 .132-.022.197-.065.197-.779 0-1.353.066-1.721.198-.368.131-.627.361-.779.69-.13.307-.195.79-.195 1.447v6.677h10.486V3.09c0-.657-.065-1.14-.195-1.447-.13-.329-.378-.559-.746-.69-.368-.132-.953-.198-1.753-.198-.065 0-.098-.065-.098-.197 0-.131.033-.197.098-.197l1.59.033c1.082.044 2.056.065 2.922.065.584 0 1.418-.021 2.5-.065l1.818-.033c.065 0 .097.066.097.197 0 .132-.032.197-.097.197-.736 0-1.288.066-1.656.198-.346.11-.584.318-.714.625-.108.307-.163.789-.163 1.447v15.227c0 .657.055 1.15.163 1.48.13.306.368.515.714.624.346.11.898.165 1.656.165zM160.688 18.253c0 .68.054 1.173.162 1.48a.98.98 0 0 0 .617.624c.325.11.833.165 1.526.165.065 0 .097.066.097.197 0 .132-.032.197-.097.197-.714 0-1.277-.01-1.688-.032l-2.467-.033-2.403.033c-.432.021-1.017.032-1.753.032-.043 0-.065-.065-.065-.197 0-.131.022-.197.065-.197.693 0 1.202-.055 1.526-.165a.979.979 0 0 0 .649-.624c.13-.33.195-.823.195-1.48V3.026c0-.658-.065-1.14-.195-1.447a.98.98 0 0 0-.649-.625c-.324-.132-.833-.198-1.526-.198-.043 0-.065-.065-.065-.197 0-.131.022-.197.065-.197l1.753.033c.996.044 1.797.065 2.403.065.671 0 1.504-.021 2.499-.065l1.656-.033c.065 0 .097.066.097.197 0 .132-.032.197-.097.197-.671 0-1.169.066-1.493.198a1.08 1.08 0 0 0-.65.69c-.108.307-.162.79-.162 1.447v15.162zM178.894 21.311c-2.013 0-3.809-.471-5.389-1.414a10.039 10.039 0 0 1-3.636-3.88c-.844-1.645-1.266-3.432-1.266-5.361 0-2.259.562-4.188 1.688-5.789 1.125-1.622 2.564-2.839 4.317-3.65C176.383.406 178.19 0 180.03 0c2.056 0 3.863.493 5.421 1.48 1.558.965 2.749 2.247 3.571 3.848.844 1.6 1.266 3.3 1.266 5.097 0 1.995-.519 3.826-1.558 5.493-1.039 1.666-2.435 2.981-4.188 3.946-1.731.965-3.614 1.447-5.648 1.447zm1.071-.822c1.212 0 2.294-.35 3.246-1.052.974-.724 1.732-1.765 2.273-3.125.541-1.381.811-3.025.811-4.933 0-2.017-.303-3.815-.909-5.393-.606-1.601-1.482-2.85-2.629-3.75-1.147-.899-2.489-1.348-4.026-1.348-1.969 0-3.484.756-4.545 2.27-1.06 1.49-1.59 3.584-1.59 6.28 0 2.127.313 4.035.941 5.723.649 1.667 1.526 2.971 2.63 3.914 1.125.943 2.391 1.414 3.798 1.414zM217.935.362c.043 0 .065.066.065.197 0 .132-.022.197-.065.197-.866 0-1.547.351-2.045 1.053-.498.68-.747 1.6-.747 2.762V21.41c0 .066-.054.11-.162.131-.087.022-.152.011-.195-.032L199.561 3.947V16.74c0 1.162.238 2.083.714 2.762.476.68 1.136 1.02 1.98 1.02.043 0 .065.066.065.197 0 .132-.022.197-.065.197-.606 0-1.071-.01-1.396-.032l-1.753-.033-2.013.033c-.367.021-.898.032-1.59.032-.065 0-.098-.065-.098-.197 0-.131.033-.197.098-.197.952 0 1.699-.34 2.24-1.02.562-.68.844-1.6.844-2.762V2.828c-.714-.789-1.331-1.326-1.851-1.611a2.924 2.924 0 0 0-1.558-.46c-.043 0-.065-.066-.065-.198 0-.131.022-.197.065-.197l1.364.033c.281.022.692.033 1.233.033l2.467-.033c.303-.022.671-.033 1.104-.033.173 0 .303.044.39.131.086.088.238.274.454.56.368.504.628.844.779 1.019l11.233 13.122V4.571c0-1.184-.238-2.115-.714-2.795-.477-.68-1.137-1.02-1.981-1.02-.043 0-.065-.065-.065-.197 0-.131.022-.197.065-.197l1.396.033c.693.044 1.277.065 1.753.065.433 0 1.039-.021 1.818-.065l1.461-.033zM68.13 29.533c-1.364 0-2.392.35-3.085 1.052-.67.702-1.158 1.897-1.46 3.585 0 .044-.066.066-.195.066-.109 0-.163-.022-.163-.066.087-.79.184-1.82.292-3.091.109-1.272.163-2.226.163-2.861 0-.11.054-.165.162-.165.13 0 .195.055.195.165 0 .482.584.723 1.753.723 1.84.066 4.014.099 6.525.099 1.277 0 2.63-.022 4.058-.066l2.207-.033c.78 0 1.353-.055 1.721-.164.39-.11.639-.33.747-.658.021-.088.086-.132.195-.132.108 0 .162.044.162.132-.065.636-.13 1.6-.195 2.894a65.523 65.523 0 0 0-.097 3.157c0 .044-.065.066-.195.066s-.195-.022-.195-.066c-.065-1.71-.411-2.905-1.039-3.585-.627-.701-1.666-1.052-3.116-1.052-.974 0-1.667.044-2.078.131-.411.088-.693.275-.844.56-.151.285-.227.767-.227 1.447v15.16c0 .68.075 1.174.227 1.48.151.308.444.516.877.626.432.11 1.114.164 2.045.164.065 0 .097.066.097.197 0 .132-.032.198-.097.198-.714 0-1.288-.011-1.72-.033l-2.533-.033-2.435.033c-.433.022-1.028.033-1.785.033-.043 0-.065-.066-.065-.198 0-.131.022-.197.065-.197.93 0 1.612-.055 2.045-.164.433-.11.725-.318.877-.625.173-.33.26-.822.26-1.48V31.605c0-.68-.076-1.151-.228-1.414-.151-.285-.433-.46-.844-.526-.411-.088-1.104-.132-2.078-.132zM96.635 49.89c-2.013 0-3.809-.471-5.389-1.414a10.05 10.05 0 0 1-3.636-3.88c-.844-1.645-1.266-3.432-1.266-5.361 0-2.258.563-4.188 1.688-5.788 1.126-1.623 2.565-2.84 4.318-3.65 1.775-.812 3.582-1.218 5.422-1.218 2.055 0 3.863.494 5.421 1.48 1.558.965 2.748 2.247 3.571 3.848.844 1.6 1.266 3.3 1.266 5.098 0 1.995-.519 3.825-1.558 5.492-1.039 1.666-2.435 2.982-4.188 3.946-1.731.965-3.614 1.447-5.649 1.447zm1.136-.69c1.472 0 2.792-.362 3.961-1.086 1.19-.723 2.121-1.786 2.792-3.19.692-1.403 1.039-3.07 1.039-4.999 0-2.06-.379-3.891-1.136-5.492-.758-1.6-1.829-2.85-3.214-3.749-1.364-.899-2.965-1.348-4.805-1.348-2.38 0-4.242.778-5.584 2.335-1.341 1.556-2.012 3.694-2.012 6.413 0 2.06.378 3.946 1.136 5.656.757 1.689 1.818 3.026 3.181 4.013 1.364.964 2.911 1.447 4.642 1.447zM141.766 28.941c.065 0 .097.066.097.197 0 .132-.032.198-.097.198-.714 0-1.342.197-1.883.592-.541.394-1.007 1.063-1.396 2.006l-6.915 17.529c-.021.087-.141.131-.357.131-.173 0-.292-.044-.357-.131l-4.22-9.307-3.669 9.307c-.021.087-.14.131-.357.131-.173 0-.292-.044-.357-.131l-8.083-17.792c-.39-.877-.779-1.48-1.169-1.81-.39-.35-.92-.525-1.591-.525-.065 0-.097-.066-.097-.198 0-.131.032-.197.097-.197l1.234.033c.606.044 1.093.066 1.461.066.779 0 1.623-.022 2.532-.066l1.331-.033c.065 0 .097.066.097.197 0 .132-.032.198-.097.198-.649 0-1.136.076-1.461.23-.303.153-.454.416-.454.79 0 .328.108.723.324 1.183l6.915 15.03 2.922-7.334-3.441-7.564c-.368-.834-.747-1.425-1.137-1.776-.389-.373-.898-.56-1.525-.56-.065 0-.098-.065-.098-.197 0-.131.033-.197.098-.197l1.201.033c.606.044 1.071.066 1.396.066.627 0 1.266-.022 1.915-.066l.909-.033c.065 0 .097.066.097.197 0 .132-.032.198-.097.198-.411 0-.703.033-.877.098-.151.066-.227.198-.227.395 0 .285.195.855.585 1.71l2.369 5.13 1.916-4.9c.238-.657.357-1.15.357-1.48 0-.329-.108-.57-.325-.723-.216-.154-.563-.23-1.039-.23-.065 0-.097-.066-.097-.198 0-.131.032-.197.097-.197l.747.033c.433.044.887.066 1.363.066.433 0 .931-.022 1.494-.066l1.331-.033c.043 0 .065.066.065.197 0 .132-.022.198-.065.198-.736 0-1.364.197-1.883.592-.52.372-.963 1.041-1.331 2.006l-2.208 5.623 4.123 9.012 5.811-14.734c.173-.46.26-.844.26-1.151 0-.46-.195-.8-.584-1.02-.39-.219-1.007-.328-1.851-.328-.065 0-.097-.066-.097-.198 0-.131.032-.197.097-.197l1.364.033c.692.044 1.341.066 1.947.066.455 0 .964-.022 1.526-.066l1.364-.033zM167.109 28.941c.065 0 .097.066.097.197 0 .132-.032.198-.097.198-.909 0-1.569.252-1.98.756-.412.504-.617 1.327-.617 2.467V49.89c0 .044-.054.077-.163.099-.108.022-.184.011-.227-.033l-14.933-18.318-.292-.33v14.603c0 1.14.195 1.962.584 2.466.411.483 1.061.724 1.948.724.065 0 .097.066.097.197 0 .132-.032.198-.097.198-.541 0-.952-.011-1.234-.033l-1.623-.033-1.656.033c-.302.022-.746.033-1.331.033-.043 0-.064-.066-.064-.198 0-.131.021-.197.064-.197.931 0 1.591-.241 1.981-.724.389-.504.584-1.326.584-2.466V30.52c-.844-.79-1.699-1.184-2.565-1.184-.064 0-.097-.066-.097-.198 0-.131.033-.197.097-.197l1.202.033c.259.022.616.033 1.071.033.476 0 .866-.011 1.169-.033.303-.022.541-.033.714-.033.173 0 .292.044.357.132.086.065.216.23.389.493.26.395.52.756.78 1.085l12.498 15.556V32.559c0-1.14-.195-1.963-.584-2.467-.368-.504-.996-.756-1.883-.756-.043 0-.065-.066-.065-.198 0-.131.022-.197.065-.197l1.266.033c.649.044 1.179.066 1.591.066.389 0 .93-.022 1.623-.066l1.331-.033z" fill="#000"/><path opacity=".1" fill="#282534" d="M50 0h2v50h-2z"/><path d="M28.257 25.681c.663 0 1.202-.54 1.202-1.202 0-.663-.54-1.203-1.202-1.203a1.204 1.204 0 0 0 0 2.405zM12.785 25.681c.663 0 1.203-.54 1.203-1.202a1.204 1.204 0 0 0-2.405 0c0 .663.54 1.202 1.202 1.202z" fill="#282534"/><path d="M41.035 43.664 38.067 17.13a1.203 1.203 0 0 0-1.195-1.069H29.46v5.016a3.613 3.613 0 0 1 2.405 3.4 3.611 3.611 0 0 1-3.608 3.608 3.611 3.611 0 0 1-3.607-3.607 3.613 3.613 0 0 1 2.405-3.4v-5.017H13.988v5.016a3.613 3.613 0 0 1 2.405 3.4 3.611 3.611 0 0 1-3.607 3.608 3.611 3.611 0 0 1-3.608-3.607 3.613 3.613 0 0 1 2.405-3.4v-5.017H4.166c-.613 0-1.127.46-1.195 1.069L.007 43.664A1.203 1.203 0 0 0 1.202 45H39.84a1.202 1.202 0 0 0 1.195-1.336z" fill="#282534"/><path d="M13.988 13.938a6.54 6.54 0 0 1 6.533-6.533 6.54 6.54 0 0 1 6.533 6.533v2.124h2.405v-2.124C29.459 9.01 25.449 5 20.52 5c-4.929 0-8.938 4.01-8.938 8.938v2.124h2.405v-2.124z" fill="#282534"/></svg>