<svg width="24" height="24" viewBox="0 0 24 24" fill="none" xmlns="http://www.w3.org/2000/svg"><path d="M12 20.333a8.307 8.307 0 0 0 5.893-2.44A8.307 8.307 0 0 0 20.333 12a8.307 8.307 0 0 0-2.44-5.892A8.307 8.307 0 0 0 12 3.667a8.307 8.307 0 0 0-5.892 2.44A8.307 8.307 0 0 0 3.667 12c0 2.301.933 4.385 2.44 5.893A8.307 8.307 0 0 0 12 20.333z" fill="#AC9FA6" stroke="#583F4C" stroke-width="2" stroke-linejoin="round"/><path fill-rule="evenodd" clip-rule="evenodd" d="M12 17.417a1.042 1.042 0 1 0 0-2.084 1.042 1.042 0 0 0 0 2.084z" fill="#fff"/><path d="M12 7v6.667" stroke="#fff" stroke-width="2" stroke-linecap="round" stroke-linejoin="round"/></svg>