<svg width="24" height="24" viewBox="0 0 24 24" fill="none" xmlns="http://www.w3.org/2000/svg"><path d="M9.036 10c1.81 0 3.483-.41 4.738-1.138C15.012 8.144 16 7.005 16 5.538c0-1.459-.98-2.616-2.214-3.355C12.53 1.433 10.856 1 9.036 1c-1.82 0-3.51.432-4.78 1.18C3.013 2.912 2 4.068 2 5.538c0 1.479 1.021 2.616 2.268 3.328C5.538 9.59 7.226 10 9.036 10zM3.7 15.152 2 13.49v3.238c0 1.426 1.043 2.484 2.243 3.128 1.235.663 2.873 1.035 4.628 1.035.158 0 .342-.011.475-.02l.119-.007 1.718-.084-.923-1.451a5.811 5.811 0 0 1-.754-1.789l-.177-.75-.77-.02c-2.205-.061-3.965-.741-4.86-1.617z" fill="#AC9FA6" stroke="#583F4C" stroke-width="2"/><path d="m8.324 17.698 1.124.052-.082-1.123-.002-.03c-.012-.163-.02-.28-.02-.398 0-.462.06-.915.167-1.361l.287-1.2-1.232-.033c-2.208-.06-3.971-.74-4.867-1.617L2 10.325v3.238c0 1.355.95 2.374 2.059 3.013 1.135.655 2.642 1.049 4.265 1.122z" fill="#AC9FA6" stroke="#583F4C" stroke-width="2"/><path d="M8.871 14.562h.046l.633-.029.245-.585a5.88 5.88 0 0 1 1.266-1.887l2.066-2.065-2.898.366c-.445.056-.894.09-1.358.09-2.348 0-4.23-.706-5.172-1.628L2 7.161v3.238c0 1.426 1.043 2.484 2.243 3.128 1.235.663 2.873 1.035 4.628 1.035z" fill="#AC9FA6" stroke="#583F4C" stroke-width="2"/><path d="M16 9c-3.86 0-7 3.14-7 7s3.14 7 7 7 7-3.14 7-7-3.14-7-7-7z" fill="#AC9FA6" stroke="#583F4C" stroke-width="2"/><path d="M14.6 18.866h1.917c.928 0 1.683-.754 1.683-1.683 0-.928-.755-1.683-1.683-1.683h-.834a.484.484 0 0 1 0-.967H17.6a.6.6 0 0 0 0-1.2h-1.917a1.685 1.685 0 0 0 0 3.367h.834a.484.484 0 0 1 0 .966H14.6a.6.6 0 0 0 0 1.2z" fill="#fff" stroke="#fff" stroke-width=".2"/><path d="M15.509 19.6a.6.6 0 0 0 1.2 0v-1.195a.6.6 0 0 0-1.2 0V19.6zM15.509 13.933a.6.6 0 0 0 1.2 0V12.6a.6.6 0 0 0-1.2 0v1.333z" fill="#fff" stroke="#fff" stroke-width=".2"/></svg>