<svg width="20" height="20" viewBox="0 0 20 20" fill="none" xmlns="http://www.w3.org/2000/svg"><path d="M19.963 4.774 18.535.49A.714.714 0 0 0 17.857 0H2.143a.714.714 0 0 0-.678.489L.036 4.774A.728.728 0 0 0 0 4.981v.733a3.556 3.556 0 0 0 1.429 2.842v9.301c0 1.184.959 2.143 2.142 2.143h12.857c1.184 0 2.143-.96 2.143-2.143V8.556A3.557 3.557 0 0 0 20 5.714V4.98a.725.725 0 0 0-.037-.206zM15 1.43h2.342l.953 2.857H15V1.429zm-4.286 0h2.857v2.857h-2.857V1.429zm-4.285 0h2.857v2.857H6.429V1.429zm-3.771 0H5v2.857H1.705l.953-2.857zm8.77 17.142H8.572v-5.714h2.858v5.714zm5.715-.714c0 .395-.32.714-.715.714h-3.57v-6.428a.714.714 0 0 0-.715-.714H7.857a.714.714 0 0 0-.714.714v6.428H3.57a.714.714 0 0 1-.714-.714V9.214a3.53 3.53 0 0 0 2.857-.655 3.62 3.62 0 0 0 4.286 0 3.62 3.62 0 0 0 4.286 0 3.53 3.53 0 0 0 2.857.655v8.643zm-.715-10a2.11 2.11 0 0 1-1.605-.741.714.714 0 0 0-1.075 0 2.155 2.155 0 0 1-3.21 0 .739.739 0 0 0-1.076 0 2.155 2.155 0 0 1-3.21 0 .739.739 0 0 0-1.076 0c-.4.47-.987.74-1.605.741A2.143 2.143 0 0 1 1.43 5.714H18.57c0 1.184-.959 2.143-2.143 2.143z" fill="url(#a)"/><defs><linearGradient id="a" x1="10.727" y1="20" x2="3.604" y2="3.074" gradientUnits="userSpaceOnUse"><stop stop-color="#EE9CA7"/><stop offset="1" stop-color="#FFDDE1"/></linearGradient></defs></svg>