<svg width="60" height="60" viewBox="0 0 60 60" fill="none" xmlns="http://www.w3.org/2000/svg"><rect width="60" height="60" rx="15" fill="url(#a)"/><path d="M25.143 23.454c0-3.012 2.302-5.454 5.143-5.454 2.84 0 5.143 2.442 5.143 5.454 0 3.013-2.303 5.455-5.143 5.455s-5.143-2.442-5.143-5.454zM30.286 30C24.606 30 20 34.884 20 40.91c0 .602.46 1.09 1.029 1.09.568 0 1.028-.488 1.028-1.09 0-4.303 2.936-7.878 6.798-8.597l-1.61 5.548c-.1.345-.032.72.18 1.002l2.058 2.728c.195.258.49.409.803.409.312 0 .608-.15.803-.41l2.057-2.727c.213-.282.28-.657.18-1.002l-1.61-5.548c3.863.718 6.798 4.294 6.798 8.596 0 .603.46 1.091 1.029 1.091.568 0 1.028-.488 1.028-1.09 0-6.025-4.603-10.908-10.283-10.91M30.286 30z" fill="#fff"/><circle cx="30" cy="30" r="24.5" stroke="#fff" stroke-opacity=".3"/><defs><linearGradient id="a" x1="-10.5" y1="57.972" x2="66.86" y2="23.748" gradientUnits="userSpaceOnUse"><stop stop-color="#D3BEFF"/><stop offset="1" stop-color="#C9DBFF"/></linearGradient></defs></svg>