<svg width="40" height="40" viewBox="0 0 40 40" fill="none" xmlns="http://www.w3.org/2000/svg"><path d="m24.624 22.05-1.537-1.579a1.031 1.031 0 0 0-1.724.368 1.053 1.053 0 0 1-1.226.653c-1.108-.29-2.59-1.75-2.853-2.918a1.002 1.002 0 0 1 .68-1.206 1.034 1.034 0 0 0 .407-1.715l-1.537-1.58a1.108 1.108 0 0 0-1.497-.015L14.27 15.11c-1.053 1.097.066 4.05 2.645 6.686 2.579 2.637 5.505 3.89 6.626 2.792l1.066-1.052a1.107 1.107 0 0 0 .016-1.487zM22.808 17.545a.353.353 0 0 1-.703 0 1.402 1.402 0 0 0-1.403-1.403.352.352 0 1 1 0-.703 2.105 2.105 0 0 1 2.106 2.106z" fill="#7652FE"/><path d="M23.492 17.858a2.813 2.813 0 0 0-3.103-3.103.35.35 0 1 1-.076-.697 3.513 3.513 0 0 1 3.876 3.876.35.35 0 0 1-.697-.076z" fill="#7652FE"/><path d="M25.616 17.545c0 .382-.045.762-.132 1.134a.353.353 0 1 1-.684-.163 4.21 4.21 0 0 0-4.097-5.182h-.327a.35.35 0 0 1-.184-.663.351.351 0 0 1 .132-.037 4.921 4.921 0 0 1 5.292 4.91z" fill="#7652FE"/><path d="M36.842 0H3.158A3.158 3.158 0 0 0 0 3.158v33.684A3.158 3.158 0 0 0 3.158 40h33.684A3.158 3.158 0 0 0 40 36.842V3.158A3.158 3.158 0 0 0 36.842 0zm-7.368 20a7.368 7.368 0 0 1-7.369 7.368h-3.713l-3.058 3.058a.353.353 0 0 1-.597-.247V26.66A7.368 7.368 0 0 1 10.527 20v-3.158a7.368 7.368 0 0 1 7.368-7.368h4.21a7.368 7.368 0 0 1 7.369 7.368V20z" fill="#7652FE"/></svg>