<svg width="20" height="16" viewBox="0 0 20 16" fill="none" xmlns="http://www.w3.org/2000/svg"><path d="M15.313 10a2.19 2.19 0 0 1-2.188-2.221c.019-1.2 1.02-2.154 2.22-2.154h4.46A.195.195 0 0 0 20 5.43V2.969C20 1.329 18.67 0 17.031 0H2.97A2.969 2.969 0 0 0 0 2.969v9.687c0 1.64 1.33 2.969 2.969 2.969H17.03c1.64 0 2.969-1.33 2.969-2.969v-2.46a.195.195 0 0 0-.195-.196h-4.492z" fill="#933468"/><path d="M14.375 7.796c-.009.525.434.954.959.954h4.47A.195.195 0 0 0 20 8.555V7.07a.195.195 0 0 0-.195-.195h-4.493a.939.939 0 0 0-.937.921z" fill="#933468"/></svg>