<svg width="21" height="21" viewBox="0 0 21 21" fill="none" xmlns="http://www.w3.org/2000/svg"><g opacity=".5" clip-path="url(#a)"><path d="M11.183 18.675a8.307 8.307 0 0 0 5.893-2.441 8.307 8.307 0 0 0 2.44-5.893 8.308 8.308 0 0 0-2.44-5.892 8.307 8.307 0 0 0-5.893-2.44 8.307 8.307 0 0 0-5.892 2.44 8.307 8.307 0 0 0-2.44 5.893c0 2.3.932 4.384 2.44 5.892a8.307 8.307 0 0 0 5.892 2.44z" fill="#E93C3C" stroke="#E93C3C" stroke-width="2" stroke-linejoin="round"/><path fill-rule="evenodd" clip-rule="evenodd" d="M11.184 4.925a1.042 1.042 0 1 1 0 2.083 1.042 1.042 0 0 1 0-2.083z" fill="#fff"/><path d="M11.392 14.508V8.675h-.833M9.934 14.508h2.916" stroke="#fff" stroke-width="2" stroke-linecap="round" stroke-linejoin="round"/></g><defs><clipPath id="a"><path fill="#fff" transform="translate(.85 .008)" d="M0 0h19.957v20.015H0z"/></clipPath></defs></svg>